<svg width="32" height="32" viewBox="0 0 32 32" fill="none" xmlns="http://www.w3.org/2000/svg">
<path d="M8.70531 20.1C10.2953 20.1 11.4053 19.15 11.4053 17.73C11.4053 16.42 10.4553 15.54 9.08531 15.54C8.65531 15.54 8.23531 15.6 7.85531 15.71L8.22531 13.23H11.0653V12.6H7.55531L7.04531 16.39L7.56531 16.47C7.98531 16.28 8.47531 16.17 8.94531 16.17C9.94531 16.17 10.6153 16.82 10.6153 17.77C10.6153 18.79 9.82531 19.47 8.63531 19.47C7.91531 19.47 7.24531 19.27 6.79531 18.85L6.56531 19.41C7.05531 19.87 7.79531 20.1 8.70531 20.1ZM14.9987 20.1C16.5787 20.1 17.6187 18.58 17.6187 16.3C17.6187 14.02 16.5787 12.5 14.9987 12.5C13.4287 12.5 12.3887 14.02 12.3887 16.3C12.3887 18.58 13.4287 20.1 14.9987 20.1ZM14.9987 19.47C13.8987 19.47 13.1687 18.2 13.1687 16.3C13.1687 14.4 13.8987 13.13 14.9987 13.13C16.0987 13.13 16.8287 14.4 16.8287 16.3C16.8287 18.2 16.0987 19.47 14.9987 19.47ZM20.1394 15.81C21.1294 15.81 21.7894 15.15 21.7894 14.15C21.7894 13.16 21.1294 12.5 20.1394 12.5C19.1394 12.5 18.4694 13.16 18.4694 14.15C18.4694 15.15 19.1394 15.81 20.1394 15.81ZM20.0194 20.1L24.3194 12.76L23.8994 12.5L19.5994 19.84L20.0194 20.1ZM20.1394 15.31C19.5094 15.31 19.0994 14.85 19.0994 14.15C19.0994 13.45 19.5094 12.99 20.1394 12.99C20.7494 12.99 21.1694 13.45 21.1694 14.15C21.1694 14.85 20.7494 15.31 20.1394 15.31ZM23.7794 20.1C24.7794 20.1 25.4394 19.44 25.4394 18.45C25.4394 17.45 24.7794 16.79 23.7794 16.79C22.7894 16.79 22.1194 17.45 22.1194 18.45C22.1194 19.44 22.7894 20.1 23.7794 20.1ZM23.7794 19.61C23.1594 19.61 22.7394 19.14 22.7394 18.45C22.7394 17.75 23.1594 17.29 23.7794 17.29C24.3994 17.29 24.8094 17.75 24.8094 18.45C24.8094 19.14 24.3994 19.61 23.7794 19.61Z" fill="#ECE233"/>
<path d="M16 -6.99382e-07C24.8366 -1.08564e-06 32 7.16344 32 16C32 24.8366 24.8366 32 16 32C7.16344 32 -3.13124e-07 24.8366 -6.99382e-07 16C-1.08564e-06 7.16344 7.16344 -3.13124e-07 16 -6.99382e-07ZM16 29.6C23.5111 29.6 29.6 23.5111 29.6 16C29.6 8.48893 23.5111 2.4 16 2.4C8.48893 2.4 2.4 8.48893 2.4 16C2.4 23.5111 8.48893 29.6 16 29.6Z" fill="#CCCCCC"/>
<path d="M16 0C18.7802 3.31533e-08 21.5124 0.72443 23.9273 2.1019C26.3423 3.47936 28.3566 5.46232 29.7719 7.85534C31.1871 10.2484 31.9544 12.9688 31.998 15.7487C32.0417 18.5285 31.3603 21.2718 30.0209 23.7081C28.6815 26.1444 26.7305 28.1896 24.36 29.6422C21.9895 31.0949 19.2814 31.9048 16.5026 31.9921C13.7238 32.0794 10.9702 31.4412 8.51313 30.1403C6.0561 28.8393 3.98045 26.9206 2.49076 24.5732L4.51714 23.2872C5.78338 25.2825 7.54768 26.9134 9.63616 28.0192C11.7246 29.125 14.0652 29.6675 16.4272 29.5933C18.7892 29.5191 21.0911 28.8307 23.106 27.5959C25.1209 26.3612 26.7793 24.6227 27.9178 22.5518C29.0562 20.481 29.6354 18.1492 29.5983 15.7864C29.5612 13.4235 28.909 11.1111 27.7061 9.07704C26.5031 7.04297 24.7909 5.35746 22.7382 4.18661C20.6855 3.01577 18.3632 2.4 16 2.4V0Z" fill="#ECE233"/>
</svg>
