<svg width="32" height="32" viewBox="0 0 32 32" fill="none" xmlns="http://www.w3.org/2000/svg">
<path d="M8.69086 16.23H6.89086V14.44H6.17086V16.23H4.38086V16.83H6.17086V18.62H6.89086V16.83H8.69086V16.23ZM11.9634 12.5C10.5234 12.5 9.56336 13.42 9.56336 14.81C9.56336 16.17 10.5134 17.07 11.8234 17.07C12.1734 17.07 12.4734 17.02 12.7334 16.92L10.5834 20H11.4434L13.7934 16.53C14.1534 16.01 14.3634 15.47 14.3634 14.79C14.3634 13.42 13.4034 12.5 11.9634 12.5ZM10.3534 14.8C10.3534 13.8 10.9934 13.13 11.9634 13.13C12.9334 13.13 13.5734 13.8 13.5734 14.8C13.5734 15.81 12.9334 16.48 11.9634 16.48C10.9934 16.48 10.3534 15.81 10.3534 14.8ZM17.5786 12.5C16.1386 12.5 15.1786 13.42 15.1786 14.81C15.1786 16.17 16.1286 17.07 17.4386 17.07C17.7886 17.07 18.0886 17.02 18.3486 16.92L16.1986 20H17.0586L19.4086 16.53C19.7686 16.01 19.9786 15.47 19.9786 14.79C19.9786 13.42 19.0186 12.5 17.5786 12.5ZM15.9686 14.8C15.9686 13.8 16.6086 13.13 17.5786 13.13C18.5486 13.13 19.1886 13.8 19.1886 14.8C19.1886 15.81 18.5486 16.48 17.5786 16.48C16.6086 16.48 15.9686 15.81 15.9686 14.8ZM22.4538 15.81C23.4438 15.81 24.1038 15.15 24.1038 14.15C24.1038 13.16 23.4438 12.5 22.4538 12.5C21.4538 12.5 20.7838 13.16 20.7838 14.15C20.7838 15.15 21.4538 15.81 22.4538 15.81ZM22.3338 20.1L26.6338 12.76L26.2138 12.5L21.9138 19.84L22.3338 20.1ZM22.4538 15.31C21.8238 15.31 21.4138 14.85 21.4138 14.15C21.4138 13.45 21.8238 12.99 22.4538 12.99C23.0638 12.99 23.4838 13.45 23.4838 14.15C23.4838 14.85 23.0638 15.31 22.4538 15.31ZM26.0938 20.1C27.0938 20.1 27.7538 19.44 27.7538 18.45C27.7538 17.45 27.0938 16.79 26.0938 16.79C25.1038 16.79 24.4338 17.45 24.4338 18.45C24.4338 19.44 25.1038 20.1 26.0938 20.1ZM26.0938 19.61C25.4738 19.61 25.0538 19.14 25.0538 18.45C25.0538 17.75 25.4738 17.29 26.0938 17.29C26.7138 17.29 27.1238 17.75 27.1238 18.45C27.1238 19.14 26.7138 19.61 26.0938 19.61Z" fill="#A4222A"/>
<path d="M16 -6.99382e-07C24.8366 -1.08564e-06 32 7.16344 32 16C32 24.8366 24.8366 32 16 32C7.16344 32 -3.13124e-07 24.8366 -6.99382e-07 16C-1.08564e-06 7.16344 7.16344 -3.13124e-07 16 -6.99382e-07ZM16 29.6C23.5111 29.6 29.6 23.5111 29.6 16C29.6 8.48893 23.5111 2.4 16 2.4C8.48893 2.4 2.4 8.48893 2.4 16C2.4 23.5111 8.48893 29.6 16 29.6Z" fill="#CCCCCC"/>
<path d="M16 0C19.1645 3.77363e-08 22.2579 0.938384 24.8891 2.69649C27.5203 4.45459 29.5711 6.95345 30.7821 9.87707C31.9931 12.8007 32.3099 16.0177 31.6926 19.1214C31.0752 22.2251 29.5513 25.0761 27.3137 27.3137C25.0761 29.5513 22.2251 31.0752 19.1214 31.6926C16.0177 32.3099 12.8007 31.9931 9.87706 30.7821C6.95345 29.5711 4.45459 27.5203 2.69649 24.8891C0.938383 22.2579 -7.54726e-08 19.1645 0 16H2.4C2.4 18.6898 3.19763 21.3192 4.69201 23.5558C6.1864 25.7923 8.31043 27.5354 10.7955 28.5648C13.2806 29.5941 16.0151 29.8634 18.6532 29.3387C21.2914 28.8139 23.7147 27.5186 25.6167 25.6167C27.5186 23.7147 28.8139 21.2914 29.3387 18.6532C29.8634 16.0151 29.5941 13.2806 28.5648 10.7955C27.5354 8.31043 25.7923 6.1864 23.5558 4.69201C21.3192 3.19763 18.6898 2.4 16 2.4V0Z" fill="#A4222A"/>
</svg>
