<svg width="714" height="530" viewBox="0 0 714 530" fill="none" xmlns="http://www.w3.org/2000/svg">
<path d="M712.461 195.773V217.015C712.461 220.215 710.354 223.408 706.138 225.843L453.561 371.68L450.595 369.968C442.074 365.049 442.031 357.099 450.498 352.21L703.077 206.371L706.139 204.603C710.355 202.169 712.461 198.976 712.461 195.773Z" fill="#107644"/>
<path d="M712.461 195.773V217.015C712.461 220.215 710.354 223.408 706.138 225.843L453.561 371.68L450.595 369.968C442.074 365.049 442.031 357.099 450.498 352.21L703.077 206.371L706.139 204.603C710.355 202.169 712.461 198.976 712.461 195.773Z" fill="black" fill-opacity="0.25"/>
<path d="M712.461 195.773V217.015C712.461 220.215 710.354 223.408 706.138 225.843L453.561 371.68L450.595 369.968C442.074 365.049 442.031 357.099 450.498 352.21L703.077 206.371L706.139 204.603C710.355 202.169 712.461 198.976 712.461 195.773Z" stroke="#231F20" stroke-opacity="0.1"/>
<path d="M435.147 468.213L431.378 486.46L6.89422 241.367C2.61759 238.898 0.478516 235.664 0.478516 232.434V211.199C0.478516 214.427 2.6191 217.661 6.89573 220.132L9.86287 221.844L434.397 466.966C434.964 467.293 435.243 467.753 435.147 468.213Z" fill="#107644"/>
<path d="M435.147 468.213L431.378 486.46L6.89422 241.367C2.61759 238.898 0.478516 235.664 0.478516 232.434V211.199C0.478516 214.427 2.6191 217.661 6.89573 220.132L9.86287 221.844L434.397 466.966C434.964 467.293 435.243 467.753 435.147 468.213Z" fill="black" fill-opacity="0.25"/>
<path d="M435.147 468.213L431.378 486.46L6.89422 241.367C2.61759 238.898 0.478516 235.664 0.478516 232.434V211.199C0.478516 214.427 2.6191 217.661 6.89573 220.132L9.86287 221.844L434.397 466.966C434.964 467.293 435.243 467.753 435.147 468.213Z" stroke="#231F20" stroke-opacity="0.1"/>
<path d="M481.715 493.939V515.178C481.515 515.293 432.81 529.143 432.81 529.143C432.437 529.245 432.052 529.296 431.666 529.294C431.544 529.294 431.423 529.294 431.301 529.279V508.041C431.422 508.051 431.544 508.056 431.666 508.056C432.052 508.059 432.436 508.008 432.809 507.904L481.032 494.223C481.271 494.156 481.5 494.061 481.715 493.939Z" fill="#107644"/>
<path d="M564.484 441.371V462.623C564.307 465.68 562.206 468.702 558.175 471.029L481.715 515.176V493.938L555.114 451.557L558.176 449.79C562.212 447.46 564.315 444.434 564.484 441.371Z" fill="#107644"/>
<path d="M564.484 441.371V462.623C564.307 465.68 562.206 468.702 558.175 471.029L481.715 515.176V493.938L555.114 451.557L558.176 449.79C562.212 447.46 564.315 444.434 564.484 441.371Z" fill="black" fill-opacity="0.25"/>
<path d="M564.484 441.371V462.623C564.307 465.68 562.206 468.702 558.175 471.029L481.715 515.176V493.938L555.114 451.557L558.176 449.79C562.212 447.46 564.315 444.434 564.484 441.371Z" stroke="#231F20" stroke-opacity="0.1"/>
<path d="M431.302 508.041V529.282C430.781 529.248 430.274 529.101 429.816 528.85C425.441 526.325 423.306 523.002 423.401 519.703V498.908C423.498 502.059 425.639 505.2 429.816 507.612C430.274 507.861 430.782 508.007 431.302 508.041Z" fill="#23B258"/>
<path d="M431.302 508.041V529.282C430.781 529.248 430.274 529.101 429.816 528.85C425.441 526.325 423.306 523.002 423.401 519.703V498.908C423.498 502.059 425.639 505.2 429.816 507.612C430.274 507.861 430.782 508.007 431.302 508.041Z" fill="black" fill-opacity="0.25"/>
<path d="M431.302 508.041V529.282C430.781 529.248 430.274 529.101 429.816 528.85C425.441 526.325 423.306 523.002 423.401 519.703V498.908C423.498 502.059 425.639 505.2 429.816 507.612C430.274 507.861 430.782 508.007 431.302 508.041Z" stroke="#231F20" stroke-opacity="0.1"/>
<path d="M713.38 195.697C713.38 198.898 711.272 202.091 707.056 204.527L703.995 206.293L451.415 352.133C442.948 357.021 442.992 364.973 451.512 369.892L454.478 371.604L558.995 431.956C563.09 434.319 565.228 437.385 565.402 440.474V441.294C565.231 444.357 563.131 447.384 559.092 449.714L556.03 451.482L482.632 493.861C482.415 493.983 482.185 494.079 481.945 494.146L433.729 507.828C433.356 507.93 432.971 507.981 432.584 507.979C432.463 507.979 432.342 507.979 432.22 507.966C431.699 507.932 431.192 507.785 430.733 507.536C426.556 505.125 424.416 501.984 424.319 498.832V498.378C424.414 495.254 426.52 492.154 430.636 489.777L431.09 489.515C431.501 489.279 431.759 488.97 431.828 488.635L432.292 486.384L436.071 468.137C436.166 467.683 435.888 467.217 435.314 466.89L10.7847 221.766L7.8176 220.053C3.54097 217.583 1.40039 214.349 1.40039 211.12C1.40039 207.921 3.50766 204.725 7.72374 202.292L353.669 2.54439C354.151 2.28434 354.687 2.13732 355.234 2.11441L373.855 1.00769C380.385 0.618597 386.887 1.95696 391.545 4.64126L706.962 186.766C711.239 189.235 713.38 192.465 713.38 195.697Z" fill="#E0E0E0"/>
</svg>
