<svg width="27" height="18" viewBox="0 0 27 18" fill="none" xmlns="http://www.w3.org/2000/svg">
<path d="M26.5185 12.2839L23.895 13.7978L21.9542 14.9197L3.41258 4.21432L0.789062 2.69882L5.35333 0.0644531L26.5185 12.2839Z" fill="#23B258"/>
<path d="M26.5185 12.2839L23.895 13.7978L21.9542 14.9197L3.41258 4.21432L0.789062 2.69882L5.35333 0.0644531L26.5185 12.2839Z" fill="#5AC582"/>
<path d="M26.5185 12.2839L23.895 13.7978L21.9542 14.9197L3.41258 4.21432L0.789062 2.69882L5.35333 0.0644531L26.5185 12.2839Z" stroke="#231F20" stroke-opacity="0.1"/>
<path d="M26.5213 12.2852V15.3161L21.957 17.9505V14.921L23.8978 13.7991L26.5213 12.2852Z" fill="#A4222A"/>
<path d="M26.5213 12.2852V15.3161L21.957 17.9505V14.921L23.8978 13.7991L26.5213 12.2852Z" fill="black" fill-opacity="0.25"/>
<path d="M26.5213 12.2852V15.3161L21.957 17.9505V14.921L23.8978 13.7991L26.5213 12.2852Z" stroke="#231F20" stroke-opacity="0.1"/>
<path d="M21.9562 14.9201V17.9495L0.791016 5.72869V2.69922L3.41454 4.21471L21.9562 14.9201Z" fill="#A4222A"/>
<path d="M21.9562 14.9201V17.9495L0.791016 5.72869V2.69922L3.41454 4.21471L21.9562 14.9201Z" fill="white" fill-opacity="0.25"/>
</svg>
