<svg width="28" height="16" viewBox="0 0 28 16" fill="none" xmlns="http://www.w3.org/2000/svg">
<path d="M25.0021 10.5525V15.0944C21.7504 14.4131 18.5749 13.6304 15.4755 12.7463L15.0637 12.6282C10.1755 11.2271 5.38151 9.51584 0.710938 7.50484V2.96289C2.21873 3.61592 3.75832 4.24171 5.32969 4.84023C9.55276 6.44378 13.8594 7.81795 18.2307 8.95675C20.449 9.54013 22.7061 10.0721 25.0021 10.5525Z" fill="#A26C40"/>
<path d="M27.2455 6.6543V11.1993L25.002 15.0993V10.5543L27.2455 6.6543Z" fill="#A26C40"/>
<path d="M27.2455 6.6543V11.1993L25.002 15.0993V10.5543L27.2455 6.6543Z" fill="black" fill-opacity="0.25"/>
<path d="M27.2455 6.6543V11.1993L25.002 15.0993V10.5543L27.2455 6.6543Z" stroke="#231F20" stroke-opacity="0.1"/>
<path d="M27.2477 6.65432L25.0041 10.5544C22.7091 10.0729 20.452 9.54099 18.2327 8.95861C13.8613 7.81981 9.55472 6.44563 5.33165 4.84208C3.76027 4.24355 2.22069 3.61776 0.712891 2.96472L5.78732 0.0351562C12.3665 2.81484 19.5921 5.04343 27.2477 6.65432Z" fill="#23B258"/>
<path d="M27.2477 6.65432L25.0041 10.5544C22.7091 10.0729 20.452 9.54099 18.2327 8.95861C13.8613 7.81981 9.55472 6.44563 5.33165 4.84208C3.76027 4.24355 2.22069 3.61776 0.712891 2.96472L5.78732 0.0351562C12.3665 2.81484 19.5921 5.04343 27.2477 6.65432Z" fill="white" fill-opacity="0.25"/>
<path d="M27.2477 6.65432L25.0041 10.5544C22.7091 10.0729 20.452 9.54099 18.2327 8.95861C13.8613 7.81981 9.55472 6.44563 5.33165 4.84208C3.76027 4.24355 2.22069 3.61776 0.712891 2.96472L5.78732 0.0351562C12.3665 2.81484 19.5921 5.04343 27.2477 6.65432Z" stroke="#231F20" stroke-opacity="0.1"/>
</svg>
