<svg width="22" height="18" viewBox="0 0 22 18" fill="none" xmlns="http://www.w3.org/2000/svg">
<path d="M21.8945 3.62935L17.9585 5.90183L5.96429 12.8268L4.66843 12.0789L0.732422 9.8064L16.6627 0.607422L21.8945 3.62935Z" fill="#23B258"/>
<path d="M21.8945 3.62935L17.9585 5.90183L5.96429 12.8268L4.66843 12.0789L0.732422 9.8064L16.6627 0.607422L21.8945 3.62935Z" fill="white" fill-opacity="0.25"/>
<path d="M21.8945 3.62935L17.9585 5.90183L5.96429 12.8268L4.66843 12.0789L0.732422 9.8064L16.6627 0.607422L21.8945 3.62935Z" stroke="#231F20" stroke-opacity="0.1"/>
<path d="M5.96427 12.8271V17.3721L0.732422 14.3517V9.80664L4.66841 12.0791L5.96427 12.8271Z" fill="#A26C40"/>
<path d="M21.8951 3.62891V8.17386L5.96484 17.3713V12.8263L17.9591 5.90138L21.8951 3.62891Z" fill="#A26C40"/>
<path d="M21.8951 3.62891V8.17386L5.96484 17.3713V12.8263L17.9591 5.90138L21.8951 3.62891Z" fill="black" fill-opacity="0.25"/>
<path d="M21.8951 3.62891V8.17386L5.96484 17.3713V12.8263L17.9591 5.90138L21.8951 3.62891Z" stroke="#231F20" stroke-opacity="0.1"/>
</svg>
