<svg width="16" height="18" viewBox="0 0 16 18" fill="none" xmlns="http://www.w3.org/2000/svg">
<path d="M15.5297 10.7404L12.3613 12.5708L10.97 13.3732C8.13589 11.1991 5.51975 8.75462 3.15856 6.07425C2.07748 4.84273 1.06664 3.55126 0.130859 2.20599L4.74507 1.17194L6.07726 0.869141C8.51002 4.37252 11.683 7.68816 15.5297 10.7404Z" fill="#23B258"/>
<path d="M15.5297 10.7404L12.3613 12.5708L10.97 13.3732C8.13589 11.1991 5.51975 8.75462 3.15856 6.07425C2.07748 4.84273 1.06664 3.55126 0.130859 2.20599L4.74507 1.17194L6.07726 0.869141C8.51002 4.37252 11.683 7.68816 15.5297 10.7404Z" fill="white" fill-opacity="0.25"/>
<path d="M15.5297 10.7404L12.3613 12.5708L10.97 13.3732C8.13589 11.1991 5.51975 8.75462 3.15856 6.07425C2.07748 4.84273 1.06664 3.55126 0.130859 2.20599L4.74507 1.17194L6.07726 0.869141C8.51002 4.37252 11.683 7.68816 15.5297 10.7404Z" stroke="#231F20" stroke-opacity="0.1"/>
<path d="M15.5304 10.7402V15.2852L10.9707 17.918V13.373L12.3619 12.5706L15.5304 10.7402Z" fill="#A26C40"/>
<path d="M15.5304 10.7402V15.2852L10.9707 17.918V13.373L12.3619 12.5706L15.5304 10.7402Z" fill="black" fill-opacity="0.25"/>
<path d="M15.5304 10.7402V15.2852L10.9707 17.918V13.373L12.3619 12.5706L15.5304 10.7402Z" stroke="#231F20" stroke-opacity="0.1"/>
<path d="M10.9703 13.3722V17.9142C6.5347 14.4774 2.89237 10.7243 0.138672 6.74702V2.20508C1.07445 3.55034 2.08529 4.8418 3.16637 6.07331C5.52518 8.75329 8.13876 11.1977 10.9703 13.3722V13.3722Z" fill="#A26C40"/>
</svg>
