<svg width="24" height="18" viewBox="0 0 24 18" fill="none" xmlns="http://www.w3.org/2000/svg">
<path d="M16.241 13.1923V17.7342C15.7574 17.7606 15.2758 17.656 14.8467 17.4314L1.51123 9.73132C1.05707 9.4694 0.890539 9.10605 1.01013 8.76995V4.65039C1.10903 4.88236 1.28643 5.07211 1.51123 5.18635L4.15288 6.71092L14.8467 12.8865C15.2757 13.1115 15.7572 13.2172 16.241 13.1923Z" fill="#A26C40"/>
<path d="M23.1569 9.14062V13.6826C23.1569 13.9505 22.9799 14.2185 22.6256 14.4229L17.4286 17.4327C17.0632 17.6293 16.6552 17.7333 16.2402 17.7355V13.1936C16.655 13.1904 17.0629 13.0865 17.4286 12.8908L19.9764 11.4192L22.6256 9.88854C22.9799 9.67658 23.1569 9.4086 23.1569 9.14062Z" fill="#A26C40"/>
<path d="M23.1569 9.14062V13.6826C23.1569 13.9505 22.9799 14.2185 22.6256 14.4229L17.4286 17.4327C17.0632 17.6293 16.6552 17.7333 16.2402 17.7355V13.1936C16.655 13.1904 17.0629 13.0865 17.4286 12.8908L19.9764 11.4192L22.6256 9.88854C22.9799 9.67658 23.1569 9.4086 23.1569 9.14062Z" fill="black" fill-opacity="0.25"/>
<path d="M23.1569 9.14062V13.6826C23.1569 13.9505 22.9799 14.2185 22.6256 14.4229L17.4286 17.4327C17.0632 17.6293 16.6552 17.7333 16.2402 17.7355V13.1936C16.655 13.1904 17.0629 13.0865 17.4286 12.8908L19.9764 11.4192L22.6256 9.88854C22.9799 9.67658 23.1569 9.4086 23.1569 9.14062Z" stroke="#231F20" stroke-opacity="0.1"/>
<path d="M23.1577 9.13952C23.1577 9.4075 22.9806 9.67548 22.6264 9.87986L19.9771 11.4105L17.4293 12.8821C17.0636 13.0778 16.6557 13.1817 16.2409 13.1849C15.7574 13.2107 15.2759 13.1061 14.8467 12.8821L4.15287 6.70655L1.51122 5.18195C1.28643 5.06771 1.10902 4.87798 1.01012 4.64602C0.960167 4.50809 0.960167 4.35699 1.01012 4.21906C1.1065 3.9898 1.28149 3.80244 1.50364 3.69068L6.7022 0.689963C7.41219 0.279672 8.56877 0.281186 9.28331 0.689963L22.6187 8.39011C22.9775 8.59752 23.1577 8.86852 23.1577 9.13952Z" fill="#23B258"/>
<path d="M23.1577 9.13952C23.1577 9.4075 22.9806 9.67548 22.6264 9.87986L19.9771 11.4105L17.4293 12.8821C17.0636 13.0778 16.6557 13.1817 16.2409 13.1849C15.7574 13.2107 15.2759 13.1061 14.8467 12.8821L4.15287 6.70655L1.51122 5.18195C1.28643 5.06771 1.10902 4.87798 1.01012 4.64602C0.960167 4.50809 0.960167 4.35699 1.01012 4.21906C1.1065 3.9898 1.28149 3.80244 1.50364 3.69068L6.7022 0.689963C7.41219 0.279672 8.56877 0.281186 9.28331 0.689963L22.6187 8.39011C22.9775 8.59752 23.1577 8.86852 23.1577 9.13952Z" fill="white" fill-opacity="0.25"/>
<path d="M23.1577 9.13952C23.1577 9.4075 22.9806 9.67548 22.6264 9.87986L19.9771 11.4105L17.4293 12.8821C17.0636 13.0778 16.6557 13.1817 16.2409 13.1849C15.7574 13.2107 15.2759 13.1061 14.8467 12.8821L4.15287 6.70655L1.51122 5.18195C1.28643 5.06771 1.10902 4.87798 1.01012 4.64602C0.960167 4.50809 0.960167 4.35699 1.01012 4.21906C1.1065 3.9898 1.28149 3.80244 1.50364 3.69068L6.7022 0.689963C7.41219 0.279672 8.56877 0.281186 9.28331 0.689963L22.6187 8.39011C22.9775 8.59752 23.1577 8.86852 23.1577 9.13952Z" stroke="#231F20" stroke-opacity="0.1"/>
</svg>
