<svg width="26" height="15" viewBox="0 0 26 15" fill="none" xmlns="http://www.w3.org/2000/svg">
<path d="M24.2203 10.1885V14.7304C15.6368 13.2785 7.53008 11.006 0.236328 8.00681V3.46484C1.78248 4.09971 3.36292 4.70176 4.9777 5.27102C6.6934 5.87662 8.44998 6.44487 10.2474 6.97578H10.255C14.8421 8.32326 19.5055 9.39606 24.2203 10.1885Z" fill="#A26C40"/>
<path d="M25.7663 6.29297V10.8379L24.2207 14.7334V10.1884L25.7663 6.29297Z" fill="#A26C40"/>
<path d="M25.7663 6.29297V10.8379L24.2207 14.7334V10.1884L25.7663 6.29297Z" fill="black" fill-opacity="0.25"/>
<path d="M25.7663 6.29297V10.8379L24.2207 14.7334V10.1884L25.7663 6.29297Z" stroke="#231F20" stroke-opacity="0.1"/>
<path d="M25.7659 6.29346L24.2203 10.1889C19.5055 9.39753 14.8422 8.32576 10.255 6.9793H10.2474C8.45602 6.4484 6.69944 5.88015 4.97769 5.27455C3.36291 4.70731 1.78248 4.10525 0.236328 3.46836L5.20628 0.591797C11.5069 3.10198 18.4449 5.02474 25.7659 6.29346Z" fill="#23B258"/>
<path d="M25.7659 6.29346L24.2203 10.1889C19.5055 9.39753 14.8422 8.32576 10.255 6.9793H10.2474C8.45602 6.4484 6.69944 5.88015 4.97769 5.27455C3.36291 4.70731 1.78248 4.10525 0.236328 3.46836L5.20628 0.591797C11.5069 3.10198 18.4449 5.02474 25.7659 6.29346Z" fill="white" fill-opacity="0.25"/>
<path d="M25.7659 6.29346L24.2203 10.1889C19.5055 9.39753 14.8422 8.32576 10.255 6.9793H10.2474C8.45602 6.4484 6.69944 5.88015 4.97769 5.27455C3.36291 4.70731 1.78248 4.10525 0.236328 3.46836L5.20628 0.591797C11.5069 3.10198 18.4449 5.02474 25.7659 6.29346Z" stroke="#231F20" stroke-opacity="0.1"/>
</svg>
