<svg width="18" height="22" viewBox="0 0 18 22" fill="none" xmlns="http://www.w3.org/2000/svg">
<path d="M9.92414 16.628V21.1699C8.41938 16.5477 5.30087 12.1451 0.757812 8.23141V3.68945C1.79585 4.58046 2.7848 5.52708 3.72039 6.52514C6.67694 9.68331 8.77362 13.0913 9.92414 16.628Z" fill="#A26C40"/>
<path d="M17.8318 15.8689L15.9728 16.0476L9.91742 16.6274C8.7669 13.0908 6.67022 9.68277 3.71065 6.52459C2.77507 5.52652 1.78608 4.5799 0.748047 3.68889L6.50066 0.367188C12.1776 5.00757 16.0394 10.2959 17.8318 15.8689Z" fill="#23B258"/>
<path d="M17.8318 15.8689L15.9728 16.0476L9.91742 16.6274C8.7669 13.0908 6.67022 9.68277 3.71065 6.52459C2.77507 5.52652 1.78608 4.5799 0.748047 3.68889L6.50066 0.367188C12.1776 5.00757 16.0394 10.2959 17.8318 15.8689Z" fill="white" fill-opacity="0.25"/>
<path d="M17.8318 15.8689L15.9728 16.0476L9.91742 16.6274C8.7669 13.0908 6.67022 9.68277 3.71065 6.52459C2.77507 5.52652 1.78608 4.5799 0.748047 3.68889L6.50066 0.367188C12.1776 5.00757 16.0394 10.2959 17.8318 15.8689Z" stroke="#231F20" stroke-opacity="0.1"/>
<path d="M17.8322 15.8711V20.4161L9.92383 21.1746V16.6296L15.9732 16.0498L17.8322 15.8711Z" fill="#A26C40"/>
<path d="M17.8322 15.8711V20.4161L9.92383 21.1746V16.6296L15.9732 16.0498L17.8322 15.8711Z" fill="black" fill-opacity="0.25"/>
<path d="M17.8322 15.8711V20.4161L9.92383 21.1746V16.6296L15.9732 16.0498L17.8322 15.8711Z" stroke="#231F20" stroke-opacity="0.1"/>
</svg>
