<svg width="9" height="18" viewBox="0 0 9 18" fill="none" xmlns="http://www.w3.org/2000/svg">
<path d="M2.75096 13.4377V17.9796C1.08566 14.0433 0.546711 8.0085 0.934272 3.9707C0.946383 4.09182 0.934272 4.55056 0.934272 5.06683C0.934272 5.10165 0.934272 5.13646 0.934272 5.17128C0.925188 5.87983 0.913077 6.66105 0.934272 6.82305C1.2414 9.09923 1.85241 11.3239 2.75096 13.4377Z" fill="#A26C40"/>
<path d="M8.6996 12.5948L7.34774 12.7902L4.92559 13.1353L2.75021 13.4381C1.85195 11.3254 1.24097 9.10172 0.933594 6.82658V5.17482C0.933594 5.14 0.933594 5.10519 0.933594 5.07036C0.933594 4.5541 0.944191 4.09536 0.933594 3.97424V0.525391L3.20436 0.648013L7.09343 0.852416C6.88826 2.35734 6.84108 3.87961 6.95265 5.39436C6.9693 5.61843 6.99048 5.84854 7.01319 6.06656C7.25571 8.31294 7.82379 10.5121 8.6996 12.5948Z" fill="#23B258"/>
<path d="M8.6996 12.5948L7.34774 12.7902L4.92559 13.1353L2.75021 13.4381C1.85195 11.3254 1.24097 9.10172 0.933594 6.82658V5.17482C0.933594 5.14 0.933594 5.10519 0.933594 5.07036C0.933594 4.5541 0.944191 4.09536 0.933594 3.97424V0.525391L3.20436 0.648013L7.09343 0.852416C6.88826 2.35734 6.84108 3.87961 6.95265 5.39436C6.9693 5.61843 6.99048 5.84854 7.01319 6.06656C7.25571 8.31294 7.82379 10.5121 8.6996 12.5948Z" fill="white" fill-opacity="0.25"/>
<path d="M8.6996 12.5948L7.34774 12.7902L4.92559 13.1353L2.75021 13.4381C1.85195 11.3254 1.24097 9.10172 0.933594 6.82658V5.17482C0.933594 5.14 0.933594 5.10519 0.933594 5.07036C0.933594 4.5541 0.944191 4.09536 0.933594 3.97424V0.525391L3.20436 0.648013L7.09343 0.852416C6.88826 2.35734 6.84108 3.87961 6.95265 5.39436C6.9693 5.61843 6.99048 5.84854 7.01319 6.06656C7.25571 8.31294 7.82379 10.5121 8.6996 12.5948Z" stroke="#231F20" stroke-opacity="0.1"/>
<path d="M8.69982 12.5957V17.1407L4.93036 17.6797H4.92733L2.75195 17.9809V13.4345L4.92733 13.1332H4.93036L7.34948 12.788L8.69982 12.5957Z" fill="#A26C40"/>
<path d="M8.69982 12.5957V17.1407L4.93036 17.6797H4.92733L2.75195 17.9809V13.4345L4.92733 13.1332H4.93036L7.34948 12.788L8.69982 12.5957Z" fill="black" fill-opacity="0.25"/>
<path d="M8.69982 12.5957V17.1407L4.93036 17.6797H4.92733L2.75195 17.9809V13.4345L4.92733 13.1332H4.93036L7.34948 12.788L8.69982 12.5957Z" stroke="#231F20" stroke-opacity="0.1"/>
</svg>
