<svg width="23" height="17" viewBox="0 0 23 17" fill="none" xmlns="http://www.w3.org/2000/svg">
<path d="M5.48607 12.26V16.802C4.97745 16.84 4.46834 16.7352 4.01614 16.4992L1.52135 15.0685C1.16258 14.8611 0.982422 14.5901 0.982422 14.3115V9.76953C0.982422 10.0405 1.16258 10.3115 1.52135 10.5265L4.0116 11.9648C4.06307 11.9931 4.11606 12.0203 4.17056 12.0466C4.58616 12.2203 5.03688 12.2934 5.48607 12.26Z" fill="#A26C40"/>
<path d="M22.051 2.59961V7.14157C22.051 7.41106 21.8754 7.67904 21.5211 7.88342L6.59751 16.4995C6.25543 16.6848 5.87511 16.7884 5.48633 16.8023V12.2603C5.87511 12.2465 6.25543 12.1428 6.59751 11.9575L18.8598 4.87513L21.5181 3.33995C21.8754 3.13708 22.051 2.8691 22.051 2.59961Z" fill="#A26C40"/>
<path d="M22.051 2.59961V7.14157C22.051 7.41106 21.8754 7.67904 21.5211 7.88342L6.59751 16.4995C6.25543 16.6848 5.87511 16.7884 5.48633 16.8023V12.2603C5.87511 12.2465 6.25543 12.1428 6.59751 11.9575L18.8598 4.87513L21.5181 3.33995C21.8754 3.13708 22.051 2.8691 22.051 2.59961Z" fill="black" fill-opacity="0.25"/>
<path d="M22.051 2.59961V7.14157C22.051 7.41106 21.8754 7.67904 21.5211 7.88342L6.59751 16.4995C6.25543 16.6848 5.87511 16.7884 5.48633 16.8023V12.2603C5.87511 12.2465 6.25543 12.1428 6.59751 11.9575L18.8598 4.87513L21.5181 3.33995C21.8754 3.13708 22.051 2.8691 22.051 2.59961Z" stroke="#231F20" stroke-opacity="0.1"/>
<path d="M22.0509 2.59965C22.0509 2.86913 21.8753 3.13711 21.5211 3.3415L18.8628 4.87668L6.60057 11.9591C6.25849 12.1444 5.87818 12.248 5.48939 12.2619C5.04087 12.2912 4.59176 12.2144 4.17841 12.0378C4.12391 12.0116 4.07092 11.9843 4.01945 11.9561L1.52917 10.5178C1.17039 10.3104 0.990234 10.0394 0.990234 9.76078C0.990234 9.48221 1.16736 9.22484 1.5216 9.02046L16.4436 0.402853C17.1551 -0.00743677 18.3117 -0.00592278 19.0262 0.402853L21.5165 1.84114C21.8723 2.05915 22.0509 2.33016 22.0509 2.59965Z" fill="#23B258"/>
<path d="M22.0509 2.59965C22.0509 2.86913 21.8753 3.13711 21.5211 3.3415L18.8628 4.87668L6.60057 11.9591C6.25849 12.1444 5.87818 12.248 5.48939 12.2619C5.04087 12.2912 4.59176 12.2144 4.17841 12.0378C4.12391 12.0116 4.07092 11.9843 4.01945 11.9561L1.52917 10.5178C1.17039 10.3104 0.990234 10.0394 0.990234 9.76078C0.990234 9.48221 1.16736 9.22484 1.5216 9.02046L16.4436 0.402853C17.1551 -0.00743677 18.3117 -0.00592278 19.0262 0.402853L21.5165 1.84114C21.8723 2.05915 22.0509 2.33016 22.0509 2.59965Z" fill="white" fill-opacity="0.25"/>
<path d="M22.0509 2.59965C22.0509 2.86913 21.8753 3.13711 21.5211 3.3415L18.8628 4.87668L6.60057 11.9591C6.25849 12.1444 5.87818 12.248 5.48939 12.2619C5.04087 12.2912 4.59176 12.2144 4.17841 12.0378C4.12391 12.0116 4.07092 11.9843 4.01945 11.9561L1.52917 10.5178C1.17039 10.3104 0.990234 10.0394 0.990234 9.76078C0.990234 9.48221 1.16736 9.22484 1.5216 9.02046L16.4436 0.402853C17.1551 -0.00743677 18.3117 -0.00592278 19.0262 0.402853L21.5165 1.84114C21.8723 2.05915 22.0509 2.33016 22.0509 2.59965Z" stroke="#231F20" stroke-opacity="0.1"/>
</svg>
