<svg width="48" height="32" viewBox="0 0 48 32" fill="none" xmlns="http://www.w3.org/2000/svg">
<path d="M47.3754 2.2793V6.82428L4.11719 31.8036V27.2586L47.3754 2.2793Z" fill="#A26C40"/>
<path d="M47.3754 2.2793V6.82428L4.11719 31.8036V27.2586L47.3754 2.2793Z" fill="black" fill-opacity="0.25"/>
<path d="M47.3754 2.2793V6.82428L4.11719 31.8036V27.2586L47.3754 2.2793Z" stroke="#231F20" stroke-opacity="0.1"/>
<path d="M4.11656 27.2598V31.8048L0.59375 29.7715V25.2266L4.11656 27.2598Z" fill="#A26C40"/>
<path d="M47.3748 2.27939L4.11649 27.2586L0.59375 25.2254L43.8521 0.246094L47.3748 2.27939Z" fill="#23B258"/>
<path d="M47.3748 2.27939L4.11649 27.2586L0.59375 25.2254L43.8521 0.246094L47.3748 2.27939Z" fill="white" fill-opacity="0.25"/>
<path d="M47.3748 2.27939L4.11649 27.2586L0.59375 25.2254L43.8521 0.246094L47.3748 2.27939Z" stroke="#231F20" stroke-opacity="0.1"/>
</svg>
