<svg width="29" height="14" viewBox="0 0 29 14" fill="none" xmlns="http://www.w3.org/2000/svg">
<path d="M28.764 4.95409L26.8701 9.29623H26.802V9.45822C19.4447 8.70122 12.3614 7.2387 5.83219 5.15393C4.16392 4.62202 2.53303 4.04923 0.939453 3.43556L6.72386 0.0957031C13.4484 2.53626 20.9404 4.18953 28.764 4.95409Z" fill="#23B258"/>
<path d="M28.764 4.95409L26.8701 9.29623H26.802V9.45822C19.4447 8.70122 12.3614 7.2387 5.83219 5.15393C4.16392 4.62202 2.53303 4.04923 0.939453 3.43556L6.72386 0.0957031C13.4484 2.53626 20.9404 4.18953 28.764 4.95409Z" fill="white" fill-opacity="0.25"/>
<path d="M28.764 4.95409L26.8701 9.29623H26.802V9.45822C19.4447 8.70122 12.3614 7.2387 5.83219 5.15393C4.16392 4.62202 2.53303 4.04923 0.939453 3.43556L6.72386 0.0957031C13.4484 2.53626 20.9404 4.18953 28.764 4.95409Z" stroke="#231F20" stroke-opacity="0.1"/>
<path d="M28.7647 4.95508V9.50006L26.8027 13.9966V9.45161L26.8709 9.29719L28.7647 4.95508Z" fill="#A26C40"/>
<path d="M28.7647 4.95508V9.50006L26.8027 13.9966V9.45161L26.8709 9.29719L28.7647 4.95508Z" fill="black" fill-opacity="0.25"/>
<path d="M28.7647 4.95508V9.50006L26.8027 13.9966V9.45161L26.8709 9.29719L28.7647 4.95508Z" stroke="#231F20" stroke-opacity="0.1"/>
<path d="M26.8099 9.45187V13.9938C17.5754 13.0355 8.76631 10.984 0.947266 7.96969V3.42773C2.53883 4.04039 4.16976 4.61318 5.84004 5.1461C12.3632 7.23238 19.4465 8.68882 26.8099 9.45187Z" fill="#A26C40"/>
</svg>
