<svg width="22" height="17" viewBox="0 0 22 17" fill="none" xmlns="http://www.w3.org/2000/svg">
<path d="M18.7774 11.6043V16.1493L0.914062 5.83601V1.29102L15.6014 9.77238L18.7774 11.6043Z" fill="#A26C40"/>
<path d="M21.475 6.91602L21.4735 11.461L18.7773 16.1468V11.6018L19.2149 10.8418L21.0633 7.63061L21.475 6.91602Z" fill="#A26C40"/>
<path d="M21.475 6.91602L21.4735 11.461L18.7773 16.1468V11.6018L19.2149 10.8418L21.0633 7.63061L21.475 6.91602Z" fill="black" fill-opacity="0.25"/>
<path d="M21.475 6.91602L21.4735 11.461L18.7773 16.1468V11.6018L19.2149 10.8418L21.0633 7.63061L21.475 6.91602Z" stroke="#231F20" stroke-opacity="0.1"/>
<path d="M21.4751 6.91621L21.0634 7.63081L19.215 10.842L18.7774 11.599L15.5984 9.76705L0.914062 1.28871L2.5369 0.351562C3.90239 0.957158 5.29312 1.53701 6.70907 2.09113C11.5323 3.98749 16.4628 5.59863 21.4751 6.91621Z" fill="#23B258"/>
<path d="M21.4751 6.91621L21.0634 7.63081L19.215 10.842L18.7774 11.599L15.5984 9.76705L0.914062 1.28871L2.5369 0.351562C3.90239 0.957158 5.29312 1.53701 6.70907 2.09113C11.5323 3.98749 16.4628 5.59863 21.4751 6.91621Z" fill="white" fill-opacity="0.25"/>
<path d="M21.4751 6.91621L21.0634 7.63081L19.215 10.842L18.7774 11.599L15.5984 9.76705L0.914062 1.28871L2.5369 0.351562C3.90239 0.957158 5.29312 1.53701 6.70907 2.09113C11.5323 3.98749 16.4628 5.59863 21.4751 6.91621Z" stroke="#231F20" stroke-opacity="0.1"/>
</svg>
