<svg width="14" height="26" viewBox="0 0 14 26" fill="none" xmlns="http://www.w3.org/2000/svg">
<path d="M13.1822 4.03943V8.5087C13.1818 8.51092 13.1809 8.51302 13.1796 8.51485C13.1783 8.51669 13.1766 8.5182 13.1746 8.51929C11.7425 9.71685 10.7161 11.0598 10.1469 12.4799C10.0985 12.5995 10.0545 12.7206 10.0137 12.8417C9.78594 12.188 9.65884 11.5034 9.63672 10.8115C9.63672 10.6797 9.63672 10.5465 9.63672 10.4148C9.64487 10.1236 9.67269 9.83324 9.71999 9.54577C9.79354 8.99274 9.93753 8.45139 10.1484 7.93489C10.2747 7.61965 10.4209 7.31272 10.5859 7.01592C11.2371 5.87322 12.0931 4.86015 13.1111 4.02732C13.1338 4.00915 13.1822 4.01823 13.1822 4.03943Z" fill="#A26C40"/>
<path d="M13.1822 4.03943V8.5087C13.1818 8.51092 13.1809 8.51302 13.1796 8.51485C13.1783 8.51669 13.1766 8.5182 13.1746 8.51929C11.7425 9.71685 10.7161 11.0598 10.1469 12.4799C10.0985 12.5995 10.0545 12.7206 10.0137 12.8417C9.78594 12.188 9.65884 11.5034 9.63672 10.8115C9.63672 10.6797 9.63672 10.5465 9.63672 10.4148C9.64487 10.1236 9.67269 9.83324 9.71999 9.54577C9.79354 8.99274 9.93753 8.45139 10.1484 7.93489C10.2747 7.61965 10.4209 7.31272 10.5859 7.01592C11.2371 5.87322 12.0931 4.86015 13.1111 4.02732C13.1338 4.00915 13.1822 4.01823 13.1822 4.03943Z" fill="black" fill-opacity="0.25"/>
<path d="M13.1822 4.03943V8.5087C13.1818 8.51092 13.1809 8.51302 13.1796 8.51485C13.1783 8.51669 13.1766 8.5182 13.1746 8.51929C11.7425 9.71685 10.7161 11.0598 10.1469 12.4799C10.0985 12.5995 10.0545 12.7206 10.0137 12.8417C9.78594 12.188 9.65884 11.5034 9.63672 10.8115C9.63672 10.6797 9.63672 10.5465 9.63672 10.4148C9.64487 10.1236 9.67269 9.83324 9.71999 9.54577C9.79354 8.99274 9.93753 8.45139 10.1484 7.93489C10.2747 7.61965 10.4209 7.31272 10.5859 7.01592C11.2371 5.87322 12.0931 4.86015 13.1111 4.02732C13.1338 4.00915 13.1822 4.01823 13.1822 4.03943Z" stroke="#231F20" stroke-opacity="0.1"/>
<path d="M6.40742 20.9005V25.3759C6.40742 25.3955 6.36197 25.4046 6.34078 25.388C4.67555 24.1359 3.33581 22.7552 2.34727 21.2866C1.88953 20.6391 1.50089 19.9454 1.18768 19.217C0.604265 17.9056 0.299578 16.4873 0.292969 15.052V10.5312C0.294857 11.2888 0.383748 12.0437 0.557892 12.781C0.709451 13.4293 0.920281 14.0623 1.18768 14.672C1.50089 15.4005 1.88953 16.0941 2.34727 16.7416C3.34792 18.2283 4.7119 19.6182 6.39984 20.8869C6.404 20.8903 6.40671 20.8952 6.40742 20.9005Z" fill="#A26C40"/>
<path d="M13.0625 17.0258C13.0731 17.0258 13.0625 17.0439 13.0625 17.0515L10.5162 18.5216L6.43184 20.8758C6.42332 20.8807 6.41366 20.8833 6.40382 20.8833C6.39399 20.8833 6.38432 20.8807 6.37581 20.8758C4.69695 19.6162 3.33904 18.2248 2.34141 16.7442C1.88368 16.0967 1.49503 15.403 1.18182 14.6745C0.914423 14.0648 0.703593 13.4319 0.552033 12.7836C0.377888 12.0463 0.288998 11.2914 0.287109 10.5338C0.290163 9.2167 0.547164 7.91256 1.04403 6.6928C1.99322 4.29767 3.84163 2.05545 6.45908 0.122091C6.46745 0.117585 6.47684 0.115234 6.48635 0.115234C6.49586 0.115234 6.50522 0.117585 6.51359 0.122091L13.1609 3.96308C13.1745 3.96308 13.176 3.98125 13.1609 3.98882C12.1238 4.83089 11.2513 5.85747 10.5873 7.0168C10.4223 7.3136 10.2762 7.62053 10.1499 7.93578C9.93897 8.45228 9.79499 8.99363 9.72143 9.54666C9.67413 9.83413 9.64631 10.1245 9.63816 10.4157C9.63816 10.5474 9.63816 10.6806 9.63816 10.8124C9.66029 11.5043 9.78739 12.1889 10.0151 12.8426C10.0741 13.0182 10.1423 13.1923 10.2165 13.3665C10.4264 13.8647 10.6904 14.3384 11.0037 14.779C11.5823 15.6199 12.2753 16.3761 13.0625 17.0258V17.0258Z" fill="#23B258"/>
<path d="M13.0625 17.0258C13.0731 17.0258 13.0625 17.0439 13.0625 17.0515L10.5162 18.5216L6.43184 20.8758C6.42332 20.8807 6.41366 20.8833 6.40382 20.8833C6.39399 20.8833 6.38432 20.8807 6.37581 20.8758C4.69695 19.6162 3.33904 18.2248 2.34141 16.7442C1.88368 16.0967 1.49503 15.403 1.18182 14.6745C0.914423 14.0648 0.703593 13.4319 0.552033 12.7836C0.377888 12.0463 0.288998 11.2914 0.287109 10.5338C0.290163 9.2167 0.547164 7.91256 1.04403 6.6928C1.99322 4.29767 3.84163 2.05545 6.45908 0.122091C6.46745 0.117585 6.47684 0.115234 6.48635 0.115234C6.49586 0.115234 6.50522 0.117585 6.51359 0.122091L13.1609 3.96308C13.1745 3.96308 13.176 3.98125 13.1609 3.98882C12.1238 4.83089 11.2513 5.85747 10.5873 7.0168C10.4223 7.3136 10.2762 7.62053 10.1499 7.93578C9.93897 8.45228 9.79499 8.99363 9.72143 9.54666C9.67413 9.83413 9.64631 10.1245 9.63816 10.4157C9.63816 10.5474 9.63816 10.6806 9.63816 10.8124C9.66029 11.5043 9.78739 12.1889 10.0151 12.8426C10.0741 13.0182 10.1423 13.1923 10.2165 13.3665C10.4264 13.8647 10.6904 14.3384 11.0037 14.779C11.5823 15.6199 12.2753 16.3761 13.0625 17.0258V17.0258Z" fill="white" fill-opacity="0.25"/>
<path d="M13.0625 17.0258C13.0731 17.0258 13.0625 17.0439 13.0625 17.0515L10.5162 18.5216L6.43184 20.8758C6.42332 20.8807 6.41366 20.8833 6.40382 20.8833C6.39399 20.8833 6.38432 20.8807 6.37581 20.8758C4.69695 19.6162 3.33904 18.2248 2.34141 16.7442C1.88368 16.0967 1.49503 15.403 1.18182 14.6745C0.914423 14.0648 0.703593 13.4319 0.552033 12.7836C0.377888 12.0463 0.288998 11.2914 0.287109 10.5338C0.290163 9.2167 0.547164 7.91256 1.04403 6.6928C1.99322 4.29767 3.84163 2.05545 6.45908 0.122091C6.46745 0.117585 6.47684 0.115234 6.48635 0.115234C6.49586 0.115234 6.50522 0.117585 6.51359 0.122091L13.1609 3.96308C13.1745 3.96308 13.176 3.98125 13.1609 3.98882C12.1238 4.83089 11.2513 5.85747 10.5873 7.0168C10.4223 7.3136 10.2762 7.62053 10.1499 7.93578C9.93897 8.45228 9.79499 8.99363 9.72143 9.54666C9.67413 9.83413 9.64631 10.1245 9.63816 10.4157C9.63816 10.5474 9.63816 10.6806 9.63816 10.8124C9.66029 11.5043 9.78739 12.1889 10.0151 12.8426C10.0741 13.0182 10.1423 13.1923 10.2165 13.3665C10.4264 13.8647 10.6904 14.3384 11.0037 14.779C11.5823 15.6199 12.2753 16.3761 13.0625 17.0258V17.0258Z" stroke="#231F20" stroke-opacity="0.1"/>
<path d="M13.0793 17.092V21.5749C13.0794 21.5782 13.0785 21.5815 13.0766 21.5842C13.0746 21.587 13.0719 21.589 13.0687 21.59L6.4683 25.4022C6.4456 25.4158 6.40625 25.4022 6.40625 25.3871V20.9027C6.40625 20.9027 6.40622 20.8921 6.41682 20.8875L10.5042 18.5227L13.0096 17.0768C13.0399 17.0632 13.0793 17.0723 13.0793 17.092Z" fill="#A26C40"/>
<path d="M13.0793 17.092V21.5749C13.0794 21.5782 13.0785 21.5815 13.0766 21.5842C13.0746 21.587 13.0719 21.589 13.0687 21.59L6.4683 25.4022C6.4456 25.4158 6.40625 25.4022 6.40625 25.3871V20.9027C6.40625 20.9027 6.40622 20.8921 6.41682 20.8875L10.5042 18.5227L13.0096 17.0768C13.0399 17.0632 13.0793 17.0723 13.0793 17.092Z" fill="black" fill-opacity="0.25"/>
<path d="M13.0793 17.092V21.5749C13.0794 21.5782 13.0785 21.5815 13.0766 21.5842C13.0746 21.587 13.0719 21.589 13.0687 21.59L6.4683 25.4022C6.4456 25.4158 6.40625 25.4022 6.40625 25.3871V20.9027C6.40625 20.9027 6.40622 20.8921 6.41682 20.8875L10.5042 18.5227L13.0096 17.0768C13.0399 17.0632 13.0793 17.0723 13.0793 17.092Z" stroke="#231F20" stroke-opacity="0.1"/>
</svg>
