<svg width="15" height="22" viewBox="0 0 15 22" fill="none" xmlns="http://www.w3.org/2000/svg">
<path d="M14.0481 16.8088V17.2887H13.4879L7.66415 17.266C7.66415 17.1146 7.66415 16.9768 7.66415 16.8315C7.60965 13.0707 6.22751 9.36298 3.62368 5.93078L3.54344 5.82632C2.72397 4.76267 1.82683 3.7612 0.859375 2.83014L5.50084 0.150391C10.9977 5.142 13.9557 10.9163 14.0481 16.8088Z" fill="#23B258"/>
<path d="M14.0481 16.8088V17.2887H13.4879L7.66415 17.266C7.66415 17.1146 7.66415 16.9768 7.66415 16.8315C7.60965 13.0707 6.22751 9.36298 3.62368 5.93078L3.54344 5.82632C2.72397 4.76267 1.82683 3.7612 0.859375 2.83014L5.50084 0.150391C10.9977 5.142 13.9557 10.9163 14.0481 16.8088Z" fill="white" fill-opacity="0.25"/>
<path d="M14.0481 16.8088V17.2887H13.4879L7.66415 17.266C7.66415 17.1146 7.66415 16.9768 7.66415 16.8315C7.60965 13.0707 6.22751 9.36298 3.62368 5.93078L3.54344 5.82632C2.72397 4.76267 1.82683 3.7612 0.859375 2.83014L5.50084 0.150391C10.9977 5.142 13.9557 10.9163 14.0481 16.8088Z" stroke="#231F20" stroke-opacity="0.1"/>
<path d="M14.0473 17.2894V21.8314L7.66797 21.8071C7.66797 21.7632 7.66797 21.7208 7.66797 21.6769C7.66797 21.5755 7.66797 21.4741 7.66797 21.3741V17.2637L13.4917 17.2864H14.0503L14.0473 17.2894Z" fill="#A26C40"/>
<path d="M14.0473 17.2894V21.8314L7.66797 21.8071C7.66797 21.7632 7.66797 21.7208 7.66797 21.6769C7.66797 21.5755 7.66797 21.4741 7.66797 21.3741V17.2637L13.4917 17.2864H14.0503L14.0473 17.2894Z" fill="black" fill-opacity="0.25"/>
<path d="M14.0473 17.2894V21.8314L7.66797 21.8071C7.66797 21.7632 7.66797 21.7208 7.66797 21.6769C7.66797 21.5755 7.66797 21.4741 7.66797 21.3741V17.2637L13.4917 17.2864H14.0503L14.0473 17.2894Z" stroke="#231F20" stroke-opacity="0.1"/>
<path d="M7.66612 16.829V21.3709C7.59497 16.4838 5.2833 11.6815 0.958199 7.4635L0.861328 7.36812V2.82617C1.82879 3.75723 2.72593 4.7587 3.5454 5.82235L3.62564 5.92682C6.22948 9.36054 7.61163 13.0683 7.66612 16.829Z" fill="#A26C40"/>
</svg>
