<svg width="22" height="15" viewBox="0 0 22 15" fill="none" xmlns="http://www.w3.org/2000/svg">
<path d="M21.8057 6.26539L17.193 8.92698L15.8457 9.70517L11.4676 7.17833L0.929688 1.0921L1.44135 0.796875C8.88649 1.64622 15.8729 3.52356 21.8057 6.26539Z" fill="#23B258"/>
<path d="M21.8057 6.26539L17.193 8.92698L15.8457 9.70517L11.4676 7.17833L0.929688 1.0921L1.44135 0.796875C8.88649 1.64622 15.8729 3.52356 21.8057 6.26539Z" fill="white" fill-opacity="0.25"/>
<path d="M21.8057 6.26539L17.193 8.92698L15.8457 9.70517L11.4676 7.17833L0.929688 1.0921L1.44135 0.796875C8.88649 1.64622 15.8729 3.52356 21.8057 6.26539Z" stroke="#231F20" stroke-opacity="0.1"/>
<path d="M21.8046 6.26562V10.8106L15.8477 14.2504V9.70691L17.195 8.92721L21.8046 6.26562Z" fill="#A26C40"/>
<path d="M21.8046 6.26562V10.8106L15.8477 14.2504V9.70691L17.195 8.92721L21.8046 6.26562Z" fill="black" fill-opacity="0.25"/>
<path d="M21.8046 6.26562V10.8106L15.8477 14.2504V9.70691L17.195 8.92721L21.8046 6.26562Z" stroke="#231F20" stroke-opacity="0.1"/>
<path d="M15.8476 9.70833V14.2518L0.931641 5.64024V1.09375L11.4695 7.17997L15.8476 9.70833Z" fill="#A26C40"/>
</svg>
