<svg width="9" height="23" viewBox="0 0 9 23" fill="none" xmlns="http://www.w3.org/2000/svg">
<path d="M8.97244 17.5508V22.0958L8.19585 22.2139L3.73753 22.8467H3.73302L2.96094 22.9603V18.4153L3.73302 18.3017H3.73753L7.45556 17.7733L8.19585 17.6689L8.97244 17.5508Z" fill="#A26C40"/>
<path d="M8.97244 17.5508V22.0958L8.19585 22.2139L3.73753 22.8467H3.73302L2.96094 22.9603V18.4153L3.73302 18.3017H3.73753L7.45556 17.7733L8.19585 17.6689L8.97244 17.5508Z" fill="black" fill-opacity="0.25"/>
<path d="M8.97244 17.5508V22.0958L8.19585 22.2139L3.73753 22.8467H3.73302L2.96094 22.9603V18.4153L3.73302 18.3017H3.73753L7.45556 17.7733L8.19585 17.6689L8.97244 17.5508Z" stroke="#231F20" stroke-opacity="0.1"/>
<path d="M2.95993 18.4164V22.9584C0.725483 17.7018 -0.219172 12.2969 0.150209 6.91016C0.436101 10.8758 1.38589 14.7654 2.95993 18.4164Z" fill="#A26C40"/>
<path d="M8.97128 17.5514L8.1947 17.6695L7.45441 17.774L3.73642 18.3024L2.96438 18.4159C1.39036 14.7648 0.440578 10.8753 0.154689 6.90961C9.83412e-05 4.62641 0.0797484 2.33338 0.392372 0.0664062L1.16289 0.105771L5.74983 0.348005L6.54005 0.388886C6.33723 1.89006 6.24416 3.40403 6.26152 4.91874C6.26758 5.56975 6.29433 6.22025 6.34176 6.87025C6.62306 10.5513 7.51155 14.1605 8.97128 17.5514V17.5514Z" fill="#23B258"/>
<path d="M8.97128 17.5514L8.1947 17.6695L7.45441 17.774L3.73642 18.3024L2.96438 18.4159C1.39036 14.7648 0.440578 10.8753 0.154689 6.90961C9.83412e-05 4.62641 0.0797484 2.33338 0.392372 0.0664062L1.16289 0.105771L5.74983 0.348005L6.54005 0.388886C6.33723 1.89006 6.24416 3.40403 6.26152 4.91874C6.26758 5.56975 6.29433 6.22025 6.34176 6.87025C6.62306 10.5513 7.51155 14.1605 8.97128 17.5514V17.5514Z" fill="white" fill-opacity="0.25"/>
<path d="M8.97128 17.5514L8.1947 17.6695L7.45441 17.774L3.73642 18.3024L2.96438 18.4159C1.39036 14.7648 0.440578 10.8753 0.154689 6.90961C9.83412e-05 4.62641 0.0797484 2.33338 0.392372 0.0664062L1.16289 0.105771L5.74983 0.348005L6.54005 0.388886C6.33723 1.89006 6.24416 3.40403 6.26152 4.91874C6.26758 5.56975 6.29433 6.22025 6.34176 6.87025C6.62306 10.5513 7.51155 14.1605 8.97128 17.5514V17.5514Z" stroke="#231F20" stroke-opacity="0.1"/>
</svg>
