<svg width="29" height="13" viewBox="0 0 29 13" fill="none" xmlns="http://www.w3.org/2000/svg">
<path d="M28.2709 8.03583V12.5778C18.3521 12.6156 8.59081 11.0835 0.0390625 8.14938V3.60742C8.58779 6.54153 18.3521 8.07368 28.2709 8.03583Z" fill="#A26C40"/>
<path d="M28.2709 8.03628C18.3521 8.07413 8.59081 6.54198 0.0390625 3.60787L4.70022 0.916016C11.9258 3.20365 20.034 4.38759 28.2512 4.35882L28.2709 8.03628Z" fill="#23B258"/>
<path d="M28.2709 8.03628C18.3521 8.07413 8.59081 6.54198 0.0390625 3.60787L4.70022 0.916016C11.9258 3.20365 20.034 4.38759 28.2512 4.35882L28.2709 8.03628Z" fill="white" fill-opacity="0.25"/>
<path d="M28.2709 8.03628C18.3521 8.07413 8.59081 6.54198 0.0390625 3.60787L4.70022 0.916016C11.9258 3.20365 20.034 4.38759 28.2512 4.35882L28.2709 8.03628Z" stroke="#231F20" stroke-opacity="0.1"/>
</svg>
