<svg width="19" height="16" viewBox="0 0 19 16" fill="none" xmlns="http://www.w3.org/2000/svg">
<path d="M18.5552 5.8917C18.4762 6.63353 18.1695 7.3327 17.6772 7.89319C17.1798 8.47302 16.5831 8.95956 15.9151 9.32996C12.3621 11.3814 6.58369 11.3708 3.00797 9.30727C2.32413 8.92805 1.71355 8.42967 1.20499 7.83566C0.698374 7.25532 0.389293 6.52897 0.322401 5.7615C0.311804 5.62696 0.311804 5.49179 0.322401 5.35726V5.34515C0.411718 4.07491 1.29126 2.82132 2.9671 1.85388C6.5201 -0.197576 12.2985 -0.186972 15.8742 1.87811C17.5515 2.84555 18.4477 4.09459 18.5552 5.36029C18.5717 5.53704 18.5717 5.71494 18.5552 5.8917Z" fill="#23B258"/>
<path d="M18.5552 5.8917C18.4762 6.63353 18.1695 7.3327 17.6772 7.89319C17.1798 8.47302 16.5831 8.95956 15.9151 9.32996C12.3621 11.3814 6.58369 11.3708 3.00797 9.30727C2.32413 8.92805 1.71355 8.42967 1.20499 7.83566C0.698374 7.25532 0.389293 6.52897 0.322401 5.7615C0.311804 5.62696 0.311804 5.49179 0.322401 5.35726V5.34515C0.411718 4.07491 1.29126 2.82132 2.9671 1.85388C6.5201 -0.197576 12.2985 -0.186972 15.8742 1.87811C17.5515 2.84555 18.4477 4.09459 18.5552 5.36029C18.5717 5.53704 18.5717 5.71494 18.5552 5.8917Z" fill="white" fill-opacity="0.25"/>
<path d="M18.5552 5.8917C18.4762 6.63353 18.1695 7.3327 17.6772 7.89319C17.1798 8.47302 16.5831 8.95956 15.9151 9.32996C12.3621 11.3814 6.58369 11.3708 3.00797 9.30727C2.32413 8.92805 1.71355 8.42967 1.20499 7.83566C0.698374 7.25532 0.389293 6.52897 0.322401 5.7615C0.311804 5.62696 0.311804 5.49179 0.322401 5.35726V5.34515C0.411718 4.07491 1.29126 2.82132 2.9671 1.85388C6.5201 -0.197576 12.2985 -0.186972 15.8742 1.87811C17.5515 2.84555 18.4477 4.09459 18.5552 5.36029C18.5717 5.53704 18.5717 5.71494 18.5552 5.8917Z" stroke="#231F20" stroke-opacity="0.1"/>
<path d="M18.5566 5.89387V10.4359C18.4476 11.6879 17.5696 12.9203 15.9165 13.8741C12.3619 15.9256 6.58355 15.915 3.00784 13.8514C1.30173 12.8658 0.407041 11.5925 0.322266 10.3057V5.76367C0.389158 6.53115 0.698239 7.2575 1.20485 7.83784C1.71341 8.43185 2.32399 8.93023 3.00784 9.30945C6.58355 11.373 12.3619 11.3836 15.9149 9.33215C16.583 8.96174 17.1797 8.4752 17.677 7.89537C18.1699 7.33507 18.4772 6.63588 18.5566 5.89387Z" fill="#A26C40"/>
</svg>
