<svg width="36" height="25" viewBox="0 0 36 25" fill="none" xmlns="http://www.w3.org/2000/svg">
<path d="M35.3294 16.332V20.874C35.3294 21.142 35.1523 21.4099 34.7996 21.6143L29.601 24.6166C29.2442 24.8087 28.8466 24.9125 28.4414 24.9194V20.3774C28.8466 20.3705 29.2442 20.2667 29.601 20.0746L32.1504 18.603L34.7996 17.0724C35.1523 16.8665 35.3294 16.6 35.3294 16.332Z" fill="#A26C40"/>
<path d="M35.3294 16.332V20.874C35.3294 21.142 35.1523 21.4099 34.7996 21.6143L29.601 24.6166C29.2442 24.8087 28.8466 24.9125 28.4414 24.9194V20.3774C28.8466 20.3705 29.2442 20.2667 29.601 20.0746L32.1504 18.603L34.7996 17.0724C35.1523 16.8665 35.3294 16.6 35.3294 16.332Z" fill="black" fill-opacity="0.25"/>
<path d="M35.3294 16.332V20.874C35.3294 21.142 35.1523 21.4099 34.7996 21.6143L29.601 24.6166C29.2442 24.8087 28.8466 24.9125 28.4414 24.9194V20.3774C28.8466 20.3705 29.2442 20.2667 29.601 20.0746L32.1504 18.603L34.7996 17.0724C35.1523 16.8665 35.3294 16.6 35.3294 16.332Z" stroke="#231F20" stroke-opacity="0.1"/>
<path d="M28.4391 20.3773V24.9193C27.9465 24.9504 27.4547 24.8456 27.0176 24.6165L0.759714 9.44784C0.343404 9.20712 0.167838 8.88009 0.234447 8.56821V4.28516C0.272965 4.42035 0.339711 4.54582 0.430258 4.65334C0.520805 4.76086 0.633053 4.84797 0.759714 4.90892L3.39987 6.43349L27.016 20.07C27.4532 20.301 27.9455 20.4073 28.4391 20.3773Z" fill="#A26C40"/>
<path d="M35.3269 16.3305C35.3269 16.5984 35.1498 16.8664 34.797 17.0708L32.1478 18.6014L29.5984 20.073C29.2416 20.2651 28.8441 20.3689 28.4389 20.3758C27.9463 20.4069 27.4545 20.3022 27.0174 20.073L3.40133 6.43657L0.759633 4.90442C0.632973 4.84347 0.520725 4.75637 0.430179 4.64886C0.339632 4.54134 0.272886 4.41584 0.234369 4.28065C0.216148 4.19634 0.216148 4.1091 0.234369 4.02478C0.273255 3.89333 0.33926 3.77152 0.428183 3.66721C0.517105 3.56289 0.626915 3.47839 0.750541 3.41919L5.94915 0.418478C6.66065 0.00818817 7.81572 0.00970216 8.52269 0.418478L34.7803 15.5795C35.1467 15.7885 35.3269 16.0595 35.3269 16.3305Z" fill="#23B258"/>
<path d="M35.3269 16.3305C35.3269 16.5984 35.1498 16.8664 34.797 17.0708L32.1478 18.6014L29.5984 20.073C29.2416 20.2651 28.8441 20.3689 28.4389 20.3758C27.9463 20.4069 27.4545 20.3022 27.0174 20.073L3.40133 6.43657L0.759633 4.90442C0.632973 4.84347 0.520725 4.75637 0.430179 4.64886C0.339632 4.54134 0.272886 4.41584 0.234369 4.28065C0.216148 4.19634 0.216148 4.1091 0.234369 4.02478C0.273255 3.89333 0.33926 3.77152 0.428183 3.66721C0.517105 3.56289 0.626915 3.47839 0.750541 3.41919L5.94915 0.418478C6.66065 0.00818817 7.81572 0.00970216 8.52269 0.418478L34.7803 15.5795C35.1467 15.7885 35.3269 16.0595 35.3269 16.3305Z" fill="white" fill-opacity="0.25"/>
<path d="M35.3269 16.3305C35.3269 16.5984 35.1498 16.8664 34.797 17.0708L32.1478 18.6014L29.5984 20.073C29.2416 20.2651 28.8441 20.3689 28.4389 20.3758C27.9463 20.4069 27.4545 20.3022 27.0174 20.073L3.40133 6.43657L0.759633 4.90442C0.632973 4.84347 0.520725 4.75637 0.430179 4.64886C0.339632 4.54134 0.272886 4.41584 0.234369 4.28065C0.216148 4.19634 0.216148 4.1091 0.234369 4.02478C0.273255 3.89333 0.33926 3.77152 0.428183 3.66721C0.517105 3.56289 0.626915 3.47839 0.750541 3.41919L5.94915 0.418478C6.66065 0.00818817 7.81572 0.00970216 8.52269 0.418478L34.7803 15.5795C35.1467 15.7885 35.3269 16.0595 35.3269 16.3305Z" stroke="#231F20" stroke-opacity="0.1"/>
</svg>
