<svg width="37" height="13" viewBox="0 0 37 13" fill="none" xmlns="http://www.w3.org/2000/svg">
<path d="M6.98004 8.04254V12.5451C6.98004 12.5588 6.95279 12.5648 6.93614 12.5557L0.275155 8.71171C0.273015 8.71085 0.271174 8.70939 0.269833 8.70752C0.268492 8.70564 0.267699 8.70342 0.267578 8.70112V4.19852C0.267578 4.18489 0.294834 4.17883 0.311486 4.18791L5.09227 6.94942L6.96792 8.03193C6.96792 8.03193 6.98004 8.038 6.98004 8.04254Z" fill="#A26C40"/>
<path d="M6.98004 8.04254V12.5451C6.98004 12.5588 6.95279 12.5648 6.93614 12.5557L0.275155 8.71171C0.273015 8.71085 0.271174 8.70939 0.269833 8.70752C0.268492 8.70564 0.267699 8.70342 0.267578 8.70112V4.19852C0.267578 4.18489 0.294834 4.17883 0.311486 4.18791L5.09227 6.94942L6.96792 8.03193C6.96792 8.03193 6.98004 8.038 6.98004 8.04254Z" fill="white" fill-opacity="0.25"/>
<path d="M6.98004 8.04254V12.5451C6.98004 12.5588 6.95279 12.5648 6.93614 12.5557L0.275155 8.71171C0.273015 8.71085 0.271174 8.70939 0.269833 8.70752C0.268492 8.70564 0.267699 8.70342 0.267578 8.70112V4.19852C0.267578 4.18489 0.294834 4.17883 0.311486 4.18791L5.09227 6.94942L6.96792 8.03193C6.96792 8.03193 6.98004 8.038 6.98004 8.04254Z" stroke="#231F20" stroke-opacity="0.1"/>
<path d="M36.278 4.15335V8.65745C36.278 8.65745 36.2779 8.65745 36.2704 8.66804L29.6396 12.4969C29.623 12.506 29.5957 12.4969 29.5957 12.4863V7.98374C29.5957 7.98374 29.5957 7.98373 29.6033 7.97313L31.4199 6.91334L36.2295 4.13821C36.2507 4.13367 36.278 4.13972 36.278 4.15335Z" fill="#A26C40"/>
<path d="M36.278 4.15335V8.65745C36.278 8.65745 36.2779 8.65745 36.2704 8.66804L29.6396 12.4969C29.623 12.506 29.5957 12.4969 29.5957 12.4863V7.98374C29.5957 7.98374 29.5957 7.98373 29.6033 7.97313L31.4199 6.91334L36.2295 4.13821C36.2507 4.13367 36.278 4.13972 36.278 4.15335Z" fill="black" fill-opacity="0.25"/>
<path d="M36.278 4.15335V8.65745C36.278 8.65745 36.2779 8.65745 36.2704 8.66804L29.6396 12.4969C29.623 12.506 29.5957 12.4969 29.5957 12.4863V7.98374C29.5957 7.98374 29.5957 7.98373 29.6033 7.97313L31.4199 6.91334L36.2295 4.13821C36.2507 4.13367 36.278 4.13972 36.278 4.15335Z" stroke="#231F20" stroke-opacity="0.1"/>
<path d="M29.5954 7.98317V12.4933C29.5954 12.5039 29.5726 12.5115 29.556 12.5054C26.2104 11.2095 22.2729 10.5236 18.2536 10.5373C14.2344 10.5509 10.3196 11.2549 7.01788 12.566C7.00122 12.566 6.97852 12.566 6.97852 12.5539V8.04523C6.97852 8.04523 6.97853 8.03615 6.98912 8.03313C10.2984 6.71444 14.2223 6.00136 18.2536 5.99228C22.285 5.98319 26.2316 6.67205 29.5848 7.97408C29.5872 7.9745 29.5895 7.97557 29.5913 7.97717C29.5932 7.97876 29.5946 7.98084 29.5954 7.98317Z" fill="#A26C40"/>
<path d="M36.2553 4.11555C36.2674 4.11555 36.269 4.13069 36.2553 4.13675L31.4231 6.92551L29.6065 7.97468C29.6015 7.97689 29.5961 7.97803 29.5906 7.97803C29.5852 7.97803 29.5797 7.97689 29.5747 7.97468C26.2231 6.67569 22.278 5.98532 18.2496 5.99592C14.2213 6.00652 10.2989 6.71657 6.99115 8.03373C6.98614 8.03594 6.98069 8.03708 6.97522 8.03708C6.96975 8.03708 6.96434 8.03594 6.95933 8.03373L5.09126 6.95578L0.287822 4.18216C0.275711 4.17459 0.277225 4.16552 0.287822 4.15946C5.4122 1.85973 11.7189 0.610696 18.2239 0.601612C24.7289 0.592529 31.0734 1.82187 36.2553 4.11555Z" fill="#23B258"/>
<path d="M36.2553 4.11555C36.2674 4.11555 36.269 4.13069 36.2553 4.13675L31.4231 6.92551L29.6065 7.97468C29.6015 7.97689 29.5961 7.97803 29.5906 7.97803C29.5852 7.97803 29.5797 7.97689 29.5747 7.97468C26.2231 6.67569 22.278 5.98532 18.2496 5.99592C14.2213 6.00652 10.2989 6.71657 6.99115 8.03373C6.98614 8.03594 6.98069 8.03708 6.97522 8.03708C6.96975 8.03708 6.96434 8.03594 6.95933 8.03373L5.09126 6.95578L0.287822 4.18216C0.275711 4.17459 0.277225 4.16552 0.287822 4.15946C5.4122 1.85973 11.7189 0.610696 18.2239 0.601612C24.7289 0.592529 31.0734 1.82187 36.2553 4.11555Z" fill="white" fill-opacity="0.25"/>
<path d="M36.2553 4.11555C36.2674 4.11555 36.269 4.13069 36.2553 4.13675L31.4231 6.92551L29.6065 7.97468C29.6015 7.97689 29.5961 7.97803 29.5906 7.97803C29.5852 7.97803 29.5797 7.97689 29.5747 7.97468C26.2231 6.67569 22.278 5.98532 18.2496 5.99592C14.2213 6.00652 10.2989 6.71657 6.99115 8.03373C6.98614 8.03594 6.98069 8.03708 6.97522 8.03708C6.96975 8.03708 6.96434 8.03594 6.95933 8.03373L5.09126 6.95578L0.287822 4.18216C0.275711 4.17459 0.277225 4.16552 0.287822 4.15946C5.4122 1.85973 11.7189 0.610696 18.2239 0.601612C24.7289 0.592529 31.0734 1.82187 36.2553 4.11555Z" stroke="#231F20" stroke-opacity="0.1"/>
</svg>
