<svg width="19" height="22" viewBox="0 0 19 22" fill="none" xmlns="http://www.w3.org/2000/svg">
<path d="M6.66215 16.9335V21.4785L2.82764 20.9804H2.82157L0.625 20.6837V16.1387L2.80339 16.4324L2.82157 16.4354H2.82764L6.66215 16.9335Z" fill="#A26C40"/>
<path d="M18.0727 3.04829C16.9252 3.91428 15.8479 4.80753 14.8407 5.72803C11.0712 9.16478 8.30388 12.9497 6.6659 16.9315L2.83136 16.4334H2.81317L0.634766 16.1397C2.97668 10.4411 7.42434 5.10882 13.6735 0.507812L18.0727 3.04829Z" fill="#23B258"/>
<path d="M18.0727 3.04829C16.9252 3.91428 15.8479 4.80753 14.8407 5.72803C11.0712 9.16478 8.30388 12.9497 6.6659 16.9315L2.83136 16.4334H2.81317L0.634766 16.1397C2.97668 10.4411 7.42434 5.10882 13.6735 0.507812L18.0727 3.04829Z" fill="white" fill-opacity="0.25"/>
<path d="M18.0727 3.04829C16.9252 3.91428 15.8479 4.80753 14.8407 5.72803C11.0712 9.16478 8.30388 12.9497 6.6659 16.9315L2.83136 16.4334H2.81317L0.634766 16.1397C2.97668 10.4411 7.42434 5.10882 13.6735 0.507812L18.0727 3.04829Z" stroke="#231F20" stroke-opacity="0.1"/>
<path d="M18.072 3.04883V7.59077C12.6221 11.7012 8.74365 16.4294 6.66211 21.471V16.929C8.30463 12.9503 11.0719 9.16532 14.8369 5.72555C15.8461 4.81111 16.9245 3.91886 18.072 3.04883Z" fill="#A26C40"/>
<path d="M18.072 3.04883V7.59077C12.6221 11.7012 8.74365 16.4294 6.66211 21.471V16.929C8.30463 12.9503 11.0719 9.16532 14.8369 5.72555C15.8461 4.81111 16.9245 3.91886 18.072 3.04883Z" fill="black" fill-opacity="0.25"/>
<path d="M18.072 3.04883V7.59077C12.6221 11.7012 8.74365 16.4294 6.66211 21.471V16.929C8.30463 12.9503 11.0719 9.16532 14.8369 5.72555C15.8461 4.81111 16.9245 3.91886 18.072 3.04883Z" stroke="#231F20" stroke-opacity="0.1"/>
</svg>
