<svg width="10" height="12" viewBox="0 0 10 12" fill="none" xmlns="http://www.w3.org/2000/svg">
<path d="M9.82971 6.89446V11.4379L9.7283 11.3804L0.896484 6.28129V1.73633L9.7283 6.83541L9.82971 6.89446Z" fill="#A26C40"/>
<path d="M9.82971 6.89342L9.7283 6.83437L0.896484 1.73526L4.26329 0.987337L4.93543 0.835938C6.40968 2.97721 8.04591 5.0023 9.82971 6.89342Z" fill="#23B258"/>
<path d="M9.82971 6.89342L9.7283 6.83437L0.896484 1.73526L4.26329 0.987337L4.93543 0.835938C6.40968 2.97721 8.04591 5.0023 9.82971 6.89342Z" fill="white" fill-opacity="0.25"/>
<path d="M9.82971 6.89342L9.7283 6.83437L0.896484 1.73526L4.26329 0.987337L4.93543 0.835938C6.40968 2.97721 8.04591 5.0023 9.82971 6.89342Z" stroke="#231F20" stroke-opacity="0.1"/>
</svg>
