<svg width="18" height="18" viewBox="0 0 18 18" fill="none" xmlns="http://www.w3.org/2000/svg">
<path d="M17.616 12.618L16.5048 13.2615L14.8184 12.2865L4.10789 6.10182L0.171875 3.83083L6.35745 0.257812C11.9057 3.74756 15.7857 8.00792 17.616 12.618Z" fill="#23B258"/>
<path d="M17.616 12.618L16.5048 13.2615L14.8184 12.2865L4.10789 6.10182L0.171875 3.83083L6.35745 0.257812C11.9057 3.74756 15.7857 8.00792 17.616 12.618Z" fill="white" fill-opacity="0.25"/>
<path d="M17.616 12.618L16.5048 13.2615L14.8184 12.2865L4.10789 6.10182L0.171875 3.83083L6.35745 0.257812C11.9057 3.74756 15.7857 8.00792 17.616 12.618Z" stroke="#231F20" stroke-opacity="0.1"/>
<path d="M17.6169 12.6172V17.1622L16.5059 17.8056V13.2591L17.6169 12.6172Z" fill="#A26C40"/>
<path d="M17.6169 12.6172V17.1622L16.5059 17.8056V13.2591L17.6169 12.6172Z" fill="black" fill-opacity="0.25"/>
<path d="M17.6169 12.6172V17.1622L16.5059 17.8056V13.2591L17.6169 12.6172Z" stroke="#231F20" stroke-opacity="0.1"/>
<path d="M16.5053 13.2592V17.8057L0.173828 8.37505V3.83008L4.10834 6.10106L14.8189 12.2872L16.5053 13.2592Z" fill="#A26C40"/>
</svg>
