<svg width="22" height="26" viewBox="0 0 22 26" fill="none" xmlns="http://www.w3.org/2000/svg">
<path d="M6.49903 21.0017V25.5466L5.06694 25.3498L0.269531 24.6958V20.1523L2.36774 20.437L5.06694 20.8049L6.49903 21.0017Z" fill="#A26C40"/>
<path d="M21.7662 3.03316C20.5854 3.87696 19.4611 4.74296 18.3933 5.63117C12.8118 10.27 8.77435 15.4811 6.49904 21.0027L5.06694 20.8058L2.36774 20.4379L0.269531 20.1533C3.23667 12.8998 9.01806 6.14289 17.1838 0.386719L21.7662 3.03316Z" fill="#23B258"/>
<path d="M21.7662 3.03316C20.5854 3.87696 19.4611 4.74296 18.3933 5.63117C12.8118 10.27 8.77435 15.4811 6.49904 21.0027L5.06694 20.8058L2.36774 20.4379L0.269531 20.1533C3.23667 12.8998 9.01806 6.14289 17.1838 0.386719L21.7662 3.03316Z" fill="white" fill-opacity="0.25"/>
<path d="M21.7662 3.03316C20.5854 3.87696 19.4611 4.74296 18.3933 5.63117C12.8118 10.27 8.77435 15.4811 6.49904 21.0027L5.06694 20.8058L2.36774 20.4379L0.269531 20.1533C3.23667 12.8998 9.01806 6.14289 17.1838 0.386719L21.7662 3.03316Z" stroke="#231F20" stroke-opacity="0.1"/>
<path d="M21.7656 3.0332V7.57516C14.4235 12.8272 9.20979 18.9664 6.5 25.5447V21.0027C8.77078 15.4812 12.8127 10.2701 18.3943 5.63121C19.46 4.74401 20.5838 3.87801 21.7656 3.0332Z" fill="#A26C40"/>
<path d="M21.7656 3.0332V7.57516C14.4235 12.8272 9.20979 18.9664 6.5 25.5447V21.0027C8.77078 15.4812 12.8127 10.2701 18.3943 5.63121C19.46 4.74401 20.5838 3.87801 21.7656 3.0332Z" fill="black" fill-opacity="0.25"/>
<path d="M21.7656 3.0332V7.57516C14.4235 12.8272 9.20979 18.9664 6.5 25.5447V21.0027C8.77078 15.4812 12.8127 10.2701 18.3943 5.63121C19.46 4.74401 20.5838 3.87801 21.7656 3.0332Z" stroke="#231F20" stroke-opacity="0.1"/>
</svg>
