<svg width="34" height="17" viewBox="0 0 34 17" fill="none" xmlns="http://www.w3.org/2000/svg">
<path d="M33.5661 9.21819L29.2078 11.7405L28.9262 11.9025C27.2811 11.095 25.575 10.333 23.8078 9.61636C18.2702 7.37264 12.183 5.60885 5.73244 4.37646C3.96426 4.03733 2.16933 3.73958 0.347656 3.48322L5.73396 0.375C16.0266 2.15393 25.5049 5.16828 33.5661 9.21819Z" fill="#23B258"/>
<path d="M33.5661 9.21819L29.2078 11.7405L28.9262 11.9025C27.2811 11.095 25.575 10.333 23.8078 9.61636C18.2702 7.37264 12.183 5.60885 5.73244 4.37646C3.96426 4.03733 2.16933 3.73958 0.347656 3.48322L5.73396 0.375C16.0266 2.15393 25.5049 5.16828 33.5661 9.21819Z" fill="white" fill-opacity="0.25"/>
<path d="M33.5661 9.21819L29.2078 11.7405L28.9262 11.9025C27.2811 11.095 25.575 10.333 23.8078 9.61636C18.2702 7.37264 12.183 5.60885 5.73244 4.37646C3.96426 4.03733 2.16933 3.73958 0.347656 3.48322L5.73396 0.375C16.0266 2.15393 25.5049 5.16828 33.5661 9.21819Z" stroke="#231F20" stroke-opacity="0.1"/>
<path d="M33.5653 9.21875V13.7622L28.9238 16.442L28.9253 11.897L29.2069 11.735L33.5653 9.21875Z" fill="#A26C40"/>
<path d="M33.5653 9.21875V13.7622L28.9238 16.442L28.9253 11.897L29.2069 11.735L33.5653 9.21875Z" fill="black" fill-opacity="0.25"/>
<path d="M33.5653 9.21875V13.7622L28.9238 16.442L28.9253 11.897L29.2069 11.735L33.5653 9.21875Z" stroke="#231F20" stroke-opacity="0.1"/>
<path d="M28.9247 11.8939V16.4358C20.6908 12.3874 10.9098 9.50784 0.347656 8.01657V3.47461C2.16428 3.73098 3.95922 4.02872 5.73245 4.36786C12.183 5.60024 18.2702 7.36404 23.8078 9.60777C25.571 10.3244 27.2766 11.0864 28.9247 11.8939Z" fill="#A26C40"/>
</svg>
