<svg width="23" height="25" viewBox="0 0 23 25" fill="none" xmlns="http://www.w3.org/2000/svg">
<path d="M22.2662 17.0059L22.2647 21.5508L17.2402 24.4516V19.9066L20.1105 18.2504L22.2662 17.0059Z" fill="#A26C40"/>
<path d="M22.2662 17.0059L22.2647 21.5508L17.2402 24.4516V19.9066L20.1105 18.2504L22.2662 17.0059Z" fill="black" fill-opacity="0.25"/>
<path d="M22.2662 17.0059L22.2647 21.5508L17.2402 24.4516V19.9066L20.1105 18.2504L22.2662 17.0059Z" stroke="#231F20" stroke-opacity="0.1"/>
<path d="M22.2645 16.9986L20.1103 18.2431L17.234 19.8994C14.6286 14.5172 10.1309 9.49679 4.04371 5.14862C2.87804 4.31492 1.65384 3.50747 0.371094 2.72625L4.76128 0.193359C12.6772 4.99269 18.657 10.7367 22.2645 16.9986Z" fill="#23B258"/>
<path d="M22.2645 16.9986L20.1103 18.2431L17.234 19.8994C14.6286 14.5172 10.1309 9.49679 4.04371 5.14862C2.87804 4.31492 1.65384 3.50747 0.371094 2.72625L4.76128 0.193359C12.6772 4.99269 18.657 10.7367 22.2645 16.9986Z" fill="white" fill-opacity="0.25"/>
<path d="M22.2645 16.9986L20.1103 18.2431L17.234 19.8994C14.6286 14.5172 10.1309 9.49679 4.04371 5.14862C2.87804 4.31492 1.65384 3.50747 0.371094 2.72625L4.76128 0.193359C12.6772 4.99269 18.657 10.7367 22.2645 16.9986Z" stroke="#231F20" stroke-opacity="0.1"/>
<path d="M17.2397 19.9047V24.4466C14.1333 18.0319 8.33979 12.1319 0.376953 7.27047V2.72852C1.65767 3.51074 2.88187 4.3182 4.04955 5.15089C10.1367 9.50209 14.6344 14.5225 17.2397 19.9047Z" fill="#A26C40"/>
</svg>
