<svg width="18" height="20" viewBox="0 0 18 20" fill="none" xmlns="http://www.w3.org/2000/svg">
<path d="M11.0077 14.676V19.218C8.56287 15.0833 5.0038 11.159 0.466797 7.59664V3.05469C1.58805 3.93381 2.64775 4.83564 3.64588 5.76018C6.69477 8.56862 9.1669 11.5618 11.0077 14.676Z" fill="#A26C40"/>
<path d="M17.3244 14.0159L14.4587 14.3187L11.0086 14.679C9.16777 11.5648 6.69564 8.57164 3.64978 5.76168C2.64963 4.83916 1.58994 3.93733 0.470703 3.0562L4.93049 0.482422C10.3319 4.59743 14.5222 9.17722 17.3244 14.0159Z" fill="#23B258"/>
<path d="M17.3244 14.0159L14.4587 14.3187L11.0086 14.679C9.16777 11.5648 6.69564 8.57164 3.64978 5.76168C2.64963 4.83916 1.58994 3.93733 0.470703 3.0562L4.93049 0.482422C10.3319 4.59743 14.5222 9.17722 17.3244 14.0159Z" fill="white" fill-opacity="0.25"/>
<path d="M17.3244 14.0159L14.4587 14.3187L11.0086 14.679C9.16777 11.5648 6.69564 8.57164 3.64978 5.76168C2.64963 4.83916 1.58994 3.93733 0.470703 3.0562L4.93049 0.482422C10.3319 4.59743 14.5222 9.17722 17.3244 14.0159Z" stroke="#231F20" stroke-opacity="0.1"/>
<path d="M17.325 14.0156V18.5606L11.0078 19.2192V14.6757L14.4593 14.3154L17.325 14.0156Z" fill="#A26C40"/>
<path d="M17.325 14.0156V18.5606L11.0078 19.2192V14.6757L14.4593 14.3154L17.325 14.0156Z" fill="black" fill-opacity="0.25"/>
<path d="M17.325 14.0156V18.5606L11.0078 19.2192V14.6757L14.4593 14.3154L17.325 14.0156Z" stroke="#231F20" stroke-opacity="0.1"/>
</svg>
