<svg width="20" height="44" viewBox="0 0 20 44" fill="none" xmlns="http://www.w3.org/2000/svg">
<path d="M10.0606 38.9632V43.4261C6.64389 40.3779 4.087 37.0545 2.49141 33.5779C1.24388 30.9381 0.569015 28.0721 0.509766 25.1622V20.6992C0.518849 21.3558 0.561756 22.0113 0.638457 22.6659C0.909381 24.8975 1.53462 27.0736 2.49141 29.1149C4.087 32.5915 6.64389 35.915 10.0606 38.9632Z" fill="#A26C40"/>
<path d="M18.2455 34.3223V38.7882L10.0586 43.4341V38.9682L15.6886 35.7727L18.2455 34.3223Z" fill="#A26C40"/>
<path d="M18.2455 34.3223V38.7882L10.0586 43.4341V38.9682L15.6886 35.7727L18.2455 34.3223Z" fill="black" fill-opacity="0.25"/>
<path d="M18.2455 34.3223V38.7882L10.0586 43.4341V38.9682L15.6886 35.7727L18.2455 34.3223Z" stroke="#231F20" stroke-opacity="0.1"/>
<path d="M19.8478 5.69727V10.1602C16.5794 12.9049 14.2541 15.9858 12.9885 19.2453C12.5392 20.3926 12.2238 21.5864 12.0484 22.8037C11.9818 22.3381 11.9349 21.8725 11.9107 21.4053V21.3964C11.861 20.4625 11.8954 19.5261 12.0136 18.5981C12.1789 17.2909 12.5063 16.0085 12.9885 14.7794C13.8378 12.5925 15.1639 10.486 16.9336 8.50744C17.8352 7.50326 18.8091 6.56411 19.8478 5.69727Z" fill="#A26C40"/>
<path d="M19.8478 5.69727V10.1602C16.5794 12.9049 14.2541 15.9858 12.9885 19.2453C12.5392 20.3926 12.2238 21.5864 12.0484 22.8037C11.9818 22.3381 11.9349 21.8725 11.9107 21.4053V21.3964C11.861 20.4625 11.8954 19.5261 12.0136 18.5981C12.1789 17.2909 12.5063 16.0085 12.9885 14.7794C13.8378 12.5925 15.1639 10.486 16.9336 8.50744C17.8352 7.50326 18.8091 6.56411 19.8478 5.69727Z" fill="black" fill-opacity="0.25"/>
<path d="M19.8478 5.69727V10.1602C16.5794 12.9049 14.2541 15.9858 12.9885 19.2453C12.5392 20.3926 12.2238 21.5864 12.0484 22.8037C11.9818 22.3381 11.9349 21.8725 11.9107 21.4053V21.3964C11.861 20.4625 11.8954 19.5261 12.0136 18.5981C12.1789 17.2909 12.5063 16.0085 12.9885 14.7794C13.8378 12.5925 15.1639 10.486 16.9336 8.50744C17.8352 7.50326 18.8091 6.56411 19.8478 5.69727Z" stroke="#231F20" stroke-opacity="0.1"/>
<path d="M12.0105 18.6016C11.8923 19.5296 11.8579 20.466 11.9076 21.3999V21.4088C11.9318 21.876 11.9787 22.3416 12.0453 22.8072C12.2932 24.4794 12.7863 26.1074 13.5092 27.6406C14.0536 28.8155 14.709 29.9377 15.4666 30.9923C16.2979 32.1752 17.2275 33.2883 18.246 34.3202L15.6891 35.7706L10.0607 38.9646C6.6439 35.9164 4.08701 32.593 2.49141 29.1179C1.53462 27.0766 0.909382 24.9005 0.638458 22.6689C0.562765 22.0143 0.519858 21.3587 0.509766 20.7022V20.2723C0.515892 19.4853 0.570502 18.6993 0.673273 17.9188C0.883436 16.3107 1.29006 14.7333 1.88435 13.2208C3.58592 8.78609 6.88004 4.62364 11.5518 0.986328L19.8583 5.69922C18.819 6.56697 17.8446 7.50712 16.9426 8.51238C15.1729 10.491 13.8468 12.5975 12.9975 14.7843C12.5113 16.0124 12.1798 17.2944 12.0105 18.6016Z" fill="#23B258"/>
<path d="M12.0105 18.6016C11.8923 19.5296 11.8579 20.466 11.9076 21.3999V21.4088C11.9318 21.876 11.9787 22.3416 12.0453 22.8072C12.2932 24.4794 12.7863 26.1074 13.5092 27.6406C14.0536 28.8155 14.709 29.9377 15.4666 30.9923C16.2979 32.1752 17.2275 33.2883 18.246 34.3202L15.6891 35.7706L10.0607 38.9646C6.6439 35.9164 4.08701 32.593 2.49141 29.1179C1.53462 27.0766 0.909382 24.9005 0.638458 22.6689C0.562765 22.0143 0.519858 21.3587 0.509766 20.7022V20.2723C0.515892 19.4853 0.570502 18.6993 0.673273 17.9188C0.883436 16.3107 1.29006 14.7333 1.88435 13.2208C3.58592 8.78609 6.88004 4.62364 11.5518 0.986328L19.8583 5.69922C18.819 6.56697 17.8446 7.50712 16.9426 8.51238C15.1729 10.491 13.8468 12.5975 12.9975 14.7843C12.5113 16.0124 12.1798 17.2944 12.0105 18.6016Z" fill="white" fill-opacity="0.25"/>
<path d="M12.0105 18.6016C11.8923 19.5296 11.8579 20.466 11.9076 21.3999V21.4088C11.9318 21.876 11.9787 22.3416 12.0453 22.8072C12.2932 24.4794 12.7863 26.1074 13.5092 27.6406C14.0536 28.8155 14.709 29.9377 15.4666 30.9923C16.2979 32.1752 17.2275 33.2883 18.246 34.3202L15.6891 35.7706L10.0607 38.9646C6.6439 35.9164 4.08701 32.593 2.49141 29.1179C1.53462 27.0766 0.909382 24.9005 0.638458 22.6689C0.562765 22.0143 0.519858 21.3587 0.509766 20.7022V20.2723C0.515892 19.4853 0.570502 18.6993 0.673273 17.9188C0.883436 16.3107 1.29006 14.7333 1.88435 13.2208C3.58592 8.78609 6.88004 4.62364 11.5518 0.986328L19.8583 5.69922C18.819 6.56697 17.8446 7.50712 16.9426 8.51238C15.1729 10.491 13.8468 12.5975 12.9975 14.7843C12.5113 16.0124 12.1798 17.2944 12.0105 18.6016Z" stroke="#231F20" stroke-opacity="0.1"/>
</svg>
