<svg width="8" height="9" viewBox="0 0 8 9" fill="none" xmlns="http://www.w3.org/2000/svg">
<path d="M7.98313 6.63875L4.41797 8.69777V4.30417V4.15277L7.98313 2.09375V6.63875Z" fill="#A26C40"/>
<path d="M7.98313 6.63875L4.41797 8.69777V4.30417V4.15277L7.98313 2.09375V6.63875Z" fill="black" fill-opacity="0.25"/>
<path d="M7.98313 6.63875L4.41797 8.69777V4.30417V4.15277L7.98313 2.09375V6.63875Z" stroke="#231F20" stroke-opacity="0.1"/>
<path d="M4.41725 8.69737L0.896047 6.66411L0.894531 6.33708L0.896047 6.18569V2.26902V2.11914L4.41725 4.1524V4.3038V8.69737Z" fill="#A26C40"/>
<path d="M7.98236 2.09383L4.41725 4.15285L0.894531 2.11806L4.45964 0.0605469L7.98236 2.09383Z" fill="#23B258"/>
<path d="M7.98236 2.09383L4.41725 4.15285L0.894531 2.11806L4.45964 0.0605469L7.98236 2.09383Z" fill="white" fill-opacity="0.25"/>
<path d="M7.98236 2.09383L4.41725 4.15285L0.894531 2.11806L4.45964 0.0605469L7.98236 2.09383Z" stroke="#231F20" stroke-opacity="0.1"/>
</svg>
