<svg width="14" height="26" viewBox="0 0 14 26" fill="none" xmlns="http://www.w3.org/2000/svg">
<path d="M13.5694 10.8145V15.3564C13.4634 19.0097 11.3214 22.5433 7.46403 25.4275C7.44284 25.4441 7.40042 25.4275 7.40042 25.4154V20.937C7.40024 20.9344 7.40087 20.9319 7.40223 20.9297C7.40359 20.9275 7.40562 20.9258 7.408 20.9249C10.5871 18.5585 12.6187 15.7531 13.3121 12.8008C13.4643 12.149 13.5505 11.4835 13.5694 10.8145Z" fill="#A26C40"/>
<path d="M13.5694 10.8145V15.3564C13.4634 19.0097 11.3214 22.5433 7.46403 25.4275C7.44284 25.4441 7.40042 25.4275 7.40042 25.4154V20.937C7.40024 20.9344 7.40087 20.9319 7.40223 20.9297C7.40359 20.9275 7.40562 20.9258 7.408 20.9249C10.5871 18.5585 12.6187 15.7531 13.3121 12.8008C13.4643 12.149 13.5505 11.4835 13.5694 10.8145Z" fill="black" fill-opacity="0.25"/>
<path d="M13.5694 10.8145V15.3564C13.4634 19.0097 11.3214 22.5433 7.46403 25.4275C7.44284 25.4441 7.40042 25.4275 7.40042 25.4154V20.937C7.40024 20.9344 7.40087 20.9319 7.40223 20.9297C7.40359 20.9275 7.40562 20.9258 7.408 20.9249C10.5871 18.5585 12.6187 15.7531 13.3121 12.8008C13.4643 12.149 13.5505 11.4835 13.5694 10.8145Z" stroke="#231F20" stroke-opacity="0.1"/>
<path d="M7.95527 0.563659L1.29438 4.40918C1.28227 4.40918 1.28075 4.42582 1.29438 4.43339C2.27381 5.3281 3.06528 6.4089 3.62264 7.61275C4.37183 9.23448 4.45875 11.0846 3.86487 12.7694C3.33352 14.2985 2.26929 15.7565 0.723656 17.0509C0.713059 17.0509 0.716087 17.0691 0.723656 17.0767L3.29718 18.5634L7.37243 20.9161C7.38053 20.9206 7.38966 20.923 7.39893 20.923C7.4082 20.923 7.41733 20.9206 7.42543 20.9161C10.6045 18.5513 12.6209 15.7519 13.3097 12.8042C13.4632 12.1515 13.5504 11.485 13.5701 10.8148C13.6745 7.14797 11.7232 3.54772 8.00823 0.566689C8.00029 0.561967 7.99136 0.559214 7.98214 0.558687C7.97292 0.55816 7.9637 0.559872 7.95527 0.563659Z" fill="#23B258"/>
<path d="M7.95527 0.563659L1.29438 4.40918C1.28227 4.40918 1.28075 4.42582 1.29438 4.43339C2.27381 5.3281 3.06528 6.4089 3.62264 7.61275C4.37183 9.23448 4.45875 11.0846 3.86487 12.7694C3.33352 14.2985 2.26929 15.7565 0.723656 17.0509C0.713059 17.0509 0.716087 17.0691 0.723656 17.0767L3.29718 18.5634L7.37243 20.9161C7.38053 20.9206 7.38966 20.923 7.39893 20.923C7.4082 20.923 7.41733 20.9206 7.42543 20.9161C10.6045 18.5513 12.6209 15.7519 13.3097 12.8042C13.4632 12.1515 13.5504 11.485 13.5701 10.8148C13.6745 7.14797 11.7232 3.54772 8.00823 0.566689C8.00029 0.561967 7.99136 0.559214 7.98214 0.558687C7.97292 0.55816 7.9637 0.559872 7.95527 0.563659Z" fill="white" fill-opacity="0.25"/>
<path d="M7.95527 0.563659L1.29438 4.40918C1.28227 4.40918 1.28075 4.42582 1.29438 4.43339C2.27381 5.3281 3.06528 6.4089 3.62264 7.61275C4.37183 9.23448 4.45875 11.0846 3.86487 12.7694C3.33352 14.2985 2.26929 15.7565 0.723656 17.0509C0.713059 17.0509 0.716087 17.0691 0.723656 17.0767L3.29718 18.5634L7.37243 20.9161C7.38053 20.9206 7.38966 20.923 7.39893 20.923C7.4082 20.923 7.41733 20.9206 7.42543 20.9161C10.6045 18.5513 12.6209 15.7519 13.3097 12.8042C13.4632 12.1515 13.5504 11.485 13.5701 10.8148C13.6745 7.14797 11.7232 3.54772 8.00823 0.566689C8.00029 0.561967 7.99136 0.559214 7.98214 0.558687C7.97292 0.55816 7.9637 0.559872 7.95527 0.563659Z" stroke="#231F20" stroke-opacity="0.1"/>
<path d="M4.24241 10.8027C4.21275 11.4386 4.09505 12.0674 3.8927 12.6709C3.88513 12.6937 3.83215 12.6937 3.82458 12.6709C3.35376 11.3704 2.49538 10.1184 1.27821 8.97229C1.27706 8.96885 1.27706 8.96512 1.27821 8.96169V4.49543C1.27821 4.47424 1.32664 4.46668 1.34481 4.48484C2.29942 5.36915 3.07098 6.43242 3.61564 7.61424C4.07211 8.61306 4.28685 9.7054 4.24241 10.8027Z" fill="#A26C40"/>
<path d="M4.24241 10.8027C4.21275 11.4386 4.09505 12.0674 3.8927 12.6709C3.88513 12.6937 3.83215 12.6937 3.82458 12.6709C3.35376 11.3704 2.49538 10.1184 1.27821 8.97229C1.27706 8.96885 1.27706 8.96512 1.27821 8.96169V4.49543C1.27821 4.47424 1.32664 4.46668 1.34481 4.48484C2.29942 5.36915 3.07098 6.43242 3.61564 7.61424C4.07211 8.61306 4.28685 9.7054 4.24241 10.8027Z" fill="black" fill-opacity="0.25"/>
<path d="M4.24241 10.8027C4.21275 11.4386 4.09505 12.0674 3.8927 12.6709C3.88513 12.6937 3.83215 12.6937 3.82458 12.6709C3.35376 11.3704 2.49538 10.1184 1.27821 8.97229C1.27706 8.96885 1.27706 8.96512 1.27821 8.96169V4.49543C1.27821 4.47424 1.32664 4.46668 1.34481 4.48484C2.29942 5.36915 3.07098 6.43242 3.61564 7.61424C4.07211 8.61306 4.28685 9.7054 4.24241 10.8027Z" stroke="#231F20" stroke-opacity="0.1"/>
<path d="M7.40146 20.9409V25.4268C7.40146 25.445 7.36363 25.4525 7.34092 25.4404L0.711779 21.6131C0.711779 21.6131 0.701172 21.604 0.701172 21.5979V17.1105C0.701172 17.0923 0.739039 17.0832 0.760233 17.0954L3.29744 18.5609L7.38483 20.9242C7.38913 20.9246 7.39316 20.9264 7.39621 20.9295C7.39926 20.9325 7.40111 20.9366 7.40146 20.9409Z" fill="#A26C40"/>
</svg>
