<svg width="36" height="13" viewBox="0 0 36 13" fill="none" xmlns="http://www.w3.org/2000/svg">
<path d="M35.5985 4.0176C34.0356 4.71468 32.426 5.30203 30.7815 5.77536C26.6523 6.94461 22.3838 7.54914 18.0924 7.57247C13.7792 7.62338 9.47843 7.09999 5.30333 6.01608C3.6124 5.57401 1.95343 5.0176 0.337891 4.35069L7.03972 0.480919H7.04729C10.3626 1.65578 14.1942 2.2523 18.0757 2.19628C21.9572 2.14027 25.7207 1.43928 28.9103 0.166016H28.9179L35.5985 4.0176Z" fill="#23B258"/>
<path d="M35.5985 4.0176C34.0356 4.71468 32.426 5.30203 30.7815 5.77536C26.6523 6.94461 22.3838 7.54914 18.0924 7.57247C13.7792 7.62338 9.47843 7.09999 5.30333 6.01608C3.6124 5.57401 1.95343 5.0176 0.337891 4.35069L7.03972 0.480919H7.04729C10.3626 1.65578 14.1942 2.2523 18.0757 2.19628C21.9572 2.14027 25.7207 1.43928 28.9103 0.166016H28.9179L35.5985 4.0176Z" fill="white" fill-opacity="0.25"/>
<path d="M35.5985 4.0176C34.0356 4.71468 32.426 5.30203 30.7815 5.77536C26.6523 6.94461 22.3838 7.54914 18.0924 7.57247C13.7792 7.62338 9.47843 7.09999 5.30333 6.01608C3.6124 5.57401 1.95343 5.0176 0.337891 4.35069L7.03972 0.480919H7.04729C10.3626 1.65578 14.1942 2.2523 18.0757 2.19628C21.9572 2.14027 25.7207 1.43928 28.9103 0.166016H28.9179L35.5985 4.0176Z" stroke="#231F20" stroke-opacity="0.1"/>
<path d="M35.6084 4.02647V8.56843C30.6006 10.8182 24.4589 12.0657 18.0993 12.1233C11.7396 12.1808 5.51008 11.0484 0.341797 8.89546V4.3535C0.341797 4.3535 0.341806 4.3535 0.350889 4.3535C1.9653 5.02064 3.62324 5.57705 5.31325 6.01888C9.48834 7.10279 13.7891 7.62616 18.1023 7.57525C22.3937 7.55191 26.6622 6.94738 30.7913 5.77814C32.4341 5.30514 34.0422 4.71884 35.6039 4.02344C35.6039 4.02344 35.6084 4.02495 35.6084 4.02647Z" fill="#A26C40"/>
</svg>
