<svg width="13" height="15" viewBox="0 0 13 15" fill="none" xmlns="http://www.w3.org/2000/svg">
<path d="M8.50972 10.2863V14.9796C5.44572 12.4392 2.88888 9.70641 0.890625 6.83591V2.14258C1.87243 3.54685 2.94977 4.88181 4.11506 6.13797C5.48634 7.61667 6.95447 9.0025 8.50972 10.2863Z" fill="#A26C40"/>
<path d="M12.9316 7.73469L9.86607 9.50453L8.51114 10.2873C6.95743 9.00333 5.4908 7.6175 4.12097 6.13894C2.95566 4.88277 1.8783 3.5478 0.896484 2.14352L3.05824 1.68932H3.06733L6.66273 0.880859C8.45556 3.42025 10.5619 5.72308 12.9316 7.73469Z" fill="#23B258"/>
<path d="M12.9316 7.73469L9.86607 9.50453L8.51114 10.2873C6.95743 9.00333 5.4908 7.6175 4.12097 6.13894C2.95566 4.88277 1.8783 3.5478 0.896484 2.14352L3.05824 1.68932H3.06733L6.66273 0.880859C8.45556 3.42025 10.5619 5.72308 12.9316 7.73469Z" fill="white" fill-opacity="0.25"/>
<path d="M12.9316 7.73469L9.86607 9.50453L8.51114 10.2873C6.95743 9.00333 5.4908 7.6175 4.12097 6.13894C2.95566 4.88277 1.8783 3.5478 0.896484 2.14352L3.05824 1.68932H3.06733L6.66273 0.880859C8.45556 3.42025 10.5619 5.72308 12.9316 7.73469Z" stroke="#231F20" stroke-opacity="0.1"/>
<path d="M12.9302 7.73438V12.4307L8.50977 14.9833V10.2869L9.86468 9.50421L12.9302 7.73438Z" fill="#A26C40"/>
<path d="M12.9302 7.73438V12.4307L8.50977 14.9833V10.2869L9.86468 9.50421L12.9302 7.73438Z" fill="black" fill-opacity="0.25"/>
<path d="M12.9302 7.73438V12.4307L8.50977 14.9833V10.2869L9.86468 9.50421L12.9302 7.73438Z" stroke="#231F20" stroke-opacity="0.1"/>
</svg>
