<svg width="16" height="14" viewBox="0 0 16 14" fill="none" xmlns="http://www.w3.org/2000/svg">
<path d="M15.3992 3.53699L11.4632 5.80948L5.20038 9.42638L3.95751 8.70875L0.0214844 6.43626L10.2203 0.546875L15.3992 3.53699Z" fill="#23B258"/>
<path d="M15.3992 3.53699L11.4632 5.80948L5.20038 9.42638L3.95751 8.70875L0.0214844 6.43626L10.2203 0.546875L15.3992 3.53699Z" fill="white" fill-opacity="0.25"/>
<path d="M15.3992 3.53699L11.4632 5.80948L5.20038 9.42638L3.95751 8.70875L0.0214844 6.43626L10.2203 0.546875L15.3992 3.53699Z" stroke="#231F20" stroke-opacity="0.1"/>
<path d="M5.2004 9.42762V13.9726L0.0214844 10.9825V6.4375L3.95752 8.70999L5.2004 9.42762Z" fill="#A26C40"/>
<path d="M15.398 3.53711V8.08209L5.19922 13.9715V9.42649L11.462 5.8096L15.398 3.53711Z" fill="#A26C40"/>
<path d="M15.398 3.53711V8.08209L5.19922 13.9715V9.42649L11.462 5.8096L15.398 3.53711Z" fill="black" fill-opacity="0.25"/>
<path d="M15.398 3.53711V8.08209L5.19922 13.9715V9.42649L11.462 5.8096L15.398 3.53711Z" stroke="#231F20" stroke-opacity="0.1"/>
</svg>
