<svg width="37" height="16" viewBox="0 0 37 16" fill="none" xmlns="http://www.w3.org/2000/svg">
<path d="M36.2602 8.16555L31.8019 10.7393L31.3584 10.9952C29.0299 9.89823 26.6395 8.93775 24.1994 8.11862C18.8177 6.30184 12.9379 5.00587 6.80828 4.30489C4.77972 4.07376 2.72645 3.90722 0.648438 3.80528L6.81131 0.251953C17.6671 1.34505 27.8266 4.07628 36.2602 8.16555Z" fill="#23B258"/>
<path d="M36.2602 8.16555L31.8019 10.7393L31.3584 10.9952C29.0299 9.89823 26.6395 8.93775 24.1994 8.11862C18.8177 6.30184 12.9379 5.00587 6.80828 4.30489C4.77972 4.07376 2.72645 3.90722 0.648438 3.80528L6.81131 0.251953C17.6671 1.34505 27.8266 4.07628 36.2602 8.16555Z" fill="white" fill-opacity="0.25"/>
<path d="M36.2602 8.16555L31.8019 10.7393L31.3584 10.9952C29.0299 9.89823 26.6395 8.93775 24.1994 8.11862C18.8177 6.30184 12.9379 5.00587 6.80828 4.30489C4.77972 4.07376 2.72645 3.90722 0.648438 3.80528L6.81131 0.251953C17.6671 1.34505 27.8266 4.07628 36.2602 8.16555Z" stroke="#231F20" stroke-opacity="0.1"/>
<path d="M36.2593 8.16602V12.711L31.3574 15.5422V10.9972L31.801 10.7413L36.2593 8.16602Z" fill="#A26C40"/>
<path d="M36.2593 8.16602V12.711L31.3574 15.5422V10.9972L31.801 10.7413L36.2593 8.16602Z" fill="black" fill-opacity="0.25"/>
<path d="M36.2593 8.16602V12.711L31.3574 15.5422V10.9972L31.801 10.7413L36.2593 8.16602Z" stroke="#231F20" stroke-opacity="0.1"/>
<path d="M31.3584 10.9955V15.5374C22.6144 11.4012 11.9054 8.8971 0.648438 8.35055V3.80859C2.72443 3.90953 4.77772 4.07607 6.8083 4.30822C12.9379 5.00919 18.8177 6.29911 24.1995 8.12195C26.6395 8.94009 29.0299 9.89956 31.3584 10.9955Z" fill="#A26C40"/>
</svg>
