<svg width="9" height="8" viewBox="0 0 9 8" fill="none" xmlns="http://www.w3.org/2000/svg">
<path d="M7.98167 0.126189C7.98266 0.125195 7.98384 0.124398 7.98514 0.12386C7.98644 0.123322 7.98784 0.123047 7.98924 0.123047C7.99065 0.123047 7.99205 0.123322 7.99335 0.12386C7.99465 0.124398 7.99583 0.125195 7.99682 0.126189C7.99782 0.127183 7.99858 0.128364 7.99911 0.129663C7.99965 0.130962 7.99993 0.13236 7.99993 0.133766C7.99993 0.135172 7.99965 0.136552 7.99911 0.13785C7.99858 0.139149 7.99782 0.140331 7.99682 0.141325C7.21816 1.50171 6.52204 2.90772 5.91225 4.35173C5.86683 4.45468 5.82595 4.55763 5.78356 4.65453C5.78165 4.65536 5.77958 4.65578 5.7775 4.65578C5.77541 4.65578 5.77335 4.65536 5.77144 4.65453L5.4248 4.62121L4.96306 4.57731L0.958944 4.19427C0.948347 4.19427 0.943805 4.17761 0.958944 4.17307L5.78507 1.38432L7.98167 0.126189Z" fill="#23B258"/>
<path d="M7.98167 0.126189C7.98266 0.125195 7.98384 0.124398 7.98514 0.12386C7.98644 0.123322 7.98784 0.123047 7.98924 0.123047C7.99065 0.123047 7.99205 0.123322 7.99335 0.12386C7.99465 0.124398 7.99583 0.125195 7.99682 0.126189C7.99782 0.127183 7.99858 0.128364 7.99911 0.129663C7.99965 0.130962 7.99993 0.13236 7.99993 0.133766C7.99993 0.135172 7.99965 0.136552 7.99911 0.13785C7.99858 0.139149 7.99782 0.140331 7.99682 0.141325C7.21816 1.50171 6.52204 2.90772 5.91225 4.35173C5.86683 4.45468 5.82595 4.55763 5.78356 4.65453C5.78165 4.65536 5.77958 4.65578 5.7775 4.65578C5.77541 4.65578 5.77335 4.65536 5.77144 4.65453L5.4248 4.62121L4.96306 4.57731L0.958944 4.19427C0.948347 4.19427 0.943805 4.17761 0.958944 4.17307L5.78507 1.38432L7.98167 0.126189Z" fill="white" fill-opacity="0.25"/>
<path d="M7.98167 0.126189C7.98266 0.125195 7.98384 0.124398 7.98514 0.12386C7.98644 0.123322 7.98784 0.123047 7.98924 0.123047C7.99065 0.123047 7.99205 0.123322 7.99335 0.12386C7.99465 0.124398 7.99583 0.125195 7.99682 0.126189C7.99782 0.127183 7.99858 0.128364 7.99911 0.129663C7.99965 0.130962 7.99993 0.13236 7.99993 0.133766C7.99993 0.135172 7.99965 0.136552 7.99911 0.13785C7.99858 0.139149 7.99782 0.140331 7.99682 0.141325C7.21816 1.50171 6.52204 2.90772 5.91225 4.35173C5.86683 4.45468 5.82595 4.55763 5.78356 4.65453C5.78165 4.65536 5.77958 4.65578 5.7775 4.65578C5.77541 4.65578 5.77335 4.65536 5.77144 4.65453L5.4248 4.62121L4.96306 4.57731L0.958944 4.19427C0.948347 4.19427 0.943805 4.17761 0.958944 4.17307L5.78507 1.38432L7.98167 0.126189Z" stroke="#231F20" stroke-opacity="0.1"/>
<path d="M5.78585 4.67713V7.6839C5.78587 7.68562 5.78552 7.68733 5.78482 7.6889C5.78412 7.69048 5.78308 7.6919 5.78179 7.69304C5.7805 7.69419 5.77896 7.69505 5.77732 7.69556C5.77567 7.69607 5.77393 7.69622 5.77221 7.696L4.96838 7.61879L0.938466 7.23271C0.935656 7.23271 0.932951 7.23162 0.930964 7.22963C0.928976 7.22764 0.927859 7.22494 0.927859 7.22212V4.21536C0.9276 4.21371 0.927748 4.21201 0.928266 4.21042C0.928783 4.20884 0.929672 4.20741 0.930853 4.20623C0.932033 4.20505 0.933479 4.20416 0.935066 4.20364C0.936654 4.20313 0.938332 4.203 0.939982 4.20325L4.96687 4.58931L5.42857 4.63322L5.77373 4.66652C5.77524 4.6663 5.77681 4.66642 5.77828 4.66686C5.77974 4.66729 5.78108 4.66803 5.78223 4.66904C5.78338 4.67004 5.7843 4.67128 5.78493 4.67268C5.78555 4.67407 5.78587 4.6756 5.78585 4.67713Z" fill="#A26C40"/>
<path d="M8.01719 0.14951V3.13359C7.1823 4.586 6.44252 6.09104 5.80246 7.63924C5.80246 7.65135 5.78125 7.64833 5.78125 7.63924V4.66272C5.82515 4.55826 5.86756 4.4538 5.91297 4.34933C6.52307 2.90595 7.21918 1.50045 7.99753 0.140417C8.00056 0.132847 8.01719 0.137398 8.01719 0.14951Z" fill="#A26C40"/>
<path d="M8.01719 0.14951V3.13359C7.1823 4.586 6.44252 6.09104 5.80246 7.63924C5.80246 7.65135 5.78125 7.64833 5.78125 7.63924V4.66272C5.82515 4.55826 5.86756 4.4538 5.91297 4.34933C6.52307 2.90595 7.21918 1.50045 7.99753 0.140417C8.00056 0.132847 8.01719 0.137398 8.01719 0.14951Z" fill="black" fill-opacity="0.25"/>
<path d="M8.01719 0.14951V3.13359C7.1823 4.586 6.44252 6.09104 5.80246 7.63924C5.80246 7.65135 5.78125 7.64833 5.78125 7.63924V4.66272C5.82515 4.55826 5.86756 4.4538 5.91297 4.34933C6.52307 2.90595 7.21918 1.50045 7.99753 0.140417C8.00056 0.132847 8.01719 0.137398 8.01719 0.14951Z" stroke="#231F20" stroke-opacity="0.1"/>
</svg>
