<svg width="10" height="22" viewBox="0 0 10 22" fill="none" xmlns="http://www.w3.org/2000/svg">
<path d="M3.41802 16.4897V21.0317C1.44999 16.4019 0.652178 11.645 1.02762 6.89258C1.3003 10.1998 2.10758 13.441 3.41802 16.4897V16.4897Z" fill="#A26C40"/>
<path d="M9.6143 15.6074V20.1524L8.19123 20.3537H8.18972L3.41797 21.035V16.4901L8.15945 15.8133L8.18972 15.8088H8.19123L9.6143 15.6074Z" fill="#A26C40"/>
<path d="M9.6143 15.6074V20.1524L8.19123 20.3537H8.18972L3.41797 21.035V16.4901L8.15945 15.8133L8.18972 15.8088H8.19123L9.6143 15.6074Z" fill="black" fill-opacity="0.25"/>
<path d="M9.6143 15.6074V20.1524L8.19123 20.3537H8.18972L3.41797 21.035V16.4901L8.15945 15.8133L8.18972 15.8088H8.19123L9.6143 15.6074Z" stroke="#231F20" stroke-opacity="0.1"/>
<path d="M9.61484 15.6075L8.19938 15.8103H8.16911L3.42775 16.4871C2.11766 13.4393 1.31039 10.1992 1.03739 6.89294C0.875191 4.84835 0.932048 2.79227 1.20696 0.759766L6.10725 1.01564L7.57718 1.09134C7.37606 2.59643 7.30263 4.11584 7.35768 5.63331C7.37585 6.06328 7.40007 6.49325 7.4364 6.92171C7.70142 9.9135 8.43662 12.8448 9.61484 15.6075Z" fill="#23B258"/>
<path d="M9.61484 15.6075L8.19938 15.8103H8.16911L3.42775 16.4871C2.11766 13.4393 1.31039 10.1992 1.03739 6.89294C0.875191 4.84835 0.932048 2.79227 1.20696 0.759766L6.10725 1.01564L7.57718 1.09134C7.37606 2.59643 7.30263 4.11584 7.35768 5.63331C7.37585 6.06328 7.40007 6.49325 7.4364 6.92171C7.70142 9.9135 8.43662 12.8448 9.61484 15.6075Z" fill="white" fill-opacity="0.25"/>
<path d="M9.61484 15.6075L8.19938 15.8103H8.16911L3.42775 16.4871C2.11766 13.4393 1.31039 10.1992 1.03739 6.89294C0.875191 4.84835 0.932048 2.79227 1.20696 0.759766L6.10725 1.01564L7.57718 1.09134C7.37606 2.59643 7.30263 4.11584 7.35768 5.63331C7.37585 6.06328 7.40007 6.49325 7.4364 6.92171C7.70142 9.9135 8.43662 12.8448 9.61484 15.6075Z" stroke="#231F20" stroke-opacity="0.1"/>
</svg>
