<svg width="22" height="26" viewBox="0 0 22 26" fill="none" xmlns="http://www.w3.org/2000/svg">
<path d="M21.3998 17.8534L19.78 18.789L15.5306 21.2432C14.3513 15.4658 10.4713 9.96703 4.35234 5.32818C3.22805 4.47631 2.02857 3.65421 0.753906 2.86189L5.46501 0.136719C13.5278 5.09503 19.0534 11.2388 21.3998 17.8534Z" fill="#23B258"/>
<path d="M21.3998 17.8534L19.78 18.789L15.5306 21.2432C14.3513 15.4658 10.4713 9.96703 4.35234 5.32818C3.22805 4.47631 2.02857 3.65421 0.753906 2.86189L5.46501 0.136719C13.5278 5.09503 19.0534 11.2388 21.3998 17.8534Z" fill="white" fill-opacity="0.25"/>
<path d="M21.3998 17.8534L19.78 18.789L15.5306 21.2432C14.3513 15.4658 10.4713 9.96703 4.35234 5.32818C3.22805 4.47631 2.02857 3.65421 0.753906 2.86189L5.46501 0.136719C13.5278 5.09503 19.0534 11.2388 21.3998 17.8534Z" stroke="#231F20" stroke-opacity="0.1"/>
<path d="M21.4005 17.8535V22.3985L15.5312 25.7884V21.2433L19.7806 18.7892L21.4005 17.8535Z" fill="#A26C40"/>
<path d="M21.4005 17.8535V22.3985L15.5312 25.7884V21.2433L19.7806 18.7892L21.4005 17.8535Z" fill="black" fill-opacity="0.25"/>
<path d="M21.4005 17.8535V22.3985L15.5312 25.7884V21.2433L19.7806 18.7892L21.4005 17.8535Z" stroke="#231F20" stroke-opacity="0.1"/>
<path d="M15.5306 21.2437V25.7857C14.1348 18.9455 8.95292 12.4959 0.753906 7.40133V2.85938C2.02655 3.64968 3.22603 4.47177 4.35233 5.32566C10.4743 9.96754 14.3513 15.4663 15.5306 21.2437Z" fill="#A26C40"/>
</svg>
