<svg width="45" height="32" viewBox="0 0 45 32" fill="none" xmlns="http://www.w3.org/2000/svg">
<path d="M44.4692 6.16016V12.2191L11.4082 31.3075V25.2485L39.2222 9.18964L44.4692 6.16016Z" fill="#A26C40"/>
<path d="M44.4692 6.16016V12.2191L11.4082 31.3075V25.2485L39.2222 9.18964L44.4692 6.16016Z" fill="black" fill-opacity="0.25"/>
<path d="M44.4692 6.16016V12.2191L11.4082 31.3075V25.2485L39.2222 9.18964L44.4692 6.16016Z" stroke="#231F20" stroke-opacity="0.1"/>
<path d="M11.4086 25.2491V31.3081L0.929688 25.2582V19.1992L6.1767 22.2287L11.4086 25.2491Z" fill="#A26C40"/>
<path d="M44.4696 6.16077L39.2226 9.19026L11.4086 25.2491L6.1767 22.2287L0.929688 19.1992L33.9907 0.109375L44.4696 6.16077Z" fill="#23B258"/>
<path d="M44.4696 6.16077L39.2226 9.19026L11.4086 25.2491L6.1767 22.2287L0.929688 19.1992L33.9907 0.109375L44.4696 6.16077Z" fill="white" fill-opacity="0.25"/>
<path d="M44.4696 6.16077L39.2226 9.19026L11.4086 25.2491L6.1767 22.2287L0.929688 19.1992L33.9907 0.109375L44.4696 6.16077Z" stroke="#231F20" stroke-opacity="0.1"/>
</svg>
