<svg width="18" height="20" viewBox="0 0 18 20" fill="none" xmlns="http://www.w3.org/2000/svg">
<path d="M10.7444 15.3287V19.8706C8.38431 15.5391 4.8328 11.4498 0.224609 7.75875V3.2168C1.33477 4.10601 2.38237 5.0144 3.36738 5.94197C6.47382 8.89423 8.95201 12.0433 10.7444 15.3287Z" fill="#A26C40"/>
<path d="M17.5538 14.5059L14.9211 14.8253L10.7444 15.331C8.95199 12.0426 6.47381 8.89354 3.36738 5.9549C2.38135 5.02229 1.33376 4.1139 0.224609 3.22973L5.16283 0.378906C10.6687 4.64077 14.8606 9.42343 17.5538 14.5059Z" fill="#23B258"/>
<path d="M17.5538 14.5059L14.9211 14.8253L10.7444 15.331C8.95199 12.0426 6.47381 8.89354 3.36738 5.9549C2.38135 5.02229 1.33376 4.1139 0.224609 3.22973L5.16283 0.378906C10.6687 4.64077 14.8606 9.42343 17.5538 14.5059Z" fill="white" fill-opacity="0.25"/>
<path d="M17.5538 14.5059L14.9211 14.8253L10.7444 15.331C8.95199 12.0426 6.47381 8.89354 3.36738 5.9549C2.38135 5.02229 1.33376 4.1139 0.224609 3.22973L5.16283 0.378906C10.6687 4.64077 14.8606 9.42343 17.5538 14.5059Z" stroke="#231F20" stroke-opacity="0.1"/>
<path d="M17.5534 14.5078V19.0528L10.7441 19.8779V15.3329L14.9208 14.8273L17.5534 14.5078Z" fill="#A26C40"/>
<path d="M17.5534 14.5078V19.0528L10.7441 19.8779V15.3329L14.9208 14.8273L17.5534 14.5078Z" fill="black" fill-opacity="0.25"/>
<path d="M17.5534 14.5078V19.0528L10.7441 19.8779V15.3329L14.9208 14.8273L17.5534 14.5078Z" stroke="#231F20" stroke-opacity="0.1"/>
</svg>
