<svg width="16" height="17" viewBox="0 0 16 17" fill="none" xmlns="http://www.w3.org/2000/svg">
<path d="M12.25 14.1602C11.5376 14.1756 10.8482 13.9081 10.3327 13.4161C9.81728 12.9242 9.51783 12.248 9.5 11.5357C9.51051 11.0324 9.66191 10.5422 9.937 10.1207L11.745 7.42918C11.8007 7.34637 11.8758 7.27852 11.9639 7.23161C12.052 7.18469 12.1502 7.16016 12.25 7.16016C12.3498 7.16016 12.448 7.18469 12.5361 7.23161C12.6242 7.27852 12.6993 7.34637 12.755 7.42918L14.53 10.0677C14.8236 10.5021 14.9867 11.0115 15 11.5357C14.9822 12.248 14.6827 12.9242 14.1673 13.4161C13.6518 13.9081 12.9624 14.1756 12.25 14.1602ZM12.25 8.47018L10.782 10.6537C10.6072 10.9154 10.5095 11.2211 10.5 11.5357C10.5334 11.977 10.7322 12.3893 11.0567 12.6902C11.3813 12.9911 11.8075 13.1583 12.25 13.1583C12.6925 13.1583 13.1187 12.9911 13.4433 12.6902C13.7678 12.3893 13.9666 11.977 14 11.5357C13.9884 11.2004 13.8789 10.8759 13.685 10.6022L12.25 8.47018Z" fill="black"/>
<path d="M2.5 7.16016C2.77614 7.16016 3 6.9363 3 6.66016C3 6.38401 2.77614 6.16016 2.5 6.16016C2.22386 6.16016 2 6.38401 2 6.66016C2 6.9363 2.22386 7.16016 2.5 7.16016Z" fill="black"/>
<path d="M5.5 10.1602C5.77614 10.1602 6 9.9363 6 9.66016C6 9.38401 5.77614 9.16016 5.5 9.16016C5.22386 9.16016 5 9.38401 5 9.66016C5 9.9363 5.22386 10.1602 5.5 10.1602Z" fill="black"/>
<path d="M7.5 13.1602C7.77614 13.1602 8 12.9363 8 12.6602C8 12.384 7.77614 12.1602 7.5 12.1602C7.22386 12.1602 7 12.384 7 12.6602C7 12.9363 7.22386 13.1602 7.5 13.1602Z" fill="black"/>
<path d="M8.5 8.16016C8.77614 8.16016 9 7.9363 9 7.66016C9 7.38401 8.77614 7.16016 8.5 7.16016C8.22386 7.16016 8 7.38401 8 7.66016C8 7.9363 8.22386 8.16016 8.5 8.16016Z" fill="black"/>
<path d="M6.5 6.16016C6.77614 6.16016 7 5.9363 7 5.66016C7 5.38401 6.77614 5.16016 6.5 5.16016C6.22386 5.16016 6 5.38401 6 5.66016C6 5.9363 6.22386 6.16016 6.5 6.16016Z" fill="black"/>
<path d="M13.5 6.16016C13.7761 6.16016 14 5.9363 14 5.66016C14 5.38401 13.7761 5.16016 13.5 5.16016C13.2239 5.16016 13 5.38401 13 5.66016C13 5.9363 13.2239 6.16016 13.5 6.16016Z" fill="black"/>
<path d="M4.5 14.1602C4.77614 14.1602 5 13.9363 5 13.6602C5 13.384 4.77614 13.1602 4.5 13.1602C4.22386 13.1602 4 13.384 4 13.6602C4 13.9363 4.22386 14.1602 4.5 14.1602Z" fill="black"/>
<path d="M1.5 11.1602C1.77614 11.1602 2 10.9363 2 10.6602C2 10.384 1.77614 10.1602 1.5 10.1602C1.22386 10.1602 1 10.384 1 10.6602C1 10.9363 1.22386 11.1602 1.5 11.1602Z" fill="black"/>
<path d="M1 3.16016H15V4.16016H1V3.16016Z" fill="black"/>
</svg>
