<svg width="221" height="96" viewBox="0 0 221 96" fill="none" xmlns="http://www.w3.org/2000/svg">
<path d="M15.2655 1.26991C14.0015 1.26991 13.1704 1.74414 12.7711 2.69163C12.3719 3.63912 12.1728 5.16088 12.1728 7.25594V15.237H18.7575V16.1354H12.1728V38.0835H18.2582V38.981H0.150068V38.0835H2.89361V16.1354H0V15.237H2.89361V15.0379C2.89361 10.2475 3.80845 6.61626 5.63715 4.13836C7.46586 1.66141 10.5259 0.421497 14.8163 0.421497C17.6426 0.421497 19.6723 0.978451 20.9027 2.09235C22.1321 3.20722 22.7477 4.49619 22.7477 5.95927C22.7477 7.42235 22.3649 8.5199 21.6011 9.25096C20.8363 9.98298 19.8214 10.3485 18.5574 10.3485C17.2934 10.3485 16.3208 10.0243 15.6397 9.37601C14.9577 8.72672 14.6172 7.9793 14.6172 7.13089C14.6172 6.28247 14.7172 5.46004 14.9163 4.66164H16.8124C17.4761 2.40017 16.9615 1.26991 15.2655 1.26991Z" fill="#231F20"/>
<path d="M30.5054 36.7836C30.6882 37.2828 31.0374 37.532 31.553 37.532C32.0686 37.532 32.5506 37.1078 32.9998 36.2603C33.4491 35.4119 33.6732 34.2393 33.6732 32.7435V28.1041H33.324C31.2615 28.1041 30.2313 29.6172 30.2313 32.6434V33.4409C30.2313 35.1714 30.3227 36.2853 30.5054 36.7836ZM32.2264 27.3057H33.6732V23.4185C33.6732 20.2605 33.4981 18.1404 33.1499 17.0592C32.8007 15.9789 32.1273 15.4383 31.1288 15.4383C30.5304 15.4383 29.9889 15.5961 29.5079 15.9116C29.025 16.2281 28.7845 16.66 28.7845 17.2083C28.7845 17.7575 28.8835 18.3145 29.0836 18.8801H30.3313C30.5968 19.5785 30.7296 20.4182 30.7296 21.3984C30.7296 22.3806 30.314 23.229 29.4829 23.9428C28.6517 24.6584 27.6032 25.0153 26.3401 25.0153C23.4792 25.0153 22.0497 23.6359 22.0497 20.8751C22.0497 16.785 25.5243 14.739 32.4756 14.739C36.4331 14.739 39.169 15.4133 40.6822 16.761C42.1954 18.1067 42.9524 20.576 42.9524 24.1678V34.3393C42.9524 36.0689 43.4334 36.9337 44.3992 36.9337C45.5286 36.9337 46.1952 35.2205 46.3944 31.795L47.1428 31.845C47.0091 34.7722 46.4608 36.7836 45.4959 37.8812C44.532 38.9787 42.9524 39.528 40.7572 39.528C36.766 39.528 34.4717 38.2977 33.8723 35.8361C33.4404 37.1001 32.792 38.0312 31.9272 38.6295C31.0624 39.2279 29.7984 39.528 28.1361 39.528C23.2137 39.528 20.7529 37.5156 20.7529 33.4909C20.7529 31.1303 21.6918 29.5095 23.5715 28.6274C25.4503 27.7472 28.3362 27.3057 32.2264 27.3057Z" fill="#231F20"/>
<path d="M71.8329 15.2381V16.1365L60.0107 38.0827H60.659C63.4525 38.0827 65.6476 37.3526 67.2435 35.8886C68.8403 34.4256 70.0879 32.0479 70.9845 28.7563H71.6838L70.8854 38.9811H49.9335V38.2327L61.9557 16.1365H61.4074C58.0474 16.1365 55.7118 16.6848 54.3978 17.7823C53.0838 18.8798 51.9122 21.2239 50.8819 24.8155H50.2336L50.8819 15.2381H71.8329Z" fill="#231F20"/>
<path d="M85.5012 25.1144H90.6388V22.6703C90.6388 19.9772 90.4811 18.141 90.1656 17.1589C89.8491 16.1788 89.2171 15.6873 88.2696 15.6873C87.3221 15.6873 86.6238 16.2115 86.1746 17.259C85.7253 18.3064 85.5012 20.1109 85.5012 22.6703V25.1144ZM79.0409 36.1631C76.8959 33.9518 75.8243 30.8758 75.8243 26.9351C75.8243 22.9945 77.0286 19.9772 79.4401 17.8813C81.8517 15.7874 84.9192 14.7399 88.6438 14.7399C96.193 14.7399 99.8175 18.5305 99.5183 26.1128H85.4512V28.0576C85.4512 31.3164 85.8667 33.7768 86.6978 35.4398C87.5289 37.1028 88.9757 37.9339 91.038 37.9339C94.8953 37.9339 97.4233 35.8726 98.6209 31.7482L99.5183 31.8983C98.8863 34.2923 97.7474 36.1554 96.1016 37.4847C94.4548 38.8149 91.9865 39.4805 88.6938 39.4805C84.4037 39.4805 81.186 38.3753 79.0409 36.1631Z" fill="#231F20"/>
<path d="M144.366 35.6136C144.733 36.7611 145.406 37.3344 146.387 37.3344C147.367 37.3344 148.216 36.9035 148.931 36.0378C149.645 35.174 150.003 33.8927 150.003 32.1968V21.3222C150.003 19.8928 149.72 18.6788 149.156 17.6803C148.59 16.6828 147.759 16.1845 146.661 16.1845C145.563 16.1845 144.816 16.9166 144.417 18.3797C144.018 19.8428 143.819 22.4034 143.819 26.0616V28.655C143.819 32.1468 144.001 34.4669 144.366 35.6136ZM150.651 38.9803L150.103 35.4895C148.972 38.1502 146.678 39.4805 143.22 39.4805C140.359 39.4805 138.139 38.4493 136.56 36.3869C134.98 34.3255 134.191 31.2493 134.191 27.1582C134.191 18.8779 137.483 14.7368 144.067 14.7368C146.993 14.7368 148.922 15.5526 149.854 17.1821V2.4665H146.81V1.56805H159.282V38.0828H161.726V38.9803H150.651Z" fill="#231F20"/>
<path d="M174.771 36.7362C174.953 37.2354 175.303 37.4846 175.818 37.4846C176.334 37.4846 176.816 37.0604 177.265 36.2129C177.714 35.3645 177.938 34.192 177.938 32.6962V28.057H177.59C175.527 28.057 174.497 29.57 174.497 32.5962V33.3946C174.497 35.124 174.588 36.237 174.771 36.7362ZM176.492 27.2586H177.938V23.4177C177.938 20.2588 177.764 18.1388 177.415 17.0576C177.066 15.9774 176.393 15.4368 175.394 15.4368C174.796 15.4368 174.255 15.5946 173.773 15.911C173.291 16.2265 173.05 16.6584 173.05 17.2077C173.05 17.756 173.149 18.3139 173.349 18.8785H174.597C174.862 19.5768 174.995 20.4175 174.995 21.3977C174.995 22.3789 174.579 23.2273 173.748 23.9419C172.916 24.6566 171.869 25.0135 170.606 25.0135C167.745 25.0135 166.315 23.6341 166.315 20.8735C166.315 16.7835 169.79 14.7375 176.741 14.7375C180.698 14.7375 183.433 15.4118 184.947 16.7585C186.46 18.1051 187.216 20.5743 187.216 24.1661V34.292C187.216 36.0215 187.698 36.8853 188.663 36.8853C189.793 36.8853 190.46 35.1741 190.659 31.7478L191.407 31.7978C191.274 34.7249 190.725 36.7362 189.76 37.8337C188.796 38.9313 187.216 39.4805 185.021 39.4805C181.031 39.4805 178.737 38.2502 178.138 35.7887C177.706 37.0527 177.057 37.9828 176.193 38.5821C175.328 39.1804 174.065 39.4805 172.402 39.4805C167.479 39.4805 165.018 37.4682 165.018 33.4446C165.018 31.0831 165.958 29.4623 167.837 28.5802C169.715 27.7001 172.601 27.2586 176.492 27.2586Z" fill="#231F20"/>
<path d="M140.239 43.5344C139.474 42.8024 138.459 42.4369 137.196 42.4369C135.931 42.4369 134.96 42.761 134.279 43.4093C133.597 44.0577 133.255 44.806 133.255 45.6545C133.255 46.5019 133.355 47.3253 133.555 48.1237H135.45C136.115 50.3851 135.6 51.5154 133.904 51.5154C132.64 51.5154 129.653 52.03 129.653 45.5294L129.648 23.0706C129.648 17.5175 127.072 14.7405 121.917 14.7405C119.689 14.7405 118.026 15.206 116.929 16.1381C115.83 17.0693 115.016 18.2996 114.484 19.828V15.2397H102.462V16.1381H105.206V38.0852H102.462V38.9836H116.629V38.0852H114.484V24.3182C114.484 22.3223 114.891 20.6264 115.706 19.2297C116.521 17.833 117.459 17.1356 118.525 17.1356C119.222 17.1356 119.704 17.4261 119.972 18.0081C120.237 18.5901 120.371 19.8781 120.371 21.874V38.9788C120.371 52.0233 129.165 52.3638 133.454 52.3638C136.281 52.3638 138.31 51.8059 139.541 50.692C140.771 49.5781 141.387 48.2891 141.387 46.8261C141.387 45.362 141.005 44.2654 140.239 43.5344Z" fill="#231F20"/>
<path d="M73.1701 82.6192H61.797L61.2478 78.9782C60.7158 80.3086 59.9251 81.3302 58.8785 82.0449C57.8309 82.7596 56.2764 83.1184 54.214 83.1184C49.0589 83.1184 46.4819 80.3423 46.4819 74.788V59.772H43.6893V58.8735H55.7598V75.9856C55.7598 77.9807 55.9013 79.2937 56.1841 79.9257C56.4669 80.5577 57.0325 80.8733 57.88 80.8733C58.7284 80.8733 59.4845 80.3586 60.1502 79.3274C60.8149 78.2962 61.1477 76.8667 61.1477 75.0362V59.772H58.8535V58.8735H70.4257V81.7207H73.1701V82.6192Z" fill="#231F20"/>
<path d="M92.3247 60.2709C91.0935 60.2709 90.0123 61.0693 89.0821 62.6652C88.151 64.2611 87.6855 66.1571 87.6855 68.3522V81.7214H91.2272V82.6189H75.6635V81.7214H78.4069V59.7717H75.6635V58.8742H87.6855V63.6627C88.1173 61.9678 88.9484 60.6624 90.1797 59.7476C91.409 58.8328 92.8057 58.3759 94.3698 58.3759C95.9319 58.3759 97.2045 58.8165 98.1856 59.6976C99.1658 60.5787 99.6574 61.8264 99.6574 63.4386C99.6574 65.0518 99.2909 66.2908 98.5598 67.1556C97.8278 68.0204 96.7053 68.4523 95.1931 68.4523C93.6791 68.4523 92.5652 67.953 91.8505 66.9555C91.1349 65.958 91.0444 64.5785 91.5764 62.8162H93.3713C94.2033 61.1194 93.8532 60.2709 92.3247 60.2709Z" fill="#231F20"/>
<path d="M119.736 62.2916C119.403 61.1113 118.754 60.5207 117.791 60.5207C116.826 60.5207 115.96 61.119 115.196 62.3156C114.431 63.5142 114.048 65.1601 114.048 67.2552V76.5341C114.048 77.9636 114.339 79.1776 114.921 80.1751C115.503 81.1726 116.335 81.6709 117.416 81.6709C118.496 81.6709 119.237 80.9408 119.636 79.4767C120.035 78.0136 120.235 75.4539 120.235 71.7946V69.2003C120.235 65.7758 120.068 63.4729 119.736 62.2916ZM114.048 45.2065V62.6658C115.312 59.8059 117.473 58.3765 120.533 58.3765C126.752 58.3765 129.861 62.5157 129.861 70.7971C129.861 75.02 129.005 78.13 127.292 80.1251C125.58 82.1201 123.01 83.1177 119.586 83.1177C117.856 83.1177 116.535 82.8512 115.621 82.3193C114.706 81.7892 114.082 80.9071 113.749 79.6758L113.401 82.6194H102.027V81.7209H104.77V46.104H102.027V45.2065H114.048Z" fill="#231F20"/>
<path d="M143.106 80.3748C143.288 80.8731 143.638 81.1222 144.153 81.1222C144.669 81.1222 145.151 80.6989 145.6 79.8505C146.049 79.0021 146.274 77.8295 146.274 76.3336V71.6951H145.924C143.862 71.6951 142.832 73.2083 142.832 76.2336V77.032C142.832 78.7616 142.923 79.8755 143.106 80.3748ZM144.827 70.8957H146.274V67.0547C146.274 63.8966 146.098 61.7755 145.749 60.6953C145.401 59.615 144.728 59.0734 143.729 59.0734C143.13 59.0734 142.59 59.2321 142.108 59.5477C141.626 59.8641 141.385 60.2961 141.385 60.8444C141.385 61.3936 141.484 61.9506 141.683 62.5162H142.931C143.197 63.2136 143.33 64.0544 143.33 65.0356C143.33 66.0158 142.914 66.8642 142.083 67.579C141.251 68.2937 140.204 68.6506 138.941 68.6506C136.08 68.6506 134.651 67.2721 134.651 64.5113C134.651 60.4202 138.125 58.376 145.077 58.376C149.033 58.376 151.769 59.0484 153.282 60.3951C154.794 61.7428 155.551 64.2112 155.551 67.8031V77.9305C155.551 79.66 156.033 80.5239 156.998 80.5239C158.128 80.5239 158.795 78.8116 158.995 75.3852L159.743 75.4352C159.609 78.3624 159.061 80.3748 158.097 81.4723C157.131 82.569 155.551 83.1192 153.356 83.1192C149.367 83.1192 147.072 81.8879 146.473 79.4273C146.041 80.6912 145.392 81.6215 144.529 82.2198C143.662 82.8181 142.4 83.1192 140.736 83.1192C135.814 83.1192 133.353 81.1068 133.353 77.082C133.353 74.7214 134.294 73.1005 136.172 72.2184C138.05 71.3373 140.936 70.8957 144.827 70.8957Z" fill="#231F20"/>
<path d="M204.213 80.3748C204.395 80.8731 204.746 81.1222 205.261 81.1222C205.776 81.1222 206.258 80.6989 206.707 79.8505C207.157 79.0021 207.381 77.8295 207.381 76.3336V71.6951H207.032C204.969 71.6951 203.939 73.2083 203.939 76.2336V77.032C203.939 78.7616 204.03 79.8755 204.213 80.3748ZM205.934 70.8957H207.381V67.0547C207.381 63.8966 207.206 61.7755 206.857 60.6953C206.508 59.615 205.835 59.0734 204.836 59.0734C204.237 59.0734 203.696 59.2321 203.215 59.5477C202.733 59.8641 202.492 60.2961 202.492 60.8444C202.492 61.3936 202.591 61.9506 202.791 62.5162H204.039C204.304 63.2136 204.437 64.0544 204.437 65.0356C204.437 66.0158 204.022 66.8642 203.19 67.579C202.358 68.2937 201.311 68.6506 200.048 68.6506C197.187 68.6506 195.758 67.2721 195.758 64.5113C195.758 60.4202 199.232 58.376 206.183 58.376C210.141 58.376 212.875 59.0484 214.389 60.3951C215.902 61.7428 216.659 64.2112 216.659 67.8031V77.9305C216.659 79.66 217.141 80.5239 218.105 80.5239C219.236 80.5239 219.902 78.8116 220.102 75.3852L220.85 75.4352C220.716 78.3624 220.168 80.3748 219.203 81.4723C218.238 82.569 216.659 83.1192 214.464 83.1192C210.474 83.1192 208.179 81.8879 207.58 79.4273C207.148 80.6912 206.5 81.6215 205.636 82.2198C204.77 82.8181 203.507 83.1192 201.844 83.1192C196.921 83.1192 194.46 81.1068 194.46 77.082C194.46 74.7214 195.401 73.1005 197.279 72.2184C199.157 71.3373 202.043 70.8957 205.934 70.8957Z" fill="#231F20"/>
<path d="M199.614 87.1693C198.849 86.4373 197.835 86.0727 196.572 86.0727C195.307 86.0727 194.334 86.3959 193.653 87.0452C192.971 87.6936 192.63 88.441 192.63 89.2895C192.63 90.1379 192.731 90.9604 192.93 91.7588H194.826C195.49 94.0203 194.975 95.1516 193.279 95.1516C192.015 95.1516 189.027 95.6652 189.027 89.1644L189.023 66.7059C189.023 61.1525 186.446 58.3754 181.292 58.3754C179.064 58.3754 177.4 58.841 176.303 59.7721C175.206 60.7033 174.39 61.9346 173.859 63.4631V58.8737H161.838V59.7721H164.58V81.7209H161.838V82.6193H176.004V81.7209H173.859V67.9525C173.859 65.9575 174.265 64.2615 175.081 62.8648C175.895 61.4681 176.834 60.7697 177.9 60.7697C178.598 60.7697 179.08 61.0602 179.347 61.6431C179.611 62.2241 179.745 63.5132 179.745 65.5082V82.6145C179.745 95.6575 188.539 96 192.83 96C195.657 96 197.686 95.4421 198.916 94.3272C200.146 93.2132 200.761 91.9242 200.761 90.4621C200.761 88.998 200.379 87.9014 199.614 87.1693Z" fill="#231F20"/>
</svg>
