<svg width="31" height="23" viewBox="0 0 31 23" fill="none" xmlns="http://www.w3.org/2000/svg">
<path d="M14.5697 16.5319C13.8718 15.3737 12.6698 14.2503 11.0045 13.2889C9.46648 12.3805 7.59841 11.6871 5.53806 11.2496H5.51536H5.49263C4.016 11.01 2.52613 10.8609 1.03132 10.803C0.825438 10.7924 0.622582 10.7848 0.425781 10.7802V6.23828C0.624096 6.23828 0.828465 6.2504 1.03132 6.26099C1.41887 6.27613 1.80489 6.29582 2.19092 6.32459C3.30814 6.40029 4.41024 6.52645 5.49718 6.70309H5.51987H5.5426C7.60295 7.14063 9.47102 7.83706 11.0091 8.74242C13.5675 10.2201 15.0314 12.0732 15.2585 13.8582C15.3807 14.8048 15.134 15.7621 14.5697 16.5319Z" fill="#A26C40"/>
<path d="M30.7585 18.2651V22.81L29.5277 22.7707H29.5247L21.9524 22.5193L13.9062 22.2559V17.7109L15.1158 17.7503L21.9524 17.9744L22.4096 17.9895L29.5262 18.2272H29.5277L30.7585 18.2651Z" fill="#A26C40"/>
<path d="M30.7581 18.2666L29.5273 18.2287L22.4122 17.991L21.9581 17.9759L15.1094 17.7518L13.8983 17.7125V17.2855C14.1447 17.0566 14.3669 16.8029 14.5614 16.5285C15.1243 15.7587 15.3698 14.8021 15.2471 13.8563C15.0201 12.0759 13.5562 10.2228 10.9978 8.74057C9.4597 7.83218 7.59158 7.13878 5.53123 6.70124H5.50854H5.48581C4.39987 6.52562 3.29781 6.39945 2.17957 6.32274C1.79354 6.29398 1.40748 6.27429 1.01994 6.25915C0.814053 6.24855 0.609683 6.24249 0.414396 6.23644V5.30232L0.388672 0.742188L30.7581 18.2666Z" fill="#23B258"/>
<path d="M30.7581 18.2666L29.5273 18.2287L22.4122 17.991L21.9581 17.9759L15.1094 17.7518L13.8983 17.7125V17.2855C14.1447 17.0566 14.3669 16.8029 14.5614 16.5285C15.1243 15.7587 15.3698 14.8021 15.2471 13.8563C15.0201 12.0759 13.5562 10.2228 10.9978 8.74057C9.4597 7.83218 7.59158 7.13878 5.53123 6.70124H5.50854H5.48581C4.39987 6.52562 3.29781 6.39945 2.17957 6.32274C1.79354 6.29398 1.40748 6.27429 1.01994 6.25915C0.814053 6.24855 0.609683 6.24249 0.414396 6.23644V5.30232L0.388672 0.742188L30.7581 18.2666Z" fill="white" fill-opacity="0.25"/>
<path d="M30.7581 18.2666L29.5273 18.2287L22.4122 17.991L21.9581 17.9759L15.1094 17.7518L13.8983 17.7125V17.2855C14.1447 17.0566 14.3669 16.8029 14.5614 16.5285C15.1243 15.7587 15.3698 14.8021 15.2471 13.8563C15.0201 12.0759 13.5562 10.2228 10.9978 8.74057C9.4597 7.83218 7.59158 7.13878 5.53123 6.70124H5.50854H5.48581C4.39987 6.52562 3.29781 6.39945 2.17957 6.32274C1.79354 6.29398 1.40748 6.27429 1.01994 6.25915C0.814053 6.24855 0.609683 6.24249 0.414396 6.23644V5.30232L0.388672 0.742188L30.7581 18.2666Z" stroke="#231F20" stroke-opacity="0.1"/>
</svg>
