<svg width="10" height="14" viewBox="0 0 10 14" fill="none" xmlns="http://www.w3.org/2000/svg">
<path d="M9.60365 5.58805L7.84608 6.60243L4.43686 8.57062C3.14857 7.47146 2.17817 6.27237 1.54689 5.01879C0.980473 3.92918 0.680588 2.72075 0.671875 1.49273C0.672291 1.09405 0.705223 0.696067 0.770298 0.302734L7.82941 1.86365C7.91268 3.16719 8.51973 4.44196 9.60365 5.58805Z" fill="#23B258"/>
<path d="M9.60365 5.58805L7.84608 6.60243L4.43686 8.57062C3.14857 7.47146 2.17817 6.27237 1.54689 5.01879C0.980473 3.92918 0.680588 2.72075 0.671875 1.49273C0.672291 1.09405 0.705223 0.696067 0.770298 0.302734L7.82941 1.86365C7.91268 3.16719 8.51973 4.44196 9.60365 5.58805Z" fill="white" fill-opacity="0.25"/>
<path d="M9.60365 5.58805L7.84608 6.60243L4.43686 8.57062C3.14857 7.47146 2.17817 6.27237 1.54689 5.01879C0.980473 3.92918 0.680588 2.72075 0.671875 1.49273C0.672291 1.09405 0.705223 0.696067 0.770298 0.302734L7.82941 1.86365C7.91268 3.16719 8.51973 4.44196 9.60365 5.58805Z" stroke="#231F20" stroke-opacity="0.1"/>
<path d="M9.60423 5.41016V9.95515L4.4375 12.9392V8.39422L7.84668 6.42452L9.60423 5.41016Z" fill="#A26C40"/>
<path d="M9.60423 5.41016V9.95515L4.4375 12.9392V8.39422L7.84668 6.42452L9.60423 5.41016Z" fill="black" fill-opacity="0.25"/>
<path d="M9.60423 5.41016V9.95515L4.4375 12.9392V8.39422L7.84668 6.42452L9.60423 5.41016Z" stroke="#231F20" stroke-opacity="0.1"/>
<path d="M4.43692 8.57202V13.114C1.97535 11.0141 0.671875 8.54628 0.671875 6.03609V1.49414C0.680589 2.72216 0.980478 3.93059 1.5469 5.0202C2.17819 6.2768 3.14861 7.47286 4.43692 8.57202Z" fill="#A26C40"/>
</svg>
