<svg width="72" height="22" viewBox="0 0 72 22" fill="none" xmlns="http://www.w3.org/2000/svg">
<path d="M46.998 16.4992V21.0411C45.7415 20.6374 44.4527 20.2644 43.1316 19.9223C34.7751 17.7785 25.5482 17.0457 16.5332 17.8148V13.2728C25.5497 12.5052 34.7751 13.2365 43.1316 15.3818C43.5131 15.4828 43.8915 15.5837 44.267 15.6846C45.1935 15.938 46.1038 16.2095 46.998 16.4992Z" fill="#A26C40"/>
<path d="M71.2211 2.51562L71.2196 7.06062L46.998 21.0453V16.5003L53.3956 12.8062L58.249 10.0053L65.2763 5.94633L71.2211 2.51562Z" fill="#A26C40"/>
<path d="M71.2211 2.51562L71.2196 7.06062L46.998 21.0453V16.5003L53.3956 12.8062L58.249 10.0053L65.2763 5.94633L71.2211 2.51562Z" fill="black" fill-opacity="0.25"/>
<path d="M71.2211 2.51562L71.2196 7.06062L46.998 21.0453V16.5003L53.3956 12.8062L58.249 10.0053L65.2763 5.94633L71.2211 2.51562Z" stroke="#231F20" stroke-opacity="0.1"/>
<path d="M71.2199 2.51436L65.2765 5.94505L58.2492 10.004L53.3958 12.8049L46.9983 16.499C46.1051 16.2094 45.1968 15.9373 44.2734 15.683C43.8979 15.5821 43.5195 15.4811 43.138 15.3802C34.7815 13.2349 25.5561 12.5036 16.5396 13.2712C16.4488 13.2424 16.3564 13.2137 16.2656 13.1819C13.6154 12.3426 11.0519 11.2511 8.61009 9.92227L7.97728 9.5559C6.69385 8.82288 5.46407 7.99973 4.29713 7.09265C2.80664 5.94502 1.46193 4.61956 0.292969 3.14569L6.83431 2.16765C9.37455 5.12446 13.2909 7.61801 18.1443 9.3712C22.0077 10.7641 26.3509 11.6422 30.8607 11.945C35.3341 12.254 39.8287 11.9828 44.2325 11.138C48.5243 10.2977 52.4345 8.917 55.6772 7.09568C58.7806 5.35005 61.2012 3.24409 62.7787 0.914062L69.703 2.23427H69.7151L71.2199 2.51436Z" fill="#23B258"/>
<path d="M71.2199 2.51436L65.2765 5.94505L58.2492 10.004L53.3958 12.8049L46.9983 16.499C46.1051 16.2094 45.1968 15.9373 44.2734 15.683C43.8979 15.5821 43.5195 15.4811 43.138 15.3802C34.7815 13.2349 25.5561 12.5036 16.5396 13.2712C16.4488 13.2424 16.3564 13.2137 16.2656 13.1819C13.6154 12.3426 11.0519 11.2511 8.61009 9.92227L7.97728 9.5559C6.69385 8.82288 5.46407 7.99973 4.29713 7.09265C2.80664 5.94502 1.46193 4.61956 0.292969 3.14569L6.83431 2.16765C9.37455 5.12446 13.2909 7.61801 18.1443 9.3712C22.0077 10.7641 26.3509 11.6422 30.8607 11.945C35.3341 12.254 39.8287 11.9828 44.2325 11.138C48.5243 10.2977 52.4345 8.917 55.6772 7.09568C58.7806 5.35005 61.2012 3.24409 62.7787 0.914062L69.703 2.23427H69.7151L71.2199 2.51436Z" fill="white" fill-opacity="0.25"/>
<path d="M71.2199 2.51436L65.2765 5.94505L58.2492 10.004L53.3958 12.8049L46.9983 16.499C46.1051 16.2094 45.1968 15.9373 44.2734 15.683C43.8979 15.5821 43.5195 15.4811 43.138 15.3802C34.7815 13.2349 25.5561 12.5036 16.5396 13.2712C16.4488 13.2424 16.3564 13.2137 16.2656 13.1819C13.6154 12.3426 11.0519 11.2511 8.61009 9.92227L7.97728 9.5559C6.69385 8.82288 5.46407 7.99973 4.29713 7.09265C2.80664 5.94502 1.46193 4.61956 0.292969 3.14569L6.83431 2.16765C9.37455 5.12446 13.2909 7.61801 18.1443 9.3712C22.0077 10.7641 26.3509 11.6422 30.8607 11.945C35.3341 12.254 39.8287 11.9828 44.2325 11.138C48.5243 10.2977 52.4345 8.917 55.6772 7.09568C58.7806 5.35005 61.2012 3.24409 62.7787 0.914062L69.703 2.23427H69.7151L71.2199 2.51436Z" stroke="#231F20" stroke-opacity="0.1"/>
<path d="M16.5338 13.2986V17.8179C13.787 16.9655 11.1309 15.8443 8.60424 14.4704L7.97142 14.1041C4.75449 12.254 2.15066 10.0799 0.287109 7.69234V3.15039C1.45608 4.62425 2.80078 5.94974 4.29128 7.09736C5.45822 8.00444 6.688 8.82759 7.97142 9.56061L8.60424 9.92698C11.046 11.2558 13.6096 12.3473 16.2598 13.1866L16.5338 13.2986Z" fill="#A26C40"/>
</svg>
