<svg width="27" height="18" viewBox="0 0 27 18" fill="none" xmlns="http://www.w3.org/2000/svg">
<path d="M26.9443 10.4948C25.1277 10.9722 23.3615 11.5046 21.6458 12.0921C20.5801 12.4574 19.5375 12.8425 18.5182 13.2472L6.66623 6.40704L0.837891 3.04145L13.244 0.53125C15.3164 2.89761 17.9051 5.1035 20.9479 7.09439C21.7563 7.63186 22.5511 8.12996 23.417 8.62958C24.5434 9.28059 25.7191 9.90233 26.9443 10.4948Z" fill="#23B258"/>
<path d="M26.9443 10.4948C25.1277 10.9722 23.3615 11.5046 21.6458 12.0921C20.5801 12.4574 19.5375 12.8425 18.5182 13.2472L6.66623 6.40704L0.837891 3.04145L13.244 0.53125C15.3164 2.89761 17.9051 5.1035 20.9479 7.09439C21.7563 7.63186 22.5511 8.12996 23.417 8.62958C24.5434 9.28059 25.7191 9.90233 26.9443 10.4948Z" fill="white" fill-opacity="0.25"/>
<path d="M26.9443 10.4948C25.1277 10.9722 23.3615 11.5046 21.6458 12.0921C20.5801 12.4574 19.5375 12.8425 18.5182 13.2472L6.66623 6.40704L0.837891 3.04145L13.244 0.53125C15.3164 2.89761 17.9051 5.1035 20.9479 7.09439C21.7563 7.63186 22.5511 8.12996 23.417 8.62958C24.5434 9.28059 25.7191 9.90233 26.9443 10.4948Z" stroke="#231F20" stroke-opacity="0.1"/>
<path d="M21.6433 12.0914C20.5775 12.4568 19.5349 12.8418 18.5156 13.2466V17.7885C21.2666 16.7001 24.0816 15.7809 26.9448 15.0361V10.4941C25.1271 10.9716 23.36 11.504 21.6433 12.0914Z" fill="#A26C40"/>
<path d="M21.6433 12.0914C20.5775 12.4568 19.5349 12.8418 18.5156 13.2466V17.7885C21.2666 16.7001 24.0816 15.7809 26.9448 15.0361V10.4941C25.1271 10.9716 23.36 11.504 21.6433 12.0914Z" fill="black" fill-opacity="0.25"/>
<path d="M21.6433 12.0914C20.5775 12.4568 19.5349 12.8418 18.5156 13.2466V17.7885C21.2666 16.7001 24.0816 15.7809 26.9448 15.0361V10.4941C25.1271 10.9716 23.36 11.504 21.6433 12.0914Z" stroke="#231F20" stroke-opacity="0.1"/>
<path d="M18.5151 13.2483V17.7933L0.837891 7.586V3.04102L6.66622 6.4066L18.5151 13.2483Z" fill="#A26C40"/>
</svg>
