<svg width="17" height="14" viewBox="0 0 17 14" fill="none" xmlns="http://www.w3.org/2000/svg">
<path d="M16.8487 4.57441V9.10414C13.8551 9.40229 11.09 10.2241 8.95305 11.4636C8.19655 11.8945 7.49176 12.4104 6.85239 13.0013H6.8418V8.47001C7.48632 7.87563 8.1973 7.35763 8.96061 6.9263C9.89624 6.39164 10.8828 5.95157 11.9058 5.61263C12.1974 5.51174 12.4955 5.41841 12.8002 5.33265C13.0287 5.26606 13.2542 5.20552 13.4934 5.14649C14.0352 5.01028 14.5921 4.89173 15.1642 4.79084H15.1763L15.2702 4.7757C15.3746 4.75754 15.4805 4.74089 15.5865 4.72576C15.8619 4.68338 16.1389 4.64706 16.4173 4.61376C16.5586 4.59762 16.6993 4.58248 16.8396 4.56836L16.8487 4.57441Z" fill="#7A5130"/>
<path d="M16.8424 4.55881C16.8424 4.55881 16.8424 4.55881 16.8424 4.56638C16.7012 4.58051 16.5604 4.59564 16.4202 4.61178C16.1417 4.64508 15.8648 4.6814 15.5893 4.72378C15.4834 4.73891 15.3774 4.75556 15.273 4.77372L15.1776 4.79037C15.1776 4.79037 15.1776 4.79037 15.1776 4.79794C14.6056 4.89278 14.0461 5.00881 13.4992 5.14603C13.2647 5.20505 13.0346 5.2671 12.8061 5.33218C12.5034 5.41794 12.2052 5.51127 11.9116 5.61217C10.8887 5.95111 9.90211 6.39117 8.96648 6.92584C8.20317 7.35717 7.49219 7.87516 6.84767 8.46955H6.8401L5.17531 7.86417L0.810547 6.24327V6.23268C1.75172 5.37667 2.78402 4.62655 3.88889 3.99581C6.95815 2.21752 10.8886 1.01585 15.1655 0.552734V0.584517C15.1655 0.584517 15.1761 0.575436 15.1776 0.584517L16.8424 4.55881Z" fill="#5AC582"/>
<path d="M6.83746 8.46783V13.0081H6.82838L0.798828 10.7819V6.24609H0.807909L5.17419 7.85186L6.83897 8.45723L6.83746 8.46783Z" fill="#A26C40"/>
</svg>
