<svg width="24" height="12" viewBox="0 0 24 12" fill="none" xmlns="http://www.w3.org/2000/svg">
<path d="M23.7425 3.12608C23.5306 3.26083 23.3111 3.39406 23.0855 3.52275C21.5728 4.38327 19.9734 5.08157 18.3139 5.606L18.1746 5.65141C17.1547 5.97358 16.1189 6.24292 15.0712 6.45836C14.2098 6.63852 13.3242 6.7869 12.422 6.90196C9.0717 7.32737 5.67939 7.29886 2.33674 6.81719C1.80589 6.74149 1.27959 6.65317 0.757812 6.55224L2.33674 2.50382C4.9543 3.07366 7.6463 3.21987 10.3102 2.93683C13.0639 2.64463 15.6086 1.90428 17.6447 0.806641L23.7425 3.12608Z" fill="#23B258"/>
<path d="M23.7425 3.12608C23.5306 3.26083 23.3111 3.39406 23.0855 3.52275C21.5728 4.38327 19.9734 5.08157 18.3139 5.606L18.1746 5.65141C17.1547 5.97358 16.1189 6.24292 15.0712 6.45836C14.2098 6.63852 13.3242 6.7869 12.422 6.90196C9.0717 7.32737 5.67939 7.29886 2.33674 6.81719C1.80589 6.74149 1.27959 6.65317 0.757812 6.55224L2.33674 2.50382C4.9543 3.07366 7.6463 3.21987 10.3102 2.93683C13.0639 2.64463 15.6086 1.90428 17.6447 0.806641L23.7425 3.12608Z" fill="white" fill-opacity="0.25"/>
<path d="M23.7425 3.12608C23.5306 3.26083 23.3111 3.39406 23.0855 3.52275C21.5728 4.38327 19.9734 5.08157 18.3139 5.606L18.1746 5.65141C17.1547 5.97358 16.1189 6.24292 15.0712 6.45836C14.2098 6.63852 13.3242 6.7869 12.422 6.90196C9.0717 7.32737 5.67939 7.29886 2.33674 6.81719C1.80589 6.74149 1.27959 6.65317 0.757812 6.55224L2.33674 2.50382C4.9543 3.07366 7.6463 3.21987 10.3102 2.93683C13.0639 2.64463 15.6086 1.90428 17.6447 0.806641L23.7425 3.12608Z" stroke="#231F20" stroke-opacity="0.1"/>
<path d="M23.7429 3.12695V7.66891C23.531 7.80517 23.312 7.93789 23.0859 8.06709C21.5305 8.95172 19.8839 9.66542 18.175 10.1957C16.2986 10.7836 14.3734 11.2021 12.4223 11.4463C8.54238 11.9401 4.60899 11.8221 0.765625 11.0966V6.5546C1.28639 6.65553 1.81274 6.74385 2.3446 6.81955C5.68727 7.30121 9.07961 7.32974 12.4299 6.90434C13.3382 6.78928 14.2178 6.6409 15.0791 6.46073C16.1268 6.2453 17.1626 5.97596 18.1825 5.65379L18.3218 5.60836C19.9813 5.08393 21.5807 4.38566 23.0935 3.52513C23.3115 3.39493 23.531 3.2617 23.7429 3.12695Z" fill="#A26C40"/>
</svg>
