<svg width="11" height="11" viewBox="0 0 11 11" fill="none" xmlns="http://www.w3.org/2000/svg">
<path d="M10.89 1.33037C10.8295 1.43787 10.7508 1.56656 10.6493 1.7119C10.1872 2.35972 9.62151 2.92698 8.97499 3.3909C8.06717 4.04612 7.06659 4.56202 6.00633 4.92154C4.66505 5.39693 2.97861 5.7724 0.859204 5.93137C0.615472 5.95105 0.365657 5.96618 0.111328 5.97829L0.857688 2.8913V2.86101C1.87793 2.79206 2.88237 2.5727 3.83847 2.21001C4.65086 1.91562 5.38954 1.4481 6.0033 0.839844L10.89 1.33037Z" fill="#23B258"/>
<path d="M10.89 1.33037C10.8295 1.43787 10.7508 1.56656 10.6493 1.7119C10.1872 2.35972 9.62151 2.92698 8.97499 3.3909C8.06717 4.04612 7.06659 4.56202 6.00633 4.92154C4.66505 5.39693 2.97861 5.7724 0.859204 5.93137C0.615472 5.95105 0.365657 5.96618 0.111328 5.97829L0.857688 2.8913V2.86101C1.87793 2.79206 2.88237 2.5727 3.83847 2.21001C4.65086 1.91562 5.38954 1.4481 6.0033 0.839844L10.89 1.33037Z" fill="white" fill-opacity="0.25"/>
<path d="M10.89 1.33037C10.8295 1.43787 10.7508 1.56656 10.6493 1.7119C10.1872 2.35972 9.62151 2.92698 8.97499 3.3909C8.06717 4.04612 7.06659 4.56202 6.00633 4.92154C4.66505 5.39693 2.97861 5.7724 0.859204 5.93137C0.615472 5.95105 0.365657 5.96618 0.111328 5.97829L0.857688 2.8913V2.86101C1.87793 2.79206 2.88237 2.5727 3.83847 2.21001C4.65086 1.91562 5.38954 1.4481 6.0033 0.839844L10.89 1.33037Z" stroke="#231F20" stroke-opacity="0.1"/>
<path d="M10.8921 1.16016V5.70211C10.8315 5.8096 10.7528 5.93829 10.6514 6.08363C10.1895 6.73126 9.62378 7.29806 8.97705 7.76112C7.40265 8.92386 4.69893 10.1275 0.107422 10.3485V5.80656C0.361749 5.79445 0.611525 5.77932 0.855255 5.75964C2.97465 5.60824 4.65956 5.2252 6.00235 4.74981C7.0626 4.39029 8.06318 3.87439 8.97099 3.21917C9.6175 2.75525 10.1832 2.18799 10.6453 1.54017C10.7528 1.38877 10.8315 1.26008 10.8921 1.16016Z" fill="#A26C40"/>
<path d="M10.8921 1.16016V5.70211C10.8315 5.8096 10.7528 5.93829 10.6514 6.08363C10.1895 6.73126 9.62378 7.29806 8.97705 7.76112C7.40265 8.92386 4.69893 10.1275 0.107422 10.3485V5.80656C0.361749 5.79445 0.611525 5.77932 0.855255 5.75964C2.97465 5.60824 4.65956 5.2252 6.00235 4.74981C7.0626 4.39029 8.06318 3.87439 8.97099 3.21917C9.6175 2.75525 10.1832 2.18799 10.6453 1.54017C10.7528 1.38877 10.8315 1.26008 10.8921 1.16016Z" fill="black" fill-opacity="0.25"/>
<path d="M10.8921 1.16016V5.70211C10.8315 5.8096 10.7528 5.93829 10.6514 6.08363C10.1895 6.73126 9.62378 7.29806 8.97705 7.76112C7.40265 8.92386 4.69893 10.1275 0.107422 10.3485V5.80656C0.361749 5.79445 0.611525 5.77932 0.855255 5.75964C2.97465 5.60824 4.65956 5.2252 6.00235 4.74981C7.0626 4.39029 8.06318 3.87439 8.97099 3.21917C9.6175 2.75525 10.1832 2.18799 10.6453 1.54017C10.7528 1.38877 10.8315 1.26008 10.8921 1.16016Z" stroke="#231F20" stroke-opacity="0.1"/>
</svg>
