<svg width="37" height="26" viewBox="0 0 37 26" fill="none" xmlns="http://www.w3.org/2000/svg">
<path d="M36.9865 4.48098C34.9271 5.18365 32.9386 6.07938 31.0477 7.1562C29.1117 8.23494 27.344 9.5912 25.8007 11.1819C25.2508 11.7596 24.7448 12.3775 24.2868 13.0304C22.826 15.1197 22.0766 17.3529 22.0766 19.6102V19.6572L14.8192 20.069L9.88105 20.3718L5.52721 20.6428H5.51812L0.976562 20.9652L36.2765 0.583984L36.9865 4.48098Z" fill="#23B258"/>
<path d="M36.9865 4.48098C34.9271 5.18365 32.9386 6.07938 31.0477 7.1562C29.1117 8.23494 27.344 9.5912 25.8007 11.1819C25.2508 11.7596 24.7448 12.3775 24.2868 13.0304C22.826 15.1197 22.0766 17.3529 22.0766 19.6102V19.6572L14.8192 20.069L9.88105 20.3718L5.52721 20.6428H5.51812L0.976562 20.9652L36.2765 0.583984L36.9865 4.48098Z" fill="white" fill-opacity="0.25"/>
<path d="M36.9865 4.48098C34.9271 5.18365 32.9386 6.07938 31.0477 7.1562C29.1117 8.23494 27.344 9.5912 25.8007 11.1819C25.2508 11.7596 24.7448 12.3775 24.2868 13.0304C22.826 15.1197 22.0766 17.3529 22.0766 19.6102V19.6572L14.8192 20.069L9.88105 20.3718L5.52721 20.6428H5.51812L0.976562 20.9652L36.2765 0.583984L36.9865 4.48098Z" stroke="#231F20" stroke-opacity="0.1"/>
<path d="M22.0747 19.6582V24.2032L14.8157 24.615H14.8097L5.5192 25.1964H5.5101L0.974609 25.5158V20.9724L5.5101 20.6499H5.5192L9.87455 20.3789L14.8112 20.07H14.8173L22.0747 19.6582Z" fill="#A26C40"/>
<path d="M36.9876 4.48047V9.02242C34.9279 9.72445 32.9394 10.6202 31.0488 11.6976C28.127 13.363 25.8275 15.3675 24.2864 17.5719C22.8255 19.6612 22.0762 21.8943 22.0762 24.1517V19.6097C22.0762 17.3524 22.8331 15.1192 24.2864 13.0299C24.7444 12.377 25.2504 11.7591 25.8003 11.1814C27.3435 9.59069 29.1113 8.23443 31.0472 7.15569C32.9387 6.07878 34.9276 5.18305 36.9876 4.48047Z" fill="#A26C40"/>
<path d="M36.9876 4.48047V9.02242C34.9279 9.72445 32.9394 10.6202 31.0488 11.6976C28.127 13.363 25.8275 15.3675 24.2864 17.5719C22.8255 19.6612 22.0762 21.8943 22.0762 24.1517V19.6097C22.0762 17.3524 22.8331 15.1192 24.2864 13.0299C24.7444 12.377 25.2504 11.7591 25.8003 11.1814C27.3435 9.59069 29.1113 8.23443 31.0472 7.15569C32.9387 6.07878 34.9276 5.18305 36.9876 4.48047Z" fill="black" fill-opacity="0.25"/>
<path d="M36.9876 4.48047V9.02242C34.9279 9.72445 32.9394 10.6202 31.0488 11.6976C28.127 13.363 25.8275 15.3675 24.2864 17.5719C22.8255 19.6612 22.0762 21.8943 22.0762 24.1517V19.6097C22.0762 17.3524 22.8331 15.1192 24.2864 13.0299C24.7444 12.377 25.2504 11.7591 25.8003 11.1814C27.3435 9.59069 29.1113 8.23443 31.0472 7.15569C32.9387 6.07878 34.9276 5.18305 36.9876 4.48047Z" stroke="#231F20" stroke-opacity="0.1"/>
</svg>
