<svg width="16" height="12" viewBox="0 0 16 12" fill="none" xmlns="http://www.w3.org/2000/svg">
<path d="M1.26615 2.96777C1.74116 2.96783 2.2006 3.12983 2.56203 3.42468C2.92347 3.71954 3.16325 4.12796 3.23834 4.57667C3.41024 4.41242 3.61429 4.28219 3.83883 4.19345C4.06338 4.1047 4.30401 4.05918 4.54696 4.05948H5.83075V4.74179C5.83075 4.97476 5.78279 5.20545 5.6896 5.42068C5.59641 5.63591 5.45982 5.83148 5.28762 5.99621C5.11543 6.16095 4.911 6.29162 4.68602 6.38077C4.46104 6.46992 4.2199 6.51581 3.97638 6.51581H3.26316V9.18771H2.69259V5.69703H2.12201C1.59237 5.69703 1.08442 5.49575 0.709912 5.13747C0.335399 4.77918 0.125 4.29324 0.125 3.78655V2.96777H1.26615ZM5.26018 4.60533H4.54696C4.20648 4.60533 3.87994 4.73473 3.63918 4.96505C3.39842 5.19538 3.26316 5.50777 3.26316 5.8335V5.96996H3.97638C4.14497 5.96996 4.31191 5.93819 4.46767 5.87647C4.62343 5.81475 4.76495 5.72428 4.88416 5.61024C5.00338 5.49619 5.09794 5.3608 5.16246 5.21179C5.22697 5.06278 5.26018 4.90308 5.26018 4.74179V4.60533ZM1.26615 3.51363H0.695575V3.78655C0.695575 4.14847 0.84586 4.49557 1.11337 4.75149C1.38088 5.00741 1.7437 5.15118 2.12201 5.15118H2.69259V4.87826C2.69259 4.51633 2.5423 4.16923 2.2748 3.91332C2.00729 3.6574 1.64447 3.51363 1.26615 3.51363Z" fill="black"/>
<path d="M6.05148 0.660156C6.58753 0.660225 7.10601 0.843035 7.5139 1.17579C7.92179 1.50854 8.19238 1.96945 8.27713 2.47582C8.47111 2.29046 8.70139 2.1435 8.95479 2.04335C9.20819 1.9432 9.47975 1.89182 9.75392 1.89216H11.2027V2.66216C11.2027 2.92507 11.1486 3.1854 11.0434 3.4283C10.9382 3.67119 10.7841 3.89189 10.5898 4.0778C10.3954 4.2637 10.1648 4.41117 9.91085 4.51178C9.65696 4.61239 9.38483 4.66417 9.11002 4.66417H8.30514V7.67946H7.66124V3.74017H7.01733C6.41963 3.74017 5.8464 3.51302 5.42375 3.10869C5.00111 2.70436 4.76367 2.15597 4.76367 1.58416V0.660156H6.05148ZM10.5588 2.50816H9.75392C9.36968 2.50816 9.00118 2.65419 8.72948 2.91412C8.45778 3.17404 8.30514 3.52658 8.30514 3.89417V4.04817H9.11002C9.30028 4.04817 9.48867 4.01232 9.66444 3.94267C9.84022 3.87301 9.99993 3.77092 10.1345 3.64222C10.269 3.51352 10.3757 3.36072 10.4485 3.19257C10.5213 3.02441 10.5588 2.84418 10.5588 2.66216V2.50816ZM6.05148 1.27616H5.40758V1.58416C5.40758 1.99259 5.57717 2.3843 5.87906 2.67311C6.18095 2.96192 6.5904 3.12417 7.01733 3.12417H7.66124V2.81616C7.66124 2.40773 7.49164 2.01602 7.18975 1.72722C6.88786 1.43841 6.47841 1.27616 6.05148 1.27616Z" fill="black"/>
<path d="M14.6121 3.53906C14.1807 3.53912 13.7635 3.68623 13.4352 3.954C13.107 4.22178 12.8893 4.59269 12.8211 5.00018C12.6649 4.85102 12.4796 4.73275 12.2757 4.65216C12.0718 4.57157 11.8533 4.53022 11.6326 4.53049H10.4668V5.15014C10.4668 5.36171 10.5103 5.57121 10.5949 5.76667C10.6796 5.96214 10.8036 6.13974 10.96 6.28934C11.1164 6.43894 11.302 6.55761 11.5063 6.63858C11.7107 6.71954 11.9296 6.76121 12.1508 6.76121H12.7985V9.1877H13.3167V6.01764H13.8348C14.3158 6.01764 14.7771 5.83485 15.1172 5.50947C15.4574 5.18409 15.6484 4.74279 15.6484 4.28264V3.53906H14.6121ZM10.9849 5.02621H11.6326C11.9418 5.02621 12.2384 5.14372 12.457 5.35289C12.6757 5.56206 12.7985 5.84576 12.7985 6.14157V6.2655H12.1508C11.9977 6.2655 11.8461 6.23665 11.7046 6.1806C11.5632 6.12455 11.4347 6.04239 11.3264 5.93882C11.2181 5.83525 11.1323 5.71229 11.0737 5.57697C11.0151 5.44165 10.9849 5.29661 10.9849 5.15014V5.02621ZM14.6121 4.03478H15.1303V4.28264C15.1303 4.61132 14.9938 4.92653 14.7508 5.15895C14.5079 5.39136 14.1784 5.52193 13.8348 5.52193H13.3167V5.27407C13.3167 4.94539 13.4532 4.63017 13.6961 4.39776C13.939 4.16535 14.2685 4.03478 14.6121 4.03478Z" fill="black"/>
<path d="M5.95548 11.6602C5.95548 11.2861 5.87846 10.9157 5.72882 10.5701C5.57917 10.2245 5.35983 9.91042 5.08332 9.64589C4.80681 9.38136 4.47855 9.17153 4.11727 9.02837C3.756 8.88521 3.36878 8.81152 2.97774 8.81152C2.5867 8.81152 2.19949 8.88521 1.83821 9.02837C1.47693 9.17153 1.14867 9.38137 0.87216 9.64589C0.595651 9.91042 0.376313 10.2245 0.226667 10.5701C0.0770215 10.9157 -3.4186e-08 11.2861 0 11.6602H0.48377C0.48377 11.3469 0.548278 11.0367 0.673612 10.7472C0.798946 10.4577 0.982651 10.1947 1.21424 9.97315C1.44582 9.7516 1.72076 9.57585 2.02334 9.45595C2.32592 9.33604 2.65023 9.27433 2.97774 9.27433C3.30526 9.27433 3.62956 9.33604 3.93214 9.45595C4.23473 9.57585 4.50966 9.75159 4.74125 9.97315C4.97283 10.1947 5.15654 10.4577 5.28187 10.7472C5.40721 11.0367 5.47171 11.3469 5.47171 11.6602H5.95548Z" fill="black"/>
<path d="M10.9613 10.2354C10.9613 9.86133 10.8843 9.4909 10.7347 9.14528C10.585 8.79966 10.3657 8.48562 10.0892 8.22109C9.81267 7.95656 9.48441 7.74673 9.12313 7.60356C8.76186 7.4604 8.37464 7.38672 7.9836 7.38672C7.59256 7.38672 7.20535 7.4604 6.84407 7.60356C6.48279 7.74673 6.15453 7.95656 5.87802 8.22109C5.60151 8.48562 5.38217 8.79966 5.23253 9.14528C5.08288 9.4909 5.00586 9.86133 5.00586 10.2354H5.48963C5.48963 9.92211 5.55414 9.61186 5.67947 9.32239C5.80481 9.03291 5.98851 8.76989 6.2201 8.54834C6.45168 8.32679 6.72662 8.15105 7.0292 8.03114C7.33178 7.91124 7.65609 7.84953 7.9836 7.84953C8.31111 7.84953 8.63542 7.91124 8.938 8.03114C9.24059 8.15105 9.51552 8.32679 9.74711 8.54834C9.97869 8.76989 10.1624 9.03291 10.2877 9.32239C10.4131 9.61186 10.4776 9.92211 10.4776 10.2354H10.9613Z" fill="black"/>
<path d="M16.0004 11.6602C16.0004 11.2861 15.9234 10.9157 15.7737 10.5701C15.6241 10.2245 15.4048 9.91042 15.1282 9.64589C14.8517 9.38136 14.5235 9.17153 14.1622 9.02837C13.8009 8.88521 13.4137 8.81152 13.0227 8.81152C12.6316 8.81152 12.2444 8.88521 11.8831 9.02837C11.5219 9.17153 11.1936 9.38137 10.9171 9.64589C10.6406 9.91042 10.4212 10.2245 10.2716 10.5701C10.1219 10.9157 10.0449 11.2861 10.0449 11.6602H10.5287C10.5287 11.3469 10.5932 11.0367 10.7185 10.7472C10.8439 10.4577 11.0276 10.1947 11.2592 9.97315C11.4907 9.7516 11.7657 9.57585 12.0683 9.45595C12.3708 9.33604 12.6952 9.27433 13.0227 9.27433C13.3502 9.27433 13.6745 9.33604 13.9771 9.45595C14.2796 9.57585 14.5546 9.75159 14.7862 9.97315C15.0178 10.1947 15.2015 10.4577 15.3268 10.7472C15.4521 11.0367 15.5166 11.3469 15.5166 11.6602H16.0004Z" fill="black"/>
</svg>
