<svg width="189" height="82" viewBox="0 0 189 82" fill="none" xmlns="http://www.w3.org/2000/svg">
<path d="M68.9563 43.002V49.139L55.5684 56.9457L55.5699 50.8086L68.9563 43.002Z" fill="#23B258"/>
<path d="M68.9563 43.002V49.139L55.5684 56.9457L55.5699 50.8086L68.9563 43.002Z" fill="black" fill-opacity="0.25"/>
<path d="M68.9563 43.002V49.139L55.5684 56.9457L55.5699 50.8086L68.9563 43.002Z" stroke="#231F20" stroke-opacity="0.1"/>
<path d="M125.109 75.4937V81.6307L69.3881 49.1378L69.1726 49.0121L68.957 49.1378V43.0007L69.1726 42.875L69.3881 43.0022L125.109 75.4937Z" fill="#23B258"/>
<path d="M185.564 42.8598C186.888 43.6316 186.887 45.5438 185.564 46.3153L183.265 47.6556L126.118 80.9806C125.496 81.3437 124.726 81.3437 124.103 80.9807L69.3901 49.0767C69.2574 48.9984 69.0921 48.9976 68.9589 49.0752L56.5644 56.3034C55.9502 56.6616 55.192 56.6668 54.5729 56.317L5.53486 28.605L3.22397 27.2977C1.8805 26.5377 1.86786 24.6068 3.20127 23.8293L41.5779 1.45078C42.2005 1.08772 42.9702 1.08773 43.5928 1.45078L107.479 38.7052C107.612 38.7832 107.778 38.7844 107.911 38.7068L128.586 26.6492C129.208 26.2861 129.978 26.286 130.601 26.649L141.018 32.723C141.151 32.8005 141.316 32.8013 141.45 32.7245L151.099 27.0969C151.722 26.7338 152.492 26.7338 153.114 27.097L155.466 28.4686C155.599 28.5463 155.764 28.5463 155.897 28.4686L157.383 27.6015C158.006 27.2382 158.776 27.2382 159.399 27.6013L185.564 42.8598Z" fill="#23B258"/>
<path d="M185.564 42.8598C186.888 43.6316 186.887 45.5438 185.564 46.3153L183.265 47.6556L126.118 80.9806C125.496 81.3437 124.726 81.3437 124.103 80.9807L69.3901 49.0767C69.2574 48.9984 69.0921 48.9976 68.9589 49.0752L56.5644 56.3034C55.9502 56.6616 55.192 56.6668 54.5729 56.317L5.53486 28.605L3.22397 27.2977C1.8805 26.5377 1.86786 24.6068 3.20127 23.8293L41.5779 1.45078C42.2005 1.08772 42.9702 1.08773 43.5928 1.45078L107.479 38.7052C107.612 38.7832 107.778 38.7844 107.911 38.7068L128.586 26.6492C129.208 26.2861 129.978 26.286 130.601 26.649L141.018 32.723C141.151 32.8005 141.316 32.8013 141.45 32.7245L151.099 27.0969C151.722 26.7338 152.492 26.7338 153.114 27.097L155.466 28.4686C155.599 28.5463 155.764 28.5463 155.897 28.4686L157.383 27.6015C158.006 27.2382 158.776 27.2382 159.399 27.6013L185.564 42.8598Z" fill="white" fill-opacity="0.25"/>
<path d="M185.564 42.8598C186.888 43.6316 186.887 45.5438 185.564 46.3153L183.265 47.6556L126.118 80.9806C125.496 81.3437 124.726 81.3437 124.103 80.9807L69.3901 49.0767C69.2574 48.9984 69.0921 48.9976 68.9589 49.0752L56.5644 56.3034C55.9502 56.6616 55.192 56.6668 54.5729 56.317L5.53486 28.605L3.22397 27.2977C1.8805 26.5377 1.86786 24.6068 3.20127 23.8293L41.5779 1.45078C42.2005 1.08772 42.9702 1.08773 43.5928 1.45078L107.479 38.7052C107.612 38.7832 107.778 38.7844 107.911 38.7068L128.586 26.6492C129.208 26.2861 129.978 26.286 130.601 26.649L141.018 32.723C141.151 32.8005 141.316 32.8013 141.45 32.7245L151.099 27.0969C151.722 26.7338 152.492 26.7338 153.114 27.097L155.466 28.4686C155.599 28.5463 155.764 28.5463 155.897 28.4686L157.383 27.6015C158.006 27.2382 158.776 27.2382 159.399 27.6013L185.564 42.8598Z" stroke="#A26C40" stroke-miterlimit="10"/>
<path d="M66.6186 22.1862L62.2617 19.6715L66.5913 17.1719L70.9467 19.6866L66.6186 22.1862Z" fill="#ECE233"/>
<path d="M66.6186 22.1862L62.2617 19.6715L66.5913 17.1719L70.9467 19.6866L66.6186 22.1862Z" fill="black" fill-opacity="0.25"/>
<path d="M66.6186 22.1862L62.2617 19.6715L66.5913 17.1719L70.9467 19.6866L66.6186 22.1862Z" stroke="#231F20" stroke-opacity="0.1"/>
<path d="M123.779 37.5475L119.422 35.0328L123.751 32.5332L128.107 35.0479L123.779 37.5475Z" fill="#ECE233"/>
<path d="M123.779 37.5475L119.422 35.0328L123.751 32.5332L128.107 35.0479L123.779 37.5475Z" fill="black" fill-opacity="0.25"/>
<path d="M123.779 37.5475L119.422 35.0328L123.751 32.5332L128.107 35.0479L123.779 37.5475Z" stroke="#231F20" stroke-opacity="0.1"/>
</svg>
