<svg width="240" height="120" viewBox="0 0 240 120" fill="none" xmlns="http://www.w3.org/2000/svg">
<path d="M154.395 0.486029C154.973 0.276085 155.589 0.192979 156.202 0.242353C156.815 0.291727 157.41 0.472425 157.947 0.772174L225.965 38.8383L237.678 45.6013C238.328 45.9767 238.868 46.5166 239.243 47.1668C239.619 47.817 239.816 48.5545 239.816 49.3053C239.816 50.056 239.619 50.7936 239.243 51.4437C238.868 52.0939 238.328 52.6338 237.678 53.0092L123.348 119.019C122.698 119.395 121.96 119.592 121.209 119.592C120.458 119.592 119.721 119.395 119.071 119.019L65.7501 88.2321L54.163 94.9209C53.5128 95.2958 52.7753 95.4932 52.0247 95.4932C51.2741 95.4932 50.5367 95.2958 49.8864 94.9209L3.00548 67.8508C2.35317 67.4753 1.81157 66.9341 1.43542 66.2821C1.05927 65.6301 0.861906 64.8903 0.863288 64.1376C0.864671 63.3849 1.06475 62.6458 1.44329 61.9952C1.82183 61.3446 2.3654 60.8055 3.01908 60.4323L105.151 1.9228C105.65 1.63652 106.201 1.45408 106.772 1.38644C107.343 1.31879 107.922 1.36734 108.474 1.52917C115.748 3.6654 123.83 4.69036 131.939 4.49051C139.944 4.30429 147.678 2.919 154.395 0.486029Z" fill="#107644"/>
<path d="M154.395 0.486029C154.973 0.276085 155.589 0.192979 156.202 0.242353C156.815 0.291727 157.41 0.472425 157.947 0.772174L225.965 38.8383L237.678 45.6013C238.328 45.9767 238.868 46.5166 239.243 47.1668C239.619 47.817 239.816 48.5545 239.816 49.3053C239.816 50.056 239.619 50.7936 239.243 51.4437C238.868 52.0939 238.328 52.6338 237.678 53.0092L123.348 119.019C122.698 119.395 121.96 119.592 121.209 119.592C120.458 119.592 119.721 119.395 119.071 119.019L65.7501 88.2321L54.163 94.9209C53.5128 95.2958 52.7753 95.4932 52.0247 95.4932C51.2741 95.4932 50.5367 95.2958 49.8864 94.9209L3.00548 67.8508C2.35317 67.4753 1.81157 66.9341 1.43542 66.2821C1.05927 65.6301 0.861906 64.8903 0.863288 64.1376C0.864671 63.3849 1.06475 62.6458 1.44329 61.9952C1.82183 61.3446 2.3654 60.8055 3.01908 60.4323L105.151 1.9228C105.65 1.63652 106.201 1.45408 106.772 1.38644C107.343 1.31879 107.922 1.36734 108.474 1.52917C115.748 3.6654 123.83 4.69036 131.939 4.49051C139.944 4.30429 147.678 2.919 154.395 0.486029Z" fill="black" fill-opacity="0.25"/>
</svg>
