<svg width="261" height="134" viewBox="0 0 261 134" fill="none" xmlns="http://www.w3.org/2000/svg">
<path d="M153.941 132.934L259.201 72.1571C260.534 71.3875 260.57 69.4845 259.237 68.7142C241.895 58.6883 154.014 7.88435 146.577 3.65949C138.322 -1.03001 127.197 0.689518 118.923 5.58225C77.9098 29.8357 16.1012 65.0865 1.8363 73.2097C0.493286 73.9744 0.510788 75.8955 1.8492 76.6683L97.4324 131.858C98.9481 132.739 100.633 133.29 102.376 133.476C104.119 133.662 105.882 133.478 107.549 132.936C113.697 130.913 120.59 129.715 127.719 129.454C136.842 129.116 145.956 130.323 153.941 132.927" fill="#107644"/>
<path d="M153.941 132.934L259.201 72.1571C260.534 71.3875 260.57 69.4845 259.237 68.7142C241.895 58.6883 154.014 7.88435 146.577 3.65949C138.322 -1.03001 127.197 0.689518 118.923 5.58225C77.9098 29.8357 16.1012 65.0865 1.8363 73.2097C0.493286 73.9744 0.510788 75.8955 1.8492 76.6683L97.4324 131.858C98.9481 132.739 100.633 133.29 102.376 133.476C104.119 133.662 105.882 133.478 107.549 132.936C113.697 130.913 120.59 129.715 127.719 129.454C136.842 129.116 145.956 130.323 153.941 132.927" fill="black" fill-opacity="0.25"/>
</svg>
