<svg width="243" height="155" viewBox="0 0 243 155" fill="none" xmlns="http://www.w3.org/2000/svg">
<path d="M174.376 128.338C169.713 128.338 165.552 129.247 162.265 131.139C159.116 132.956 157.298 135.398 157.162 137.967C157.156 138.074 157.124 138.177 157.068 138.267C157.012 138.358 156.935 138.433 156.843 138.487L128.576 154.808C128.478 154.864 128.367 154.894 128.254 154.894C128.141 154.894 128.03 154.864 127.933 154.808L1.10668 81.5775C1.00892 81.521 0.927748 81.4398 0.871308 81.342C0.814869 81.2442 0.785156 81.1333 0.785156 81.0204C0.785156 80.9075 0.814869 80.7965 0.871308 80.6988C0.927748 80.601 1.00892 80.5197 1.10668 80.4632L138.648 1.04714C138.745 0.990669 138.856 0.960938 138.969 0.960938C139.082 0.960938 139.193 0.990669 139.291 1.04714L242.081 60.3954C242.171 60.4464 242.246 60.5182 242.302 60.6046C242.357 60.691 242.391 60.7895 242.401 60.8918C242.41 60.9941 242.395 61.0971 242.356 61.1923C242.318 61.2874 242.256 61.3719 242.178 61.4385C237.457 65.5263 234.76 70.2983 234.383 75.2324C233.991 80.4042 236.171 85.5412 240.666 90.0392" fill="#107644"/>
<path d="M174.376 128.338C169.713 128.338 165.552 129.247 162.265 131.139C159.116 132.956 157.298 135.398 157.162 137.967C157.156 138.074 157.124 138.177 157.068 138.267C157.012 138.358 156.935 138.433 156.843 138.487L128.576 154.808C128.478 154.864 128.367 154.894 128.254 154.894C128.141 154.894 128.03 154.864 127.933 154.808L1.10668 81.5775C1.00892 81.521 0.927748 81.4398 0.871308 81.342C0.814869 81.2442 0.785156 81.1333 0.785156 81.0204C0.785156 80.9075 0.814869 80.7965 0.871308 80.6988C0.927748 80.601 1.00892 80.5197 1.10668 80.4632L138.648 1.04714C138.745 0.990669 138.856 0.960938 138.969 0.960938C139.082 0.960938 139.193 0.990669 139.291 1.04714L242.081 60.3954C242.171 60.4464 242.246 60.5182 242.302 60.6046C242.357 60.691 242.391 60.7895 242.401 60.8918C242.41 60.9941 242.395 61.0971 242.356 61.1923C242.318 61.2874 242.256 61.3719 242.178 61.4385C237.457 65.5263 234.76 70.2983 234.383 75.2324C233.991 80.4042 236.171 85.5412 240.666 90.0392" fill="black" fill-opacity="0.25"/>
</svg>
