<svg width="220" height="143" viewBox="0 0 220 143" fill="none" xmlns="http://www.w3.org/2000/svg">
<path d="M0.382779 92.244L85.9396 141.645C86.8933 142.195 88.4389 142.19 89.3927 141.632L219.11 65.7811C220.064 65.2239 220.065 64.3261 219.11 63.775L110.472 1.05668C109.519 0.5071 107.972 0.51316 107.018 1.07031L3.67692 61.495C2.88518 61.9582 2.73983 62.6728 3.27876 63.2421C7.36615 67.5615 9.35838 72.4577 9.03139 77.4115C8.6832 82.7347 5.67367 87.8928 0.369141 92.2485" fill="#107644"/>
<path d="M0.382779 92.244L85.9396 141.645C86.8933 142.195 88.4389 142.19 89.3927 141.632L219.11 65.7811C220.064 65.2239 220.065 64.3261 219.11 63.775L110.472 1.05668C109.519 0.5071 107.972 0.51316 107.018 1.07031L3.67692 61.495C2.88518 61.9582 2.73983 62.6728 3.27876 63.2421C7.36615 67.5615 9.35838 72.4577 9.03139 77.4115C8.6832 82.7347 5.67367 87.8928 0.369141 92.2485" fill="black" fill-opacity="0.25"/>
</svg>
