<svg width="219" height="120" viewBox="0 0 219 120" fill="none" xmlns="http://www.w3.org/2000/svg">
<path d="M88.059 27.4012C88.1243 27.4384 88.1981 27.4579 88.2732 27.4579C88.3484 27.4579 88.4222 27.4384 88.4875 27.4012L105.12 17.7965C105.186 17.7593 105.26 17.7398 105.335 17.7398C105.41 17.7398 105.485 17.7593 105.55 17.7965L218.594 83.0629C218.659 83.1004 218.714 83.1545 218.751 83.2198C218.789 83.285 218.809 83.3591 218.809 83.4346C218.809 83.51 218.789 83.5841 218.751 83.6494C218.714 83.7146 218.659 83.7687 218.594 83.8063L166.972 113.609C166.907 113.647 166.833 113.667 166.757 113.667C166.682 113.667 166.608 113.647 166.543 113.609L142.52 99.7379L142.43 99.6864H142.305L133.252 99.6698C133.177 99.6699 133.103 99.65 133.039 99.6123L23.849 36.5669C23.784 36.5291 23.73 36.4748 23.6925 36.4096C23.655 36.3444 23.6352 36.2704 23.6352 36.1952C23.6352 36.1199 23.655 36.046 23.6925 35.9808C23.73 35.9156 23.784 35.8613 23.849 35.8235L28.0273 33.4117L28.2422 33.2876L28.0257 33.1634L1.07919 17.6057C1.01412 17.5681 0.960118 17.514 0.922558 17.4489C0.884998 17.3838 0.865234 17.31 0.865234 17.2348C0.865234 17.1596 0.884998 17.0858 0.922558 17.0207C0.960118 16.9556 1.01412 16.9015 1.07919 16.8639L30.1845 0.0586167C30.25 0.0214619 30.3241 0.00195312 30.3995 0.00195312C30.4748 0.00195312 30.5489 0.0214619 30.6144 0.0586167L57.8229 15.7677L57.9122 15.8192H58.0378L67.9172 15.8374C67.9922 15.8373 68.0659 15.8571 68.1307 15.8949L88.059 27.4012Z" fill="#8953A1"/>
<path d="M88.059 27.4012C88.1243 27.4384 88.1981 27.4579 88.2732 27.4579C88.3484 27.4579 88.4222 27.4384 88.4875 27.4012L105.12 17.7965C105.186 17.7593 105.26 17.7398 105.335 17.7398C105.41 17.7398 105.485 17.7593 105.55 17.7965L218.594 83.0629C218.659 83.1004 218.714 83.1545 218.751 83.2198C218.789 83.285 218.809 83.3591 218.809 83.4346C218.809 83.51 218.789 83.5841 218.751 83.6494C218.714 83.7146 218.659 83.7687 218.594 83.8063L166.972 113.609C166.907 113.647 166.833 113.667 166.757 113.667C166.682 113.667 166.608 113.647 166.543 113.609L142.52 99.7379L142.43 99.6864H142.305L133.252 99.6698C133.177 99.6699 133.103 99.65 133.039 99.6123L23.849 36.5669C23.784 36.5291 23.73 36.4748 23.6925 36.4096C23.655 36.3444 23.6352 36.2704 23.6352 36.1952C23.6352 36.1199 23.655 36.046 23.6925 35.9808C23.73 35.9156 23.784 35.8613 23.849 35.8235L28.0273 33.4117L28.2422 33.2876L28.0257 33.1634L1.07919 17.6057C1.01412 17.5681 0.960118 17.514 0.922558 17.4489C0.884998 17.3838 0.865234 17.31 0.865234 17.2348C0.865234 17.1596 0.884998 17.0858 0.922558 17.0207C0.960118 16.9556 1.01412 16.9015 1.07919 16.8639L30.1845 0.0586167C30.25 0.0214619 30.3241 0.00195312 30.3995 0.00195312C30.4748 0.00195312 30.5489 0.0214619 30.6144 0.0586167L57.8229 15.7677L57.9122 15.8192H58.0378L67.9172 15.8374C67.9922 15.8373 68.0659 15.8571 68.1307 15.8949L88.059 27.4012Z" fill="#CCCCCC"/>
<path d="M88.059 27.4012C88.1243 27.4384 88.1981 27.4579 88.2732 27.4579C88.3484 27.4579 88.4222 27.4384 88.4875 27.4012L105.12 17.7965C105.186 17.7593 105.26 17.7398 105.335 17.7398C105.41 17.7398 105.485 17.7593 105.55 17.7965L218.594 83.0629C218.659 83.1004 218.714 83.1545 218.751 83.2198C218.789 83.285 218.809 83.3591 218.809 83.4346C218.809 83.51 218.789 83.5841 218.751 83.6494C218.714 83.7146 218.659 83.7687 218.594 83.8063L166.972 113.609C166.907 113.647 166.833 113.667 166.757 113.667C166.682 113.667 166.608 113.647 166.543 113.609L142.52 99.7379L142.43 99.6864H142.305L133.252 99.6698C133.177 99.6699 133.103 99.65 133.039 99.6123L23.849 36.5669C23.784 36.5291 23.73 36.4748 23.6925 36.4096C23.655 36.3444 23.6352 36.2704 23.6352 36.1952C23.6352 36.1199 23.655 36.046 23.6925 35.9808C23.73 35.9156 23.784 35.8613 23.849 35.8235L28.0273 33.4117L28.2422 33.2876L28.0257 33.1634L1.07919 17.6057C1.01412 17.5681 0.960118 17.514 0.922558 17.4489C0.884998 17.3838 0.865234 17.31 0.865234 17.2348C0.865234 17.1596 0.884998 17.0858 0.922558 17.0207C0.960118 16.9556 1.01412 16.9015 1.07919 16.8639L30.1845 0.0586167C30.25 0.0214619 30.3241 0.00195312 30.3995 0.00195312C30.4748 0.00195312 30.5489 0.0214619 30.6144 0.0586167L57.8229 15.7677L57.9122 15.8192H58.0378L67.9172 15.8374C67.9922 15.8373 68.0659 15.8571 68.1307 15.8949L88.059 27.4012Z" stroke="#231F20" stroke-opacity="0.1"/>
<path d="M142.52 99.7374V105.793L142.431 105.742H142.304L133.253 105.727C133.178 105.727 133.104 105.707 133.039 105.669V99.6133C133.104 99.6511 133.178 99.6709 133.253 99.6708L142.304 99.6875H142.431L142.52 99.7374Z" fill="#8953A1"/>
<path d="M142.52 99.7374V105.793L142.431 105.742H142.304L133.253 105.727C133.178 105.727 133.104 105.707 133.039 105.669V99.6133C133.104 99.6511 133.178 99.6709 133.253 99.6708L142.304 99.6875H142.431L142.52 99.7374Z" fill="#666666"/>
<path d="M142.52 99.7374V105.793L142.431 105.742H142.304L133.253 105.727C133.178 105.727 133.104 105.707 133.039 105.669V99.6133C133.104 99.6511 133.178 99.6709 133.253 99.6708L142.304 99.6875H142.431L142.52 99.7374Z" stroke="#231F20" stroke-opacity="0.1"/>
<path d="M166.758 113.667V119.723C166.683 119.724 166.61 119.704 166.545 119.667L142.521 105.796V99.7402L166.545 113.611C166.61 113.649 166.683 113.668 166.758 113.667Z" fill="#A3A3A3"/>
<path d="M218.593 89.8664L166.971 119.669C166.905 119.706 166.831 119.726 166.756 119.725V113.669C166.831 113.67 166.906 113.65 166.971 113.612L213.982 86.4675L218.587 83.8089C218.642 83.7785 218.689 83.7362 218.725 83.685C218.76 83.6339 218.784 83.5753 218.794 83.5137V89.4182C218.811 89.5046 218.8 89.5939 218.764 89.674C218.728 89.7542 218.669 89.8214 218.593 89.8664Z" fill="#8953A1"/>
<path d="M218.593 89.8664L166.971 119.669C166.905 119.706 166.831 119.726 166.756 119.725V113.669C166.831 113.67 166.906 113.65 166.971 113.612L213.982 86.4675L218.587 83.8089C218.642 83.7785 218.689 83.7362 218.725 83.685C218.76 83.6339 218.784 83.5753 218.794 83.5137V89.4182C218.811 89.5046 218.8 89.5939 218.764 89.674C218.728 89.7542 218.669 89.8214 218.593 89.8664Z" fill="#666666"/>
<path d="M218.593 89.8664L166.971 119.669C166.905 119.706 166.831 119.726 166.756 119.725V113.669C166.831 113.67 166.906 113.65 166.971 113.612L213.982 86.4675L218.587 83.8089C218.642 83.7785 218.689 83.7362 218.725 83.685C218.76 83.6339 218.784 83.5753 218.794 83.5137V89.4182C218.811 89.5046 218.8 89.5939 218.764 89.674C218.728 89.7542 218.669 89.8214 218.593 89.8664Z" stroke="#231F20" stroke-opacity="0.1"/>
<path d="M133.041 99.6181V105.674L23.8511 42.6287C23.7774 42.5863 23.718 42.5229 23.6805 42.4466C23.643 42.3703 23.6291 42.2845 23.6407 42.2002V36.2578C23.6507 36.3209 23.6749 36.3808 23.7113 36.4333C23.7477 36.4857 23.7955 36.5292 23.8511 36.5606L133.041 99.6181Z" fill="#A3A3A3"/>
<path d="M28.243 33.2867L28.0295 33.4109L23.8513 35.8227C23.7939 35.8549 23.7449 35.9002 23.7084 35.9549C23.6718 36.0096 23.6487 36.0722 23.6409 36.1376C23.6348 36.1772 23.6348 36.2176 23.6409 36.2572V36.6902L1.08451 23.6699C1.01102 23.6276 0.951694 23.5645 0.913982 23.4885C0.876271 23.4125 0.861871 23.3271 0.872588 23.243V17.293C0.881352 17.3584 0.904995 17.421 0.941739 17.4758C0.978483 17.5307 1.02733 17.5764 1.08451 17.6094L5.68815 20.2679L28.028 33.1672L28.243 33.2867Z" fill="#A3A3A3"/>
</svg>
